<?xml version="1.0" encoding="UTF-8" standalone="no"?>
<!-- Created with Inkscape (http://www.inkscape.org/) -->

<svg
   xmlns:dc="http://purl.org/dc/elements/1.1/"
   xmlns:cc="http://creativecommons.org/ns#"
   xmlns:rdf="http://www.w3.org/1999/02/22-rdf-syntax-ns#"
   xmlns:svg="http://www.w3.org/2000/svg"
   xmlns="http://www.w3.org/2000/svg"
   xmlns:xlink="http://www.w3.org/1999/xlink"
   xmlns:sodipodi="http://sodipodi.sourceforge.net/DTD/sodipodi-0.dtd"
   xmlns:inkscape="http://www.inkscape.org/namespaces/inkscape"
   width="1024"
   height="700"
   id="svg2"
   version="1.1"
   inkscape:version="0.48.4 r9939"
   sodipodi:docname="pancakebotlayout1.svg">
  <sodipodi:namedview
     id="base"
     pagecolor="#ffffff"
     bordercolor="#666666"
     borderopacity="1.0"
     inkscape:pageopacity="0.0"
     inkscape:pageshadow="2"
     inkscape:zoom="0.98994949"
     inkscape:cx="632.14557"
     inkscape:cy="365.18173"
     inkscape:document-units="px"
     inkscape:current-layer="layer1"
     showgrid="false"
     inkscape:window-width="1650"
     inkscape:window-height="1235"
     inkscape:window-x="607"
     inkscape:window-y="97"
     inkscape:window-maximized="0"
     width="1024px" />
  <defs
     id="defs4">
    <inkscape:path-effect
       effect="rough_hatches"
       id="path-effect4222"
       is_visible="true"
       direction="-1015.8596,399.17669 , 230.5729,0"
       dist_rdm="75;1"
       growth="0"
       do_bend="true"
       bender="-1015.8596,404.17669 , 5,0"
       bottom_edge_variation="117.27917;1"
       top_edge_variation="117.27917;1"
       bottom_tgt_variation="0;1"
       top_tgt_variation="0;1"
       scale_bf="1"
       scale_bb="1"
       scale_tf="1"
       scale_tb="1"
       top_smth_variation="0;1"
       bottom_smth_variation="0;1"
       fat_output="true"
       stroke_width_top="1"
       stroke_width_bottom="1"
       front_thickness="1"
       back_thickness="0.25" />
    <inkscape:path-effect
       effect="rough_hatches"
       id="path-effect4220"
       is_visible="true"
       direction="-995.71429,415.93362 , 245,0"
       dist_rdm="0;1"
       growth="0"
       do_bend="false"
       bender="-995.71429,420.93362 , 5,0"
       bottom_edge_variation="113.71428;1"
       top_edge_variation="113.71428;1"
       bottom_tgt_variation="0;1"
       top_tgt_variation="0;1"
       scale_bf="1"
       scale_bb="1"
       scale_tf="1"
       scale_tb="1"
       top_smth_variation="0;1"
       bottom_smth_variation="0;1"
       fat_output="true"
       stroke_width_top="1"
       stroke_width_bottom="1"
       front_thickness="1"
       back_thickness="0.25" />
    <linearGradient
       id="linearGradient3784">
      <stop
         id="stop3786"
         offset="0"
         style="stop-color:#7a7a7a;stop-opacity:1;" />
      <stop
         id="stop3788"
         offset="1"
         style="stop-color:#373737;stop-opacity:1;" />
    </linearGradient>
    <linearGradient
       gradientUnits="userSpaceOnUse"
       y2="748.84387"
       x2="870.16724"
       y1="502.57825"
       x1="643.80353"
       id="linearGradient3790"
       xlink:href="#linearGradient3784"
       inkscape:collect="always" />
    <linearGradient
       y2="585.80481"
       x2="923.2005"
       y1="633.46704"
       x1="611.44299"
       gradientUnits="userSpaceOnUse"
       id="linearGradient3805"
       xlink:href="#linearGradient3784"
       inkscape:collect="always" />
    <linearGradient
       y2="585.80481"
       x2="923.2005"
       y1="633.46704"
       x1="611.44299"
       gradientUnits="userSpaceOnUse"
       id="linearGradient3818"
       xlink:href="#linearGradient3784"
       inkscape:collect="always" />
    <linearGradient
       y2="585.80481"
       x2="923.2005"
       y1="633.46704"
       x1="611.44299"
       gradientUnits="userSpaceOnUse"
       id="linearGradient3818-1"
       xlink:href="#linearGradient3784-7"
       inkscape:collect="always" />
    <linearGradient
       id="linearGradient3784-7">
      <stop
         id="stop3786-4"
         offset="0"
         style="stop-color:#7a7a7a;stop-opacity:1;" />
      <stop
         id="stop3788-0"
         offset="1"
         style="stop-color:#373737;stop-opacity:1;" />
    </linearGradient>
    <linearGradient
       inkscape:collect="always"
       xlink:href="#linearGradient3784-7"
       id="linearGradient3855"
       gradientUnits="userSpaceOnUse"
       x1="611.44299"
       y1="633.46704"
       x2="923.2005"
       y2="585.80481" />
    <linearGradient
       y2="585.80481"
       x2="923.2005"
       y1="633.46704"
       x1="611.44299"
       gradientUnits="userSpaceOnUse"
       id="linearGradient3900"
       xlink:href="#linearGradient3784-7"
       inkscape:collect="always" />
    <linearGradient
       inkscape:collect="always"
       xlink:href="#linearGradient3784"
       id="linearGradient3812"
       x1="829.3454"
       y1="547.28595"
       x2="875.79211"
       y2="631.1286"
       gradientUnits="userSpaceOnUse" />
    <linearGradient
       inkscape:collect="always"
       xlink:href="#linearGradient3784"
       id="linearGradient3824"
       gradientUnits="userSpaceOnUse"
       x1="829.3454"
       y1="547.28595"
       x2="875.79211"
       y2="631.1286"
       gradientTransform="translate(-2.0203051,83.842661)" />
    <linearGradient
       inkscape:collect="always"
       xlink:href="#linearGradient3784-7"
       id="linearGradient3940"
       x1="771.06946"
       y1="457.51657"
       x2="958.2655"
       y2="643.47827"
       gradientUnits="userSpaceOnUse" />
    <linearGradient
       inkscape:collect="always"
       xlink:href="#linearGradient3784-7"
       id="linearGradient4385"
       gradientUnits="userSpaceOnUse"
       x1="611.44299"
       y1="633.46704"
       x2="923.2005"
       y2="585.80481"
       gradientTransform="matrix(0.83267948,1.3817429,-1.3689761,0.82498584,583.66564,-1217.5928)" />
  </defs>
  <metadata
     id="metadata7">
    <rdf:RDF>
      <cc:Work
         rdf:about="">
        <dc:format>image/svg+xml</dc:format>
        <dc:type
           rdf:resource="http://purl.org/dc/dcmitype/StillImage" />
        <dc:title></dc:title>
      </cc:Work>
    </rdf:RDF>
  </metadata>
  <g
     id="layer1"
     inkscape:groupmode="layer"
     inkscape:label="Layer 1"
     transform="translate(0,-352.36218)">
    <path
       style="fill:#a5a5a5"
       d="m 33.441002,698.26493 c 1.257643,-37.17041 7.507505,-71.44124 18.47889,-101.32809 9.474788,-25.81002 24.799442,-57.73739 35.891503,-74.77633 11.574763,-17.78044 34.840365,-45.14715 50.445835,-59.33806 8.5375,-7.76363 13.81606,-14.01528 20.43945,-24.20746 15.27282,-23.50211 26.58762,-30.45457 54.8494,-33.70257 9.85559,-1.13266 21.59859,-3.87198 33.40853,-7.79328 54.72723,-18.17133 101.13186,-22.97503 152.42051,-15.77817 34.89896,4.89704 76.38988,18.32432 107.8824,34.91287 23.80763,12.54057 39.29084,23.16612 66.00003,45.2934 22.6969,18.80327 31.62676,24.25502 46.76058,28.54765 18.5932,5.27387 33.92318,4.22341 51.38519,-3.5211 10.01156,-4.44017 22.15805,-13.30323 57.07366,-41.64525 42.84648,-34.77981 67.3224,-50.39644 81.87206,-52.23766 11.62127,-1.47066 19.15794,-0.0856 26.52285,4.87416 18.23167,12.27782 21.01887,36.11635 6.19144,52.95416 -11.01757,12.51138 -35.37159,26.10285 -88.07792,49.15443 -43.1591,18.87601 -50.68781,22.88811 -61.45129,32.74771 -26.20822,24.00739 -31.21143,48.80241 -19.56192,96.94554 6.45824,26.68949 8.03049,38.52239 8.66029,65.17826 0.75663,32.02388 -2.00589,56.84689 -9.81733,88.21503 -15.92977,63.96863 -44.93965,113.0349 -95.5855,161.66999 -10.62417,10.20235 -17.96363,18.48353 -21.84486,24.64775 -14.83769,23.56539 -31.77275,33.84749 -58.93094,35.77979 -7.36111,0.5238 -17.49646,2.8984 -29.66233,6.9496 -23.98136,7.9858 -39.19531,11.8079 -59.81322,15.0265 -44.61194,6.9642 -89.13785,5.2675 -130.00169,-4.9538 -18.59736,-4.6518 -31.70469,-11.2512 -55.23565,-20.3809 C 100.09714,935.55498 28.881772,820.6351 33.441002,698.26493 z"
       id="path3008"
       inkscape:connector-curvature="0"
       sodipodi:nodetypes="csssssssssssssssssssssssssscc" />
    <path
       style="fill:#505050"
       d="m 35.267614,694.85113 c 1.338288,-30.0208 3.881936,-46.88878 11.210848,-74.34389 9.367208,-35.09082 30.034905,-80.78869 47.522283,-105.07538 12.024645,-16.7 29.591325,-36.6913 43.889215,-49.94699 10.6063,-9.83319 15.23858,-15.32953 22.3689,-26.54142 l 8.99254,-14.14011 13.4634,-8.10511 13.46341,-8.10511 17.20208,-1.90115 c 11.96588,-1.32246 22.39091,-3.64828 34.24854,-7.64079 34.58964,-11.6466 83.404,-20.04221 99.73492,-17.15359 3.37297,0.59664 6.84347,0.65642 7.71222,0.13289 0.86875,-0.52354 3.70232,-0.35465 6.29682,0.3753 2.5945,0.72995 5.66362,0.75688 6.82029,0.0598 1.15665,-0.69704 2.80098,-0.72336 3.65403,-0.0585 0.85307,0.66486 4.93088,1.38207 9.06182,1.59378 36.36506,1.86376 88.68086,16.99267 125.39543,36.26237 14.88053,7.81007 55.46525,34.50315 57.43897,37.77833 0.5259,0.87268 4.81121,4.98394 9.52293,9.13614 20.0189,17.64171 26.18535,24.20106 37.65816,40.05753 10.60073,10.99287 13.9922,18.08374 19.9404,23.5856 7.13572,5.27481 11.52438,1.70561 27.29168,-8.83317 3.97229,-2.54227 10.02145,-6.82788 13.44259,-9.52357 3.42113,-2.6957 12.63147,-7.9633 20.46742,-11.70579 47.64509,-26.588 88.94775,-44.15898 128.11598,-72.34154 13.11659,-13.16407 14.86626,-9.40211 12.62975,-20.45564 0.0274,-2.44168 -8.24324,-4.91276 -16.11965,-4.8162 -6.8927,0.0845 -7.9991,0.56647 -23.35411,10.17302 -23.10366,14.45435 -52.30552,36.09192 -71.26912,52.80793 -14.57102,12.84405 -39.82906,31.29739 -47.14426,34.44324 -11.84873,5.09547 -47.46073,3.51681 -57.52902,-2.55022 -17.0125,-10.25154 -20.37831,-12.45711 -20.61398,-13.508 -0.14761,-0.65824 4.93483,0.91773 11.29431,3.50217 22.07583,8.97144 42.69781,8.9625 63.87506,-0.0277 9.60397,-4.07709 24.03112,-14.61914 58.17372,-42.50802 41.04853,-33.5299 66.57577,-49.73847 81.27692,-51.60697 14.9945,-1.90578 27.72265,3.72296 34.82678,15.4014 4.733,7.78057 5.83806,14.15069 4.11477,23.71995 -3.56532,19.7978 -25.99049,34.75118 -98.60891,65.75367 -44.48644,18.99229 -57.6543,26.66132 -67.86669,39.5259 -8.06188,10.1556 -12.48791,18.17804 -15.03649,27.2546 -4.57909,16.308 -3.37053,39.26992 3.54253,67.30599 5.9587,24.16562 7.81054,37.73598 8.43722,61.82836 1.54195,59.28004 -10.82091,112.35533 -37.9821,163.06184 -15.32593,28.61159 -36.50506,56.11867 -63.00159,81.82541 -19.74208,19.15362 -18.08911,17.266 -27.17269,31.02995 -14.06357,21.3099 -28.71538,29.83202 -55.54654,32.30812 -10.88106,1.0041 -19.7117,3.0004 -31.71761,7.1701 -55.81423,19.3844 -117.73615,23.7072 -173.02292,12.0789 C 128.28074,980.54517 37.965222,799.07806 35.267614,694.85113 z M 191.50284,975.16068 c 0.92363,0.0104 1.34751,-0.53178 0.94195,-1.20476 -0.40556,-0.67299 -1.49309,-1.23209 -2.41672,-1.24246 -0.92364,-0.0104 -1.34752,0.53178 -0.94195,1.20477 0.40556,0.67299 1.49308,1.23209 2.41672,1.24245 z"
       id="path3006"
       inkscape:connector-curvature="0"
       sodipodi:nodetypes="csssscccssssssssssscccscccssssssssssssssssssssssccsssss" />
    <path
       style="fill:#404040"
       d="m 36.68708,694.65887 c 1.976016,-47.48668 9.462298,-79.3466 29.232449,-124.4066 4.44488,-10.13075 11.562047,-24.68983 15.815937,-32.35348 13.161341,-23.71106 37.398134,-53.27106 61.182014,-74.6196 6.13866,-5.51011 12.17731,-11.68145 13.41921,-13.71411 8.54224,-13.98128 11.39481,-18.04413 16.646,-23.70856 6.67605,-7.20144 18.18729,-13.21693 22.44739,-11.73045 1.38519,0.48333 3.69602,0.18278 5.13518,-0.66787 1.43919,-0.85062 6.67153,-1.66843 11.6275,-1.81724 10.09012,-0.30298 8.70544,0.0214 41.65664,-9.75855 56.11411,-16.65473 101.3655,-20.24577 152.81785,-12.12726 34.28766,5.41013 68.86339,17.06322 100.96404,34.02797 15.9232,8.41518 48.41047,29.9521 55.81746,37.00328 2.36046,2.24707 8.66583,8.20495 14.01193,13.23973 20.64867,19.44625 46.23489,51.94548 57.00016,72.40074 27.53869,52.32674 39.28892,90.75478 42.28879,138.3016 0.76982,12.20133 1.17592,22.69436 0.90243,23.31786 -0.79507,1.81271 -0.69098,22.77465 0.13014,26.20393 0.41103,1.71659 0.14324,5.96276 -0.5951,9.43592 -0.73831,3.47316 -2.17314,12.06961 -3.18849,19.10321 -2.51788,17.44211 -11.62878,49.61202 -18.12994,64.01552 -20.96964,46.45875 -41.25929,76.36589 -72.87491,107.41829 -21.12454,20.74821 -25.78874,25.99717 -32.37765,36.43691 -12.4419,19.71347 -28.14822,28.71123 -53.62035,30.71779 -10.38713,0.8183 -19.22486,2.7162 -30.54022,6.5587 -24.71611,8.3931 -39.92814,12.1178 -63.24367,15.4856 -70.0673,10.1207 -136.45933,-1.8594 -201.1251,-36.29193 C 147.30957,948.44328 30.997287,852.37788 36.68708,694.65887 z m 55.929638,183.68865 c -0.407218,-1.37749 -1.423085,-3.01707 -2.257548,-3.64347 -0.834415,-0.62643 -0.501239,0.5006 0.740382,2.50453 1.241646,2.00391 1.924324,2.51647 1.517105,1.13898 z m 19.517382,28.21494 c 4.17474,5.10026 8.03074,9.00784 8.56891,8.68353 1.235,-0.74425 1.74151,-0.049 -10.97747,-15.06839 -6.32724,-7.47162 -9.6079,-10.68057 -7.96851,-7.79436 1.53268,2.69831 6.20234,9.07898 10.37707,14.17922 z m 17.95498,20.60755 c 6.57465,6.48875 14.53498,13.93856 23.80833,22.2814 19.3698,17.42618 46.39926,33.6592 81.73473,49.08722 10.37277,4.52897 34.12441,11.27717 25.47014,7.23647 -9.37079,-4.3752 -12.22285,-5.5691 -19.59954,-8.20447 -32.65388,-11.66599 -80.97398,-44.2141 -112.07231,-75.49119 -2.42413,-2.43805 -4.93689,-4.11379 -5.58394,-3.72387 -1.55123,0.93482 -1.10984,1.55808 6.24259,8.81444 z m 149.80886,85.55639 c 4.88828,1.1441 8.5585,1.5337 8.15604,0.8659 -0.40246,-0.6679 -5.63819,-2.3602 -11.63493,-3.7607 -5.99674,-1.4004 -9.66696,-1.7901 -8.15604,-0.8658 1.51093,0.9242 6.74663,2.6165 11.63493,3.7606 z m 219.38421,-15.3756 c 8.04433,-1.11224 8.4248,-1.23779 7.63444,-2.51935 -0.90661,-1.4701 -12.43607,-0.74094 -17.66182,1.11697 -4.65019,1.65329 -4.68226,1.72058 -0.9783,2.05196 2.10623,0.18845 7.0588,-0.10386 11.00568,-0.64958 z M 661.84108,583.30209 c -0.34939,-4.37639 -1.353,-12.40339 -2.23023,-17.83777 -3.22175,-19.95857 -1.77232,-28.63359 6.63887,-39.73425 25.80392,-2.32687 191.32815,-80.60659 170.44298,-115.73634 -3.4838,-5.781 -4.40434,-6.39861 -12.13349,-8.1407 -12.21328,-2.75278 -17.99325,-0.74206 -39.95096,13.89811 -9.9434,6.6297 -23.25714,15.91653 -29.58609,20.6374 -10.45539,7.79887 -17.80393,13.7502 -52.6831,42.66628 -16.20501,13.43455 -29.95253,20.48504 -42.68502,21.89125 -5.59092,0.61747 -14.04931,0.28246 -18.79644,-0.7445 -4.74712,-1.02695 -9.40824,-1.91119 -10.35805,-1.96499 -2.68555,-0.15209 -11.7973,-3.19439 -11.00224,-3.67352 0.39013,-0.2351 4.26093,0.12259 8.60178,0.79486 4.34085,0.67228 11.88108,0.92275 16.75605,0.55662 25.19472,-1.89221 34.54142,-7.45038 93.38982,-55.53587 15.84688,-12.94862 25.94137,-20.11813 43.21762,-30.69486 22.35013,-13.68303 22.61772,-13.80665 31.55074,-14.57561 11.42415,-0.98342 19.94775,1.72582 27.5696,8.763 5.5157,5.09261 6.18129,6.20239 8.13559,13.56519 2.93798,11.06911 -0.0405,22.87916 -7.96929,31.59896 -11.22187,12.34145 -38.51171,26.86554 -99.25655,52.826 -36.73948,15.7013 -42.71301,18.93759 -52.3669,28.37086 -14.35398,14.02595 -22.38297,31.89447 -25.1389,55.94672 -0.89596,7.81938 -1.33926,7.22504 -2.14576,-2.87686 z"
       id="path3004"
       inkscape:connector-curvature="0"
       sodipodi:nodetypes="csssssscsssssssssssssssssscccccccssssssssssssssssssssssscsccssssssssssssssssssscc" />
    <path
       style="fill:#3e3e3e"
       d="m 37.378446,691.0771 c 1.016692,-25.24261 4.739634,-51.52015 9.853712,-69.54997 8.915934,-31.4334 30.700572,-79.96628 45.145658,-100.5777 6.300109,-8.98949 21.993684,-28.48518 27.018374,-33.56414 1.99538,-2.01695 7.12036,-7.21339 11.38881,-11.54768 4.26845,-4.33427 12.39296,-12.02646 18.05446,-17.09375 5.66149,-5.0673 10.997,-11.01649 11.85668,-13.22042 0.85969,-2.20394 2.45224,-4.54336 3.53901,-5.19875 1.64754,-0.99355 7.13216,-7.38728 13.82879,-16.12097 4.4873,-5.85231 18.01369,-10.18901 37.04419,-11.87676 6.09592,-0.54063 18.97225,-3.4615 28.61405,-6.49082 44.13273,-13.8659 70.30618,-18.81014 104.07669,-19.66039 49.30302,-1.24131 99.42877,9.33618 144.82013,30.5598 17.55725,8.20922 60.86078,34.96202 67.22251,41.52985 1.57928,1.63045 6.45461,6.05922 10.8341,9.84174 9.78025,8.44709 19.64571,18.71679 32.22672,33.54721 12.16871,14.34444 39.7162,59.35735 47.5374,77.67666 19.84353,46.47884 27.74071,88.17054 25.85016,136.47104 -0.35897,9.17113 -0.32821,18.94913 0.0684,21.72889 0.39659,2.77977 0.002,6.42666 -0.87748,8.1042 -0.8792,1.67754 -1.6653,6.26695 -1.74687,10.19872 -0.20092,9.68323 -11.963,56.34627 -16.89834,67.03989 -2.1883,4.74146 -5.16932,11.62727 -6.62448,15.30181 -4.61178,11.64546 -16.82085,33.38369 -26.35264,46.92084 -16.82972,23.90173 -26.37855,34.79361 -53.58996,61.12751 -5.19474,5.02724 -13.25596,14.72715 -17.91378,21.55536 -15.53919,22.77991 -28.78017,30.81543 -54.3362,32.97493 -10.66637,0.9013 -19.91597,2.9505 -33.34327,7.387 -24.75033,8.1779 -35.53546,10.9037 -55.50411,14.0279 -43.56789,6.8164 -86.38755,5.4624 -124.83414,-3.9476 -29.12779,-7.1292 -48.43022,-14.7209 -90.5888,-35.62884 C 62.026558,888.83332 54.989492,815.81524 37.378446,691.0771 z m 69.455734,210.00893 c 4.40786,5.60019 9.83653,12.08639 12.06373,14.41378 2.2272,2.32738 5.90264,6.49247 8.16764,9.25576 4.34934,5.30616 34.52573,32.68167 38.51233,34.93775 1.28722,0.72845 7.3201,5.07886 13.40638,9.66759 6.0863,4.58872 12.23381,8.76525 13.66115,9.28117 1.42736,0.51592 7.92036,3.73366 14.42893,7.15051 19.93177,10.46378 38.20102,17.85751 59.11474,23.92441 18.71972,5.4304 32.17345,8.0922 32.58158,6.4462 0.0975,-0.3934 -8.78945,-3.1825 -19.74884,-6.198 -10.9594,-3.0155 -21.67328,-6.3064 -23.80861,-7.3131 -2.13533,-1.0066 -8.44141,-3.58642 -14.01352,-5.73283 -31.44761,-12.11385 -66.89754,-34.76169 -98.74887,-63.08754 -15.26362,-13.57415 -37.7486,-40.14154 -51.885092,-61.3054 -9.332952,-13.97245 -9.951452,-14.72604 -8.888682,-10.83001 1.306146,4.78822 15.866093,27.58541 25.157134,39.38971 z M 79.181044,855.20137 c 0.105382,-3.35692 -3.60035,-9.50618 -5.16169,-8.56527 -0.672985,0.40556 0.195068,3.07246 1.929006,5.92644 2.308784,3.80018 3.174055,4.50646 3.232684,2.63883 z M 68.105858,832.16471 c -0.178838,-1.09631 -0.858295,-2.12548 -1.509865,-2.28708 -0.651619,-0.16157 -0.505298,0.73542 0.325152,1.99328 0.91775,1.39005 1.382395,1.50527 1.184762,0.29377 z M 308.13385,1018.8784 c 4.94267,0.078 2.00249,-2.3126 -3.1195,-2.5371 -3.16669,-0.1387 -3.51462,0.053 -2.09789,1.1574 0.93412,0.728 3.28194,1.3489 5.21737,1.3796 z m 14.78036,1.3544 c 1.51435,0.2294 2.58746,0.1419 2.38468,-0.1946 -0.20278,-0.3365 -1.60771,-0.7996 -3.12207,-1.029 -1.51436,-0.2295 -2.58747,-0.1419 -2.38468,0.1946 0.20278,0.3365 1.60771,0.7995 3.12207,1.029 z m 20.65725,2.3844 c 9.54925,-0.2896 6.5835,-2.5084 -3.86696,-2.893 -13.26426,-0.4882 -14.39992,-0.2836 -8.24057,1.4848 3.07628,0.8832 8.52467,1.5169 12.10753,1.4082 z m 154.1267,-24.61027 c 13.96048,-2.14226 17.62306,-3.0882 16.86001,-4.3544 -0.88325,-1.46566 -23.23635,0.37773 -28.75302,2.37116 -4.16775,1.50602 -4.36646,1.79068 -1.86763,2.67552 1.53802,0.54461 7.73031,0.23308 13.76064,-0.69228 z M 661.78811,579.16406 c -0.11947,-3.13886 -0.84912,-11.91776 -1.62146,-19.50864 -1.79427,-17.63521 1.75105,-28.43041 13.10908,-39.91589 11.31148,-11.43841 54.20376,-31.76695 96.81735,-45.886 7.26468,-2.40699 17.34242,-6.17196 22.395,-8.3666 13.13268,-5.70433 36.44183,-19.67279 38.21391,-22.90041 1.26199,-2.29858 0.72803,-2.3 -3.56394,-0.009 -2.77658,1.48179 -6.12244,3.40285 -7.43525,4.26901 -9.05973,-1.43156 17.40389,-9.76141 20.44693,-18.41406 1.80612,-5.17218 0.62106,-11.66988 -3.32156,-18.21224 -4.90909,-8.14612 -10.29314,-10.49899 -21.73276,-9.49734 l -8.79297,0.76991 -23.6008,15.29713 c -23.86982,15.4715 -46.33511,32.54135 -71.20391,54.10305 -7.5778,6.57008 -19.56069,15.49189 -26.9886,20.09421 -13.0647,8.09491 -13.62158,8.30068 -25.23813,9.32497 -6.53325,0.57609 -14.51668,0.32811 -17.74095,-0.55107 -6.65836,-1.81557 -5.67708,-3.21674 2.3578,-3.3667 7.62904,-0.1424 17.73566,-2.59153 28.29102,-6.85575 10.01102,-4.04433 15.32385,-7.89801 54.97834,-39.87884 55.31172,-44.60816 74.07018,-55.5702 93.12469,-54.42005 10.72483,0.64737 17.15772,4.39492 23.71429,13.81504 5.03685,7.23667 5.44119,8.50578 5.41892,17.00857 -0.0184,7.00841 -1.0954,11.01848 -4.53959,16.90195 -4.26935,7.29305 -5.40101,8.28 -20.75837,18.10394 -19.28514,12.33649 -36.36017,20.70981 -79.94756,39.205 -46.26525,19.63146 -54.69862,25.34376 -68.18457,46.18438 -4.76656,7.36606 -6.93973,13.08107 -9.51823,25.03107 -3.45583,16.01601 -4.30804,17.41396 -4.67872,7.67485 z m -33.65039,-83.13605 c 0.67299,-0.40556 1.89573,-0.39183 2.71722,0.0305 0.8215,0.42234 0.94299,1.09971 0.27001,1.50527 -0.67299,0.40557 -1.89574,0.39184 -2.71723,-0.0305 -0.82149,-0.42233 -0.94298,-1.0997 -0.27,-1.50527 z"
       id="path3002"
       inkscape:connector-curvature="0"
       sodipodi:nodetypes="csssssssssssssssssssssssssssssccsssssssscsssssssssssccccccscccsssssssssssssscssssssccsscssssssssssssssssccsssss" />
    <path
       style="fill:#343434"
       d="m 45.023948,777.96158 c -7.821291,-36.04192 -8.454723,-57.36175 -7.433342,-83.74726 0.471126,-12.17099 1.558092,-27.28623 2.415467,-33.58945 4.988961,-36.67728 17.932547,-75.56998 37.969005,-114.08862 11.775499,-22.63756 18.386327,-31.65297 47.337712,-64.55608 3.26689,-3.7128 12.02418,-11.94577 19.46066,-18.29548 10.10999,-8.63253 15.60655,-14.52356 21.78874,-23.35236 13.47,-19.23659 23.56413,-25.08137 47.26293,-27.36655 12.35692,-1.19152 18.81555,-2.78829 44.93836,-11.1101 16.25761,-5.1791 27.81858,-7.88206 53.08342,-12.41094 21.15688,-3.79248 64.1478,-3.82913 88.74977,-0.0756 27.45286,4.18845 59.55287,13.36452 84.26576,24.0881 25.93798,11.25521 58.91134,31.7106 79.46878,49.29938 12.3583,10.57366 13.16673,11.37504 29.82432,29.56441 28.84281,31.49507 51.61676,71.46771 68.26648,119.82068 9.61855,27.93349 15.08529,71.20495 13.33522,105.55355 -0.52523,10.30878 -0.74503,19.0916 -0.48844,19.51739 0.25659,0.42578 -0.0893,3.89984 -0.76856,7.72011 -0.6793,3.82028 -1.72343,10.49497 -2.32029,14.83262 -2.16494,15.73372 -14.35264,61.89787 -17.06051,64.62127 -1.50395,1.51257 -3.76366,6.44902 -5.02156,10.96988 -2.75558,9.90357 -8.96478,21.77976 -21.65766,41.42416 -15.22122,23.55746 -25.79576,36.4602 -49.02115,59.81422 -15.87485,15.96275 -23.91979,25.16018 -29.55961,33.79421 -7.06434,10.81483 -8.71868,12.50644 -18.73107,19.15331 -8.98168,5.96261 -12.7281,7.68368 -20.56691,9.44515 -5.27152,1.18487 -10.8557,1.69627 -12.40929,1.13637 -2.48039,-0.89397 -2.45249,-1.07519 0.22886,-1.48667 12.77992,-1.96123 20.67838,-4.63198 16.55828,-5.59893 -4.7992,-1.12635 -24.47819,1.08027 -29.71379,3.3318 -3.22905,1.38863 -5.71215,2.78837 -5.518,3.11053 0.19414,0.32216 3.60328,0.36662 7.57586,0.0988 9.23253,-0.62242 9.08706,0.61326 -0.21071,1.78986 -3.90037,0.4936 -14.40458,3.4952 -23.3427,6.6703 -54.58691,19.3911 -117.46667,23.4269 -173.64815,11.1453 -24.1772,-5.2852 -47.61814,-13.5436 -72.50449,-25.5439 -11.41628,-5.50496 -24.94935,-11.80271 -30.07349,-13.99501 C 84.889336,891.36311 81.443448,884.14173 45.023948,777.96158 z m 63.821732,126.9162 c 22.92557,26.54693 50.28261,52.19516 78.4345,70.44967 14.77995,9.42901 50.39284,26.35905 64.0963,30.47085 2.03258,0.6098 9.51608,2.9811 16.63,5.2693 7.11392,2.2883 20.04776,5.156 28.74185,6.3727 8.6941,1.2167 21.54331,3.0115 28.55381,3.9885 13.49243,1.8803 22.64033,2.3567 27.51183,1.4327 5.69997,-1.0811 -6.21807,-3.3101 -21.31374,-3.9863 -7.91392,-0.3544 -17.75717,-1.3179 -21.87394,-2.1411 -12.71694,-2.5429 -43.95375,-10.84 -51.54203,-13.6905 -20.55259,-7.72067 -25.96548,-9.96811 -35.90147,-14.90639 C 199.79012,1017.0922 62.721839,824.91075 72.575084,847.21912 c 5.117739,10.89368 30.615346,51.42674 36.270596,57.65866 z M 68.008332,834.2722 c 0.79774,0.009 0.06231,-3.06888 -1.634284,-6.8396 -4.881738,-10.84984 -7.26522,-13.55987 -4.530166,-5.15082 3.128637,9.61915 4.337207,11.9699 6.16445,11.99042 z M 582.65806,600.16251 C 575.36808,584.88829 556.22402,554.6555 548.52192,546.25384 -526.79809,217.38388 935.13394,1355.401 582.65806,600.16251 z M 366.24718,1022.4747 c 2.85913,-1.723 -0.5217,-2.542 -5.69913,-1.3806 l -4.77811,1.0717 4.35259,0.6884 c 2.39392,0.3786 5.15001,0.2079 6.12465,-0.3795 z m 11.84197,-0.2292 c 4.09256,-0.7787 1.9713,-2.2256 -2.89887,-1.9772 -2.56485,0.1308 -3.00305,0.4522 -1.90019,1.3938 0.78837,0.6731 2.94795,0.9357 4.79906,0.5834 z M 660.88961,566.92055 c -1.7813,-22.95023 0.64165,-31.87679 12.48083,-45.98139 3.53746,-4.21437 7.49898,-6.86065 20.81175,-13.90224 43.2962,-20.27206 160.57015,-74.07508 142.01128,-99.26903 -4.86176,-5.90538 -12.09535,-8.46027 -21.50784,-7.59651 -7.04899,0.64687 -8.05151,1.17072 -33.26924,17.38434 -14.30067,9.19455 -29.77918,19.78969 -34.39668,23.54477 -4.6175,3.75507 -11.95927,9.63231 -16.31505,13.06051 -4.35578,3.42822 -14.08054,11.57878 -21.61058,18.11234 -7.53004,6.53358 -18.91292,15.10074 -25.29531,19.03817 -10.59664,6.5373 -12.5171,7.25481 -22.11574,8.26314 -10.83592,1.13831 -22.56917,0.50143 -23.64478,-1.28343 -0.33611,-0.55774 3.94444,-1.49265 9.51232,-2.07754 5.5679,-0.58492 15.15307,-2.88708 21.3004,-5.11593 10.64256,-3.8587 12.1607,-4.81951 31.752,-20.09532 11.31622,-8.82356 27.64333,-21.75108 36.28239,-28.7278 35.6955,-28.82692 60.30352,-44.46301 72.94898,-46.35228 22.67148,-3.38717 39.79957,10.16712 39.55898,31.30494 -0.0692,6.07877 -1.30225,9.97681 -5.0812,16.06311 -4.56673,7.35505 -6.20021,8.81643 -19.26338,17.23375 -17.76094,11.44435 -37.80437,21.26392 -79.53706,38.96638 -35.57822,15.09181 -49.10433,22.47044 -58.12921,31.7101 -11.74498,12.02447 -19.93558,28.20494 -22.26145,43.97738 -0.80406,5.45253 -1.83005,9.11109 -2.27999,8.13009 -0.4499,-0.98099 -1.32811,-8.35535 -1.95154,-16.38747 z"
       id="path3000"
       inkscape:connector-curvature="0"
       sodipodi:nodetypes="csssssssssssssssssssssssscssssssssssccccsssssssscccsssscccsscsssssscsccsssssssssssssssssssccc" />
    <path
       style="fill:#101010"
       d="M 65.950778,820.64083 C 54.164379,791.88235 46.850131,766.25549 44.2603,744.64405 c -0.908988,-7.58521 -1.858153,-14.13222 -2.109247,-14.54888 -0.640521,-1.06288 -0.881188,-44.78216 -0.298364,-54.20091 1.363377,-22.03302 6.789599,-50.97627 12.028852,-64.16137 1.930671,-4.85874 5.911468,-15.69039 8.846219,-24.07033 5.998647,-17.12874 8.679058,-23.04806 17.166703,-37.91038 15.561573,-27.24914 36.778627,-54.98927 54.598027,-71.38389 17.68859,-16.2743 22.78052,-21.75761 32.21311,-34.68917 15.33044,-21.01717 24.44421,-26.17105 50.36389,-28.48106 5.34443,-0.4763 15.84479,-2.98049 23.33414,-5.56484 7.48934,-2.58437 20.54354,-6.69392 29.0093,-9.13236 72.47771,-20.8761 147.42343,-15.45497 218.00294,15.76905 19.16716,8.47947 59.76013,33.63139 74.5925,46.21849 30.9597,26.27313 56.98701,59.19001 75.97664,96.08809 29.88316,58.06495 39.60943,105.06412 35.49356,171.51164 -2.85221,46.04654 -20.4406,100.56014 -45.4311,140.80954 -3.67312,5.91588 -10.66266,15.97721 -15.53232,22.35847 -4.86965,6.38128 -10.66496,14.47192 -12.87849,17.97918 -2.2135,3.50727 -5.61258,7.33384 -7.55348,8.50348 -1.9409,1.16965 -4.82928,3.57988 -6.41862,5.35607 -1.58932,1.77619 -5.77633,5.91251 -9.30446,9.19181 -14.58743,13.55864 -18.26779,17.74304 -31.17883,35.44888 -5.67279,7.77951 -8.45459,10.35902 -16.19432,15.01667 -8.57912,5.16337 -10.56332,5.73639 -24.21623,6.99946 -15.83372,1.46483 -27.27537,4.30075 -38.91941,9.64651 -21.23591,9.7495 -93.99093,19.8765 -119.37867,16.6168 -2.90907,-0.3735 -11.97488,-1.1862 -20.14624,-1.8061 -16.21937,-1.2304 -68.27573,-13.7489 -75.35873,-18.12229 -2.4279,-1.49909 -7.56468,-3.77696 -11.41507,-5.06194 -3.85039,-1.28498 -7.42223,-3.03579 -7.93742,-3.89069 -0.51518,-0.8549 -1.89034,-1.57992 -3.05589,-1.61115 -2.14824,-0.0575 -12.06099,-4.09886 -12.71469,-5.1836 -0.19578,-0.32488 -4.78889,-2.83361 -10.20692,-5.57495 -5.41802,-2.74136 -10.8467,-6.45619 -12.06373,-8.25518 -1.21707,-1.79899 -3.96655,-3.51666 -6.11006,-3.817 -4.37993,-0.61371 -19.88046,-11.93978 -38.12142,-27.85491 C 124.2903,914.9793 109.60906,897.43351 89.69149,865.54727 76.394731,844.26036 72.997028,837.83351 65.950778,820.64083 z M 663.74263,565.85521 c 0.31479,-2.52225 0.19005,-5.2203 -0.27721,-5.99567 -1.32567,-2.19981 3.48255,-22.15036 6.41793,-26.62966 1.44862,-2.21054 3.67841,-5.81988 4.95509,-8.02077 2.69031,-4.63787 29.2623,-21.14273 45.10351,-28.01548 23.72738,-10.29417 40.22139,-17.00351 44.2101,-17.98352 2.39922,-0.58947 6.70452,-2.16397 9.56734,-3.49887 2.86282,-1.33489 10.77771,-4.95123 17.58864,-8.03632 6.81092,-3.08509 18.79681,-9.41269 26.6353,-14.06136 12.19272,-7.23094 14.93593,-9.40599 18.98701,-15.0543 5.55277,-7.74209 7.08,-15.10277 4.79012,-23.08658 -2.01521,-7.0261 -6.04243,-11.56022 -13.86771,-15.6132 l -5.95407,-3.08381 7.05627,2.12086 c 9.93097,2.9849 16.60467,9.9512 18.78,19.6034 1.8705,8.29957 0.0146,18.26151 -4.79774,25.75353 -2.68241,4.17605 -6.6733,7.31287 -20.59903,16.19075 -20.40059,13.0057 -36.1134,20.69279 -80.08269,39.1784 -38.8265,16.32349 -49.9693,23.04872 -60.51238,36.52211 -6.97596,8.91492 -12.90174,19.86001 -15.99779,29.54846 -2.15238,6.73544 -2.82998,6.79024 -2.00272,0.16198 z m -10.33464,-68.37244 c 0.67669,-0.40947 3.50082,-1.32799 6.27613,-2.0407 15.98434,-4.10478 31.17978,-14.37302 79.99982,-54.05945 27.71666,-22.53121 54.40739,-40.09574 65.32907,-42.99147 4.50801,-1.19525 8.85765,-1.83321 9.66587,-1.41769 0.86638,0.44541 -0.27669,1.04672 -2.78514,1.46511 -2.61941,0.4369 -11.96681,5.4644 -24.32094,13.08101 -28.57439,17.6168 -51.46654,34.69486 -78.82077,58.80206 -9.33696,8.22863 -19.59116,16.03548 -26.44158,20.13077 -10.10148,6.03892 -12.11116,6.74234 -20.66124,7.23239 -5.20923,0.29856 -8.91777,0.20765 -8.24122,-0.20203 z"
       id="path2998"
       inkscape:connector-curvature="0"
       sodipodi:nodetypes="ssssssssssssssssssssssscsssssssssscsssscssssssssssscssssssscccssscsssssc" />
    <path
       sodipodi:type="arc"
       style="fill:#351919;fill-opacity:1;stroke:none"
       id="path4760"
       sodipodi:cx="764.68549"
       sodipodi:cy="29.258709"
       sodipodi:rx="126.26907"
       sodipodi:ry="126.26907"
       d="m 890.95456,29.258709 a 126.26907,126.26907 0 1 1 -252.53815,0 126.26907,126.26907 0 1 1 252.53815,0 z"
       transform="matrix(2.2239999,0,0,2.2319999,-1347.1071,638.55411)" />
    <path
       style="fill:url(#linearGradient4385);fill-opacity:1;stroke:none"
       d="M 355.40625 64 C 304.43397 63.693829 252.81275 76.933073 206.03125 105.125 C 69.939618 187.13788 26.457018 364.52803 108.90625 501.34375 C 191.35548 638.15947 368.50212 682.60663 504.59375 600.59375 C 640.68538 518.58087 684.19923 341.15947 601.75 204.34375 C 547.64269 114.55843 452.71696 64.584509 355.40625 64 z M 328.65625 121 C 331.25287 120.96374 333.82219 121.21453 336.34375 121.78125 C 340.37816 122.68813 344.06085 124.31559 347.40625 126.65625 C 354.3879 131.55251 358.51679 138.3084 359.8125 146.90625 L 360.3125 150.21875 L 308.46875 158.03125 C 310.01476 162.89685 313.01486 166.66563 317.46875 169.375 C 321.9226 172.0844 326.88387 173.04624 332.375 172.21875 C 336.52941 171.59272 340.17424 170.22355 343.3125 168.125 C 346.45067 166.02649 348.7708 163.39735 350.25 160.21875 L 360.375 164.125 C 355.74252 173.83791 346.61444 179.7031 333.03125 181.75 C 328.80452 182.38694 324.69068 182.25057 320.65625 181.34375 C 316.62178 180.43694 312.93365 178.83585 309.59375 176.53125 C 302.61204 171.63506 298.4777 164.90555 297.1875 156.34375 C 295.89185 147.74589 297.83374 140.08004 303.0625 133.34375 C 305.56949 130.12118 308.63068 127.49304 312.21875 125.4375 C 315.80679 123.38208 319.71078 122.012 323.9375 121.375 C 325.5225 121.13617 327.09828 121.02175 328.65625 121 z M 328.78125 130.5625 C 327.65921 130.55608 326.53101 130.63831 325.375 130.8125 C 320.78702 131.50393 316.86266 133.50398 313.625 136.78125 C 310.38731 140.05862 308.407 143.9581 307.6875 148.5 L 347.46875 142.5 C 345.52036 138.39708 342.48669 135.25554 338.40625 133.0625 C 335.34586 131.4178 332.14737 130.58175 328.78125 130.5625 z M 488 135.65625 C 493.92566 135.60059 499.72056 137.55728 505.40625 141.53125 C 511.93397 146.09396 516.04416 151.67253 517.6875 158.28125 C 519.33067 164.89004 518.13309 171.09582 514.09375 176.875 C 511.91698 179.9892 509.19853 182.2857 505.96875 183.75 C 502.73882 185.21432 499.53323 185.65119 496.3125 185.09375 C 498.5888 187.57631 499.85103 190.87761 500.15625 194.96875 C 500.57882 200.16719 499.03704 205.28319 495.5 210.34375 C 491.23029 216.45232 485.98358 219.99034 479.75 220.9375 C 473.51632 221.88461 467.15407 220.07296 460.65625 215.53125 L 446.6875 205.78125 L 452.46875 197.5 L 466.4375 207.28125 C 469.79119 209.62536 473.37193 210.45731 477.1875 209.78125 C 481.00298 209.10515 484.02079 207.14019 486.28125 203.90625 C 488.62531 200.55251 489.48532 196.98791 488.84375 193.21875 C 488.20206 189.44959 486.16226 186.37567 482.71875 183.96875 L 468.75 174.1875 L 474.53125 165.9375 L 483.8125 172.4375 C 487.76506 175.20023 491.6825 176.40341 495.53125 176.0625 C 499.37987 175.72162 502.48894 173.85114 504.875 170.4375 C 507.21904 167.08379 507.89055 163.47776 506.90625 159.625 C 505.92179 155.77231 503.51896 152.48122 499.65625 149.78125 C 495.76345 147.06044 491.83133 145.91322 487.875 146.3125 C 483.91855 146.71188 480.75032 148.58381 478.40625 151.9375 L 442.71875 203 L 433.53125 196.5625 L 469.21875 145.5 C 473.2372 139.75079 478.65727 136.53413 485.46875 135.8125 C 486.32017 135.72231 487.15348 135.6642 488 135.65625 z M 207.25 141.6875 L 234.03125 184.3125 L 238.5625 181.46875 C 243.20322 178.55428 246.20879 174.479 247.5625 169.25 C 248.91619 164.0211 248.20838 159.23735 245.46875 154.875 L 242.75 150.5 L 251.78125 144.8125 L 254.53125 149.1875 C 257.40688 153.76642 258.78135 158.81954 258.625 164.375 C 258.46861 169.93057 256.89273 174.31833 253.90625 177.53125 C 258.72124 176.40553 263.48972 176.93772 268.25 179.125 C 273.01022 181.31236 276.90637 184.82993 279.9375 189.65625 L 283.0625 194.625 L 274.03125 200.3125 L 270.90625 195.34375 C 268.03057 190.76493 263.92119 187.89862 258.625 186.78125 C 253.32877 185.66396 248.35884 186.57792 243.65625 189.53125 L 239.09375 192.40625 L 252.53125 213.78125 L 243.46875 219.46875 L 198.1875 147.375 L 207.25 141.6875 z M 184 211.4375 C 190.03752 211.4856 195.72688 213.42536 201.03125 217.21875 L 224.96875 234.3125 L 218.75 243.03125 L 194.8125 225.90625 C 190.11732 222.54853 184.89016 221.32906 179.15625 222.28125 C 173.42235 223.23357 168.88905 226.05489 165.53125 230.75 C 162.17349 235.44523 160.95402 240.67239 161.90625 246.40625 C 162.85853 252.1402 165.67984 256.6735 170.375 260.03125 C 175.07019 263.38906 180.29734 264.60853 186.03125 263.65625 C 191.76516 262.70402 196.29845 259.8827 199.65625 255.1875 C 201.71766 252.30505 202.96678 249.09726 203.40625 245.59375 C 203.84569 242.09033 203.45537 238.65834 202.1875 235.28125 L 213.6875 243.5 C 213.21667 249.81071 211.13529 255.54815 207.4375 260.71875 C 204.95102 264.19558 201.96042 267.08003 198.5 269.34375 C 195.03956 271.60751 191.32205 273.13563 187.3125 273.90625 C 178.96634 275.52803 171.26 273.80794 164.1875 268.75 C 157.11505 263.6921 152.97405 256.91238 151.78125 248.46875 C 151.24424 244.44664 151.47634 240.44394 152.5 236.4375 C 153.52373 232.43116 155.29482 228.69562 157.78125 225.21875 C 160.26774 221.74201 163.22709 218.85757 166.6875 216.59375 C 170.14795 214.33008 173.86393 212.82321 177.84375 212.03125 C 179.93772 211.63114 181.98749 211.42147 184 211.4375 z M 535.5625 228.09375 C 539.02412 227.99901 542.49943 228.54799 546.03125 229.75 C 549.86262 231.08657 553.35592 233.12167 556.46875 235.84375 C 559.58146 238.56585 562.11381 241.80551 564.09375 245.59375 C 566.07355 249.38199 567.29216 253.32779 567.75 257.4375 C 568.20769 261.54718 567.90248 265.56003 566.8125 269.46875 C 564.45937 277.66506 559.42468 283.78502 551.71875 287.8125 C 544.0127 291.83989 536.13403 292.48308 528.09375 289.71875 C 524.22992 288.39907 520.73775 286.3783 517.625 283.65625 C 514.51221 280.93412 511.97986 277.66321 510 273.875 C 508.02011 270.08673 506.80151 266.14092 506.34375 262.03125 C 505.88597 257.92154 506.2213 253.89436 507.34375 249.96875 C 509.66442 241.78932 514.66898 235.68369 522.375 231.65625 C 526.7096 229.39083 531.11185 228.21556 535.5625 228.09375 z M 536.15625 238.71875 C 533.14242 238.82655 530.19009 239.62106 527.3125 241.125 C 522.19673 243.79868 518.77004 247.92248 517.03125 253.46875 C 515.29241 259.015 515.7638 264.35298 518.4375 269.46875 C 521.11115 274.58446 525.23495 278.01115 530.78125 279.75 C 536.32747 281.48878 541.66546 281.01739 546.78125 278.34375 C 551.89694 275.67004 555.32362 271.54624 557.0625 266 C 558.80125 260.45372 558.32986 255.11573 555.65625 250 C 552.98252 244.88425 548.85871 241.45757 543.3125 239.71875 C 540.88599 238.95802 538.50034 238.6349 536.15625 238.71875 z M 123.8125 296 L 133.15625 297.8125 L 131.65625 305.65625 C 130.62485 311.03837 131.64434 315.99906 134.71875 320.53125 C 137.79324 325.0635 142.0242 327.84358 147.40625 328.875 C 152.82424 329.91334 157.81154 328.88697 162.34375 325.8125 C 166.87598 322.73807 169.65606 318.50711 170.6875 313.125 L 172.1875 305.28125 L 181.5625 307.0625 L 180.03125 314.9375 C 178.24279 323.29919 174.10729 329.82182 167.625 334.53125 C 160.97857 339.32084 153.58704 340.9428 145.40625 339.375 C 137.22552 337.80722 130.90944 333.57062 126.46875 326.65625 C 122.09303 319.79156 120.686 312.19933 122.28125 303.875 L 123.8125 296 z M 602.71875 317.71875 L 603.5625 328.375 L 587.34375 329.6875 L 588.6875 346.65625 L 579.1875 347.4375 L 577.84375 330.4375 L 545.0625 333.0625 C 543.13236 333.21673 541.56087 334.14176 540.375 335.8125 C 539.1891 337.4832 538.71416 339.50268 538.90625 341.90625 L 539.59375 350.59375 L 530.09375 351.34375 L 529.3125 341.53125 C 528.8905 336.25071 530.05324 331.81857 532.8125 328.28125 C 535.57175 324.74391 539.30214 322.81293 544 322.4375 L 602.71875 317.71875 z M 174 366.875 L 176.625 377.25 L 141.0625 386.3125 C 137.41622 387.2421 134.59947 389.3149 132.65625 392.5625 C 130.71314 395.81015 130.22673 399.25994 131.15625 402.90625 C 132.08588 406.55259 134.17223 409.3426 137.4375 411.28125 C 140.70287 413.21991 144.16622 413.74208 147.8125 412.8125 L 183.375 403.71875 L 186.03125 414.09375 L 150.4375 423.15625 C 144.02992 424.78976 138.11275 423.90357 132.65625 420.46875 C 127.19986 417.03393 123.61203 411.97209 121.90625 405.28125 C 120.21865 398.66124 120.96582 392.52513 124.125 386.875 C 127.2843 381.22493 132.03408 377.56204 138.40625 375.9375 L 174 366.875 z M 518.75 423.0625 C 519.82105 423.05417 520.82351 423.34212 521.78125 423.875 C 523.76058 424.97627 525.01805 426.54172 525.53125 428.625 L 540.21875 476.28125 C 541.6383 481.54444 544.26276 485.21217 548.09375 487.34375 C 551.89276 489.45742 555.88873 489.93954 560.0625 488.75 C 564.23619 487.56031 567.3862 485.04897 569.5 481.25 C 571.59593 477.48282 572.05568 473.50214 570.875 469.3125 C 569.69421 465.12275 567.20524 461.9887 563.40625 459.875 C 559.28792 457.58358 554.87248 457.24852 550.1875 458.90625 L 546.90625 448.625 C 554.33507 445.56739 561.62872 446.04812 568.84375 450.0625 C 575.26056 453.63274 579.39101 458.86591 581.1875 465.78125 C 582.98387 472.69649 582.02482 479.48392 578.3125 486.15625 C 574.60006 492.82844 569.3232 497.22427 562.5 499.34375 C 555.67672 501.46306 549.07309 500.7577 542.65625 497.1875 C 539.71916 495.55326 537.10223 493.27258 534.84375 490.34375 C 532.58524 487.41477 531.0806 484.44632 530.3125 481.46875 L 517.09375 439.375 L 498.90625 472.09375 L 490.09375 467.1875 L 512.59375 426.71875 C 513.53517 425.02673 514.92754 423.90787 516.75 423.375 C 517.43343 423.17517 518.10737 423.0675 518.75 423.0625 z M 196.53125 435.59375 L 203.625 443.59375 L 181.5625 463.09375 C 177.23729 466.91626 174.88931 471.72985 174.53125 477.53125 C 174.17332 483.33266 175.92757 488.39348 179.75 492.71875 C 183.57255 497.04401 188.35489 499.39199 194.15625 499.75 C 199.9577 500.10798 205.04976 498.35373 209.375 494.53125 C 213.7003 490.70875 216.01703 485.89516 216.375 480.09375 C 216.73302 474.29235 215.01002 469.23154 211.1875 464.90625 C 208.84081 462.25089 206.00319 460.30778 202.6875 459.09375 C 199.37188 457.87977 195.91917 457.52184 192.34375 458 L 202.9375 448.65625 C 208.98185 450.53044 214.1342 453.83051 218.34375 458.59375 C 221.17435 461.79666 223.28879 465.33878 224.71875 469.21875 C 226.14874 473.09875 226.80452 477.07601 226.65625 481.15625 C 226.36486 489.65352 222.9528 496.77331 216.4375 502.53125 C 209.92225 508.28916 202.4023 510.82505 193.90625 510.09375 C 189.86616 509.71501 186.01854 508.58364 182.34375 506.6875 C 178.66907 504.79132 175.42439 502.23412 172.59375 499.03125 C 169.76324 495.82835 167.61755 492.28623 166.1875 488.40625 C 164.7576 484.52626 164.1292 480.55606 164.25 476.5 C 164.56886 467.97855 167.98479 460.82045 174.5 455.0625 L 196.53125 435.59375 z M 472.9375 489.96875 L 519.09375 561.53125 L 502.78125 572.0625 C 497.65435 575.36975 492.32141 577.60946 486.75 578.8125 C 481.17857 580.01536 475.69919 580.11687 470.34375 579.09375 C 464.83681 578.03776 459.76135 575.85534 455.09375 572.5625 C 450.42619 569.26949 446.40948 565.03195 443.0625 559.84375 C 439.71559 554.6554 437.53458 549.28213 436.46875 543.6875 C 435.403 538.09276 435.50412 532.54618 436.8125 527.09375 C 438.08827 521.79275 440.44094 516.87706 443.84375 512.3125 C 447.24662 507.74789 451.49814 503.80732 456.625 500.5 L 459.4375 498.6875 L 464.90625 507.15625 L 462.09375 508.96875 C 458.90098 511.02838 456.13083 513.71287 453.75 517.03125 C 451.36922 520.34957 449.6024 523.95885 448.5 527.84375 C 445.91991 536.98594 447.25186 545.61447 452.5 553.75 C 457.7878 561.9468 465.06228 566.78288 474.3125 568.25 C 478.29542 568.89775 482.30828 568.82069 486.34375 568 C 490.37921 567.17915 494.0276 565.71274 497.3125 563.59375 L 504.1875 559.15625 L 463.5 496.0625 L 472.9375 489.96875 z M 301.25 515.21875 L 311.53125 519.8125 L 288.40625 571.65625 C 284.99854 579.29689 279.40141 584.47264 271.65625 587.21875 C 263.97431 589.91288 256.2721 589.54607 248.53125 586.09375 C 240.79054 582.6413 235.34725 577.17183 232.21875 569.65625 C 229.08682 562.05896 229.2486 554.42191 232.65625 546.78125 C 236.04919 539.17391 241.5987 533.99604 249.34375 531.25 C 257.0258 528.55579 264.75926 528.95386 272.5 532.40625 L 285.6875 538.28125 L 281.59375 547.5 L 268.375 541.59375 C 263.50369 539.42111 258.57063 539.29815 253.59375 541.21875 C 248.61699 543.13932 245.06406 546.53698 242.90625 551.375 C 240.7337 556.24632 240.60361 561.17014 242.5 566.15625 C 244.39654 571.14227 247.78496 574.70233 252.65625 576.875 C 257.52767 579.04756 262.42948 579.17053 267.40625 577.25 C 272.38312 575.32936 275.95242 571.93381 278.125 567.0625 L 301.25 515.21875 z "
       transform="translate(0,352.36218)"
       id="path3014" />
    <path
       sodipodi:type="arc"
       style="fill:#ffffff;fill-opacity:0.35638296;stroke:#000000;stroke-opacity:1"
       id="path4218"
       sodipodi:cx="-995.71429"
       sodipodi:cy="420.93362"
       sodipodi:rx="490"
       sodipodi:ry="568.57141"
       d="m -554.71429,172.80195 c 0,0 -0.5,513.53667 -24.5,559.12031 -24.375,46.29588 -24.375,-634.69783 -49,-667.284835 -25,-33.083253 -25,812.030385 -49,835.960495 -24.375,24.30403 -24.375,-884.272929 -49.00001,-903.1728273 -25,-19.1877137 -25,954.8421073 -49,968.9260073 -24.37499,14.30395 -24.37499,-1027.091008 -48.99999,-1037.785685 -25,-10.857541 -25,995.858945 -49,1003.037315 -24.375,7.29054 -24.375,-1106.04607 -49,-1110.351 -25,-4.37048 -25,1165.36301 -49,1166.73803 -24.375,1.39651 -24.375,-1134.74632 -49.00001,-1133.33549 -25,1.43232 -25,1162.93813 -49,1158.74253 -24.375,-4.2613 -24.375,-1117.71635 -49,-1110.351037 -25,7.47747 -25,1098.302037 -49,1087.878837 -24.375,-10.5861 -24.375,-1052.236353 -49,-1037.785687 -25,14.670727 -25,1014.886387 -49,996.466187 -24.375,-18.70801 -24.375,-927.726147 -49,-903.172849 -25,24.927207 -25,751.785189 -49,720.025259 -24.375,-32.25617 -24.375,-714.055565 -49,-667.284857 -25,47.482957 -25,543.707487 -49,422.211617 -24.375,-123.39425 -24.5,-100.52827 -24.5,-100.52827 0,0 -0.125,-23.13156 24.5,101.52827 25,126.5582 25,-376.62798 49,-422.21162 24.375,-46.295876 24.375,634.69786 49,667.28486 25,33.08326 25,-696.09514 49,-720.025259 24.375,-24.304026 24.375,884.272969 49,903.172849 25,19.18771 25,-982.382289 49,-996.466187 24.375,-14.303959 24.375,1027.091017 49,1037.785687 25,10.8575 25,-1080.700466 49,-1087.878837 24.375,-7.290533 24.375,1106.046037 49,1110.351037 25,4.3705 25,-1157.36751 49,-1158.74253 24.37501,-1.3965 24.37501,1134.74632 49.00001,1133.33549 25,-1.43231 25,-1170.93369 49,-1166.73803 24.375,4.26123 24.375,1117.71631 49,1110.351 25,-7.47747 25,-1013.460554 49,-1003.037315 24.375,10.586102 24.375,1052.236345 48.99999,1037.785685 25,-14.67072 25,-987.346213 49,-968.9260073 24.37501,18.7080213 24.37501,927.7261273 49.00001,903.1728273 25,-24.9272 25,-867.720418 49,-835.960495 24.375,32.256173 24.375,714.055545 49,667.284835 25,-47.48296 24.5,-560.12031 24.5,-560.12031 z"
       inkscape:path-effect="#path-effect4220" />
    <rect
       style="fill:url(#linearGradient3812);fill-opacity:1;stroke:none;stroke-width:2;stroke-linecap:butt;stroke-miterlimit:4;stroke-opacity:1;stroke-dasharray:none"
       id="rect3036"
       width="224.25386"
       height="58.58886"
       x="751.55353"
       y="559.40771"
       ry="11.111678" />
    <text
       xml:space="preserve"
       style="font-size:40px;font-style:normal;font-weight:normal;line-height:125%;letter-spacing:0px;word-spacing:0px;fill:#ecebd3;fill-opacity:1;stroke:none;font-family:Sans"
       x="800.04083"
       y="602.8443"
       id="text3814"
       sodipodi:linespacing="125%"><tspan
         sodipodi:role="line"
         id="tspan3816"
         x="800.04083"
         y="602.8443">PRINT</tspan></text>
    <rect
       ry="11.111678"
       y="643.25037"
       x="749.5332"
       height="58.58886"
       width="224.25386"
       id="rect3818"
       style="fill:url(#linearGradient3824);fill-opacity:1;stroke:none" />
    <text
       sodipodi:linespacing="125%"
       id="text3820"
       y="686.68695"
       x="798.02051"
       style="font-size:40px;font-style:normal;font-weight:normal;line-height:125%;letter-spacing:0px;word-spacing:0px;fill:#ecebd3;fill-opacity:1;stroke:none;font-family:Sans"
       xml:space="preserve"><tspan
         y="686.68695"
         x="798.02051"
         id="tspan3822"
         sodipodi:role="line">CLEAR</tspan></text>
    <path
       sodipodi:type="arc"
       style="fill:url(#linearGradient3940);fill-opacity:1;stroke:none"
       id="path3899"
       sodipodi:cx="866.71088"
       sodipodi:cy="550.49744"
       sodipodi:rx="124.24876"
       sodipodi:ry="124.24876"
       d="m 990.95963,550.49744 a 124.24876,124.24876 0 1 1 -248.49751,0 124.24876,124.24876 0 1 1 248.49751,0 z"
       transform="matrix(1.2358815,0,0,1.2276424,-206.44781,221.99492)"
       inkscape:export-filename="M:\RobDev\Projects\ArtDesign\PancakeBot2D\Design\Imgs\panlogo.png"
       inkscape:export-xdpi="62.77"
       inkscape:export-ydpi="62.77" />
    <path
       style="fill:none;stroke:none;stroke-width:2.10962820000000000;stroke-opacity:1"
       d="m 816.05008,979.44374 c -43.68783,-28.96389 -62.34137,-84.07646 -34.36492,-126.73866 27.97646,-42.6622 95.98518,-58.66396 136.8307,-25.81313 48.85031,39.28884 48.0709,95.57505 17.33628,132.72096 -32.52256,39.30682 -74.96013,50.73639 -118.64796,21.77251"
       id="path3901"
       inkscape:connector-curvature="0"
       sodipodi:nodetypes="csssc"
       inkscape:export-filename="M:\RobDev\Projects\ArtDesign\PancakeBot2D\Design\Imgs\panlogo.png"
       inkscape:export-xdpi="62.77"
       inkscape:export-ydpi="62.77" />
    <text
       xml:space="preserve"
       style="font-size:46.27450943000000200px;font-style:normal;font-variant:normal;font-weight:normal;font-stretch:normal;text-align:start;line-height:125%;letter-spacing:0px;word-spacing:0px;writing-mode:lr-tb;text-anchor:start;fill:#e5e8ee;fill-opacity:1;stroke:none;font-family:Belgium;-inkscape-font-specification:Belgium"
       id="text3904"
       sodipodi:linespacing="125%"
       transform="matrix(0.94525872,-0.32632186,0.32632186,0.94525872,-247.73063,324.81791)"
       inkscape:export-filename="M:\RobDev\Projects\ArtDesign\PancakeBot2D\Design\Imgs\panlogo.png"
       inkscape:export-xdpi="62.77"
       inkscape:export-ydpi="62.77"><textPath
         xlink:href="#path3901"
         id="textPath3920"
         style="font-size:60px;font-weight:normal;letter-spacing:7px;word-spacing:0px;fill:#e5e8ee;fill-opacity:1;stroke:none;-inkscape-font-specification:Belgium">Pancake Bot 2D</textPath></text>
    <path
       sodipodi:type="arc"
       style="fill:#e2e6eb;fill-opacity:1;stroke:none"
       id="path3924"
       sodipodi:cx="827.31494"
       sodipodi:cy="519.18268"
       sodipodi:rx="17.172594"
       sodipodi:ry="11.111678"
       d="m 844.48754,519.18268 a 17.172594,11.111678 0 1 1 -34.34519,0 17.172594,11.111678 0 1 1 34.34519,0 z"
       transform="translate(-6.0609153,336.19974)"
       inkscape:export-filename="M:\RobDev\Projects\ArtDesign\PancakeBot2D\Design\Imgs\panlogo.png"
       inkscape:export-xdpi="62.77"
       inkscape:export-ydpi="62.77" />
    <path
       transform="translate(73.741136,336.19974)"
       d="m 844.48754,519.18268 a 17.172594,11.111678 0 1 1 -34.34519,0 17.172594,11.111678 0 1 1 34.34519,0 z"
       sodipodi:ry="11.111678"
       sodipodi:rx="17.172594"
       sodipodi:cy="519.18268"
       sodipodi:cx="827.31494"
       id="path3926"
       style="fill:#e2e6eb;fill-opacity:1;stroke:none"
       sodipodi:type="arc"
       inkscape:export-filename="M:\RobDev\Projects\ArtDesign\PancakeBot2D\Design\Imgs\panlogo.png"
       inkscape:export-xdpi="62.77"
       inkscape:export-ydpi="62.77" />
    <path
       style="fill:none;stroke:#e5e9ee;stroke-width:8.19999980999999960;stroke-linecap:round;stroke-linejoin:miter;stroke-miterlimit:4;stroke-opacity:1;stroke-dasharray:none"
       d="m 859.63982,871.54487 c 0,0 -6.06092,33.33503 -19.1929,45.45686 -13.13198,12.12183 37.37564,5.05077 37.37564,5.05077"
       id="path3928"
       inkscape:connector-curvature="0"
       inkscape:export-filename="M:\RobDev\Projects\ArtDesign\PancakeBot2D\Design\Imgs\panlogo.png"
       inkscape:export-xdpi="62.77"
       inkscape:export-ydpi="62.77" />
    <path
       style="fill:#e2e6eb;fill-opacity:1;stroke:none"
       d="m 801.05097,934.17434 c 15.41734,5.77582 45.45687,91.92386 124.24876,-6.06092 -59.599,47.47717 -124.24876,6.06092 -124.24876,6.06092 z"
       id="path3930"
       inkscape:connector-curvature="0"
       sodipodi:nodetypes="cc"
       inkscape:export-filename="M:\RobDev\Projects\ArtDesign\PancakeBot2D\Design\Imgs\panlogo.png"
       inkscape:export-xdpi="62.77"
       inkscape:export-ydpi="62.77" />
  </g>
</svg>
