<?xml version="1.0" encoding="UTF-8" standalone="no"?>
<!-- Created with Inkscape (http://www.inkscape.org/) -->

<svg
   xmlns:dc="http://purl.org/dc/elements/1.1/"
   xmlns:cc="http://creativecommons.org/ns#"
   xmlns:rdf="http://www.w3.org/1999/02/22-rdf-syntax-ns#"
   xmlns:svg="http://www.w3.org/2000/svg"
   xmlns="http://www.w3.org/2000/svg"
   xmlns:xlink="http://www.w3.org/1999/xlink"
   xmlns:sodipodi="http://sodipodi.sourceforge.net/DTD/sodipodi-0.dtd"
   xmlns:inkscape="http://www.inkscape.org/namespaces/inkscape"
   width="1024"
   height="700"
   id="svg2"
   version="1.1"
   inkscape:version="0.48.5 r10040"
   sodipodi:docname="pancakebotlayout3.svg">
  <sodipodi:namedview
     id="base"
     pagecolor="#ffffff"
     bordercolor="#666666"
     borderopacity="1.0"
     inkscape:pageopacity="0.0"
     inkscape:pageshadow="2"
     inkscape:zoom="0.42919518"
     inkscape:cx="566.6931"
     inkscape:cy="22.134404"
     inkscape:document-units="px"
     inkscape:current-layer="layer1"
     showgrid="false"
     inkscape:window-width="1440"
     inkscape:window-height="811"
     inkscape:window-x="0"
     inkscape:window-y="0"
     inkscape:window-maximized="1"
     width="1024px" />
  <defs
     id="defs4">
    <linearGradient
       id="linearGradient3793">
      <stop
         style="stop-color:#ffc71c;stop-opacity:1;"
         offset="0"
         id="stop3795" />
      <stop
         id="stop3801"
         offset="0.5"
         style="stop-color:#f4cf5f;stop-opacity:1;" />
      <stop
         style="stop-color:#e77d12;stop-opacity:1;"
         offset="1"
         id="stop3797" />
    </linearGradient>
    <inkscape:path-effect
       effect="rough_hatches"
       id="path-effect4222"
       is_visible="true"
       direction="-1015.8596,399.17669 , 230.5729,0"
       dist_rdm="75;1"
       growth="0"
       do_bend="true"
       bender="-1015.8596,404.17669 , 5,0"
       bottom_edge_variation="117.27917;1"
       top_edge_variation="117.27917;1"
       bottom_tgt_variation="0;1"
       top_tgt_variation="0;1"
       scale_bf="1"
       scale_bb="1"
       scale_tf="1"
       scale_tb="1"
       top_smth_variation="0;1"
       bottom_smth_variation="0;1"
       fat_output="true"
       stroke_width_top="1"
       stroke_width_bottom="1"
       front_thickness="1"
       back_thickness="0.25" />
    <inkscape:path-effect
       effect="rough_hatches"
       id="path-effect4220"
       is_visible="true"
       direction="-995.71429,415.93362 , 245,0"
       dist_rdm="0;1"
       growth="0"
       do_bend="false"
       bender="-995.71429,420.93362 , 5,0"
       bottom_edge_variation="113.71428;1"
       top_edge_variation="113.71428;1"
       bottom_tgt_variation="0;1"
       top_tgt_variation="0;1"
       scale_bf="1"
       scale_bb="1"
       scale_tf="1"
       scale_tb="1"
       top_smth_variation="0;1"
       bottom_smth_variation="0;1"
       fat_output="true"
       stroke_width_top="1"
       stroke_width_bottom="1"
       front_thickness="1"
       back_thickness="0.25" />
    <linearGradient
       id="linearGradient3784">
      <stop
         id="stop3786"
         offset="0"
         style="stop-color:#7a7a7a;stop-opacity:1;" />
      <stop
         id="stop3788"
         offset="1"
         style="stop-color:#373737;stop-opacity:1;" />
    </linearGradient>
    <linearGradient
       gradientUnits="userSpaceOnUse"
       y2="748.84387"
       x2="870.16724"
       y1="502.57825"
       x1="643.80353"
       id="linearGradient3790"
       xlink:href="#linearGradient3784"
       inkscape:collect="always" />
    <linearGradient
       y2="585.80481"
       x2="923.2005"
       y1="633.46704"
       x1="611.44299"
       gradientUnits="userSpaceOnUse"
       id="linearGradient3805"
       xlink:href="#linearGradient3784"
       inkscape:collect="always" />
    <linearGradient
       y2="585.80481"
       x2="923.2005"
       y1="633.46704"
       x1="611.44299"
       gradientUnits="userSpaceOnUse"
       id="linearGradient3818"
       xlink:href="#linearGradient3784"
       inkscape:collect="always" />
    <linearGradient
       y2="585.80481"
       x2="923.2005"
       y1="633.46704"
       x1="611.44299"
       gradientUnits="userSpaceOnUse"
       id="linearGradient3818-1"
       xlink:href="#linearGradient3784-7"
       inkscape:collect="always" />
    <linearGradient
       id="linearGradient3784-7">
      <stop
         id="stop3786-4"
         offset="0"
         style="stop-color:#7a7a7a;stop-opacity:1;" />
      <stop
         id="stop3788-0"
         offset="1"
         style="stop-color:#373737;stop-opacity:1;" />
    </linearGradient>
    <linearGradient
       inkscape:collect="always"
       xlink:href="#linearGradient3784-7"
       id="linearGradient3855"
       gradientUnits="userSpaceOnUse"
       x1="611.44299"
       y1="633.46704"
       x2="923.2005"
       y2="585.80481" />
    <linearGradient
       y2="585.80481"
       x2="923.2005"
       y1="633.46704"
       x1="611.44299"
       gradientUnits="userSpaceOnUse"
       id="linearGradient3900"
       xlink:href="#linearGradient3784-7"
       inkscape:collect="always" />
    <linearGradient
       inkscape:collect="always"
       xlink:href="#linearGradient3784-7"
       id="linearGradient4385"
       gradientUnits="userSpaceOnUse"
       x1="611.44299"
       y1="633.46704"
       x2="923.2005"
       y2="585.80481"
       gradientTransform="matrix(0.83267948,1.3817429,-1.3689761,0.82498584,583.66564,-1217.5928)" />
    <radialGradient
       inkscape:collect="always"
       xlink:href="#linearGradient3793"
       id="radialGradient3799"
       cx="511.42236"
       cy="350.50864"
       fx="511.42236"
       fy="350.50864"
       r="512.30817"
       gradientTransform="matrix(1,0,0,0.68391872,0,110.78922)"
       gradientUnits="userSpaceOnUse" />
    <linearGradient
       inkscape:collect="always"
       xlink:href="#linearGradient3784-7"
       id="linearGradient3813"
       gradientUnits="userSpaceOnUse"
       x1="771.06946"
       y1="457.51657"
       x2="958.2655"
       y2="643.47827" />
    <radialGradient
       inkscape:collect="always"
       xlink:href="#linearGradient3793"
       id="radialGradient3906"
       gradientUnits="userSpaceOnUse"
       gradientTransform="matrix(1,0,0,0.68391872,1135.0751,-725.51247)"
       cx="511.42236"
       cy="350.50864"
       fx="511.42236"
       fy="350.50864"
       r="512.30817" />
    <linearGradient
       inkscape:collect="always"
       xlink:href="#linearGradient3784-7"
       id="linearGradient3908"
       gradientUnits="userSpaceOnUse"
       gradientTransform="matrix(0.77234837,1.4163497,-1.4032632,0.76521216,779.25987,-68.754757)"
       x1="611.44299"
       y1="633.46704"
       x2="923.2005"
       y2="585.80481" />
  </defs>
  <metadata
     id="metadata7">
    <rdf:RDF>
      <cc:Work
         rdf:about="">
        <dc:format>image/svg+xml</dc:format>
        <dc:type
           rdf:resource="http://purl.org/dc/dcmitype/StillImage" />
        <dc:title></dc:title>
      </cc:Work>
    </rdf:RDF>
  </metadata>
  <g
     id="layer1"
     inkscape:groupmode="layer"
     inkscape:label="Layer 1"
     transform="translate(0,-352.36218)">
    <rect
       style="fill:url(#radialGradient3799);fill-opacity:1;stroke:none;stroke-width:1.77165353000000003;stroke-miterlimit:4;stroke-opacity:1;stroke-dasharray:none"
       id="rect3023"
       width="1022.8447"
       height="698.98267"
       x="0"
       y="1.017307"
       transform="translate(0,352.36218)"
       inkscape:export-filename="/Users/rob/Documents/PancakeBot2D/Design/Imgs/backdrop.png"
       inkscape:export-xdpi="70.269997"
       inkscape:export-ydpi="70.269997" />
    <g
       id="g3920"
       inkscape:export-filename="/Users/rob/Documents/PancakeBot2D/Design/Imgs/panLandscape.png"
       inkscape:export-xdpi="92"
       inkscape:export-ydpi="92">
      <path
         sodipodi:nodetypes="csssssssssssssssssssssssssscc"
         inkscape:connector-curvature="0"
         id="path3008"
         d="m 33.441002,698.26493 c 1.257643,-37.17041 7.507505,-71.44124 18.47889,-101.32809 9.474788,-25.81002 24.799442,-57.73739 35.891503,-74.77633 11.574763,-17.78044 34.840365,-45.14715 50.445835,-59.33806 8.5375,-7.76363 13.81606,-14.01528 20.43945,-24.20746 15.27282,-23.50211 26.58762,-30.45457 54.8494,-33.70257 9.85559,-1.13266 21.59859,-3.87198 33.40853,-7.79328 54.72723,-18.17133 101.13186,-22.97503 152.42051,-15.77817 34.89896,4.89704 76.38988,18.32432 107.8824,34.91287 23.80763,12.54057 39.29084,23.16612 66.00003,45.2934 22.6969,18.80327 31.62676,24.25502 46.76058,28.54765 18.5932,5.27387 33.92318,4.22341 51.38519,-3.5211 10.01156,-4.44017 22.15805,-13.30323 57.07366,-41.64525 42.84648,-34.77981 67.3224,-50.39644 81.87206,-52.23766 11.62127,-1.47066 19.15794,-0.0856 26.52285,4.87416 18.23167,12.27782 21.01887,36.11635 6.19144,52.95416 -11.01757,12.51138 -35.37159,26.10285 -88.07792,49.15443 -43.1591,18.87601 -50.68781,22.88811 -61.45129,32.74771 -26.20822,24.00739 -31.21143,48.80241 -19.56192,96.94554 6.45824,26.68949 8.03049,38.52239 8.66029,65.17826 0.75663,32.02388 -2.00589,56.84689 -9.81733,88.21503 -15.92977,63.96863 -44.93965,113.0349 -95.5855,161.66999 -10.62417,10.20235 -17.96363,18.48353 -21.84486,24.64775 -14.83769,23.56539 -31.77275,33.84749 -58.93094,35.77979 -7.36111,0.5238 -17.49646,2.8984 -29.66233,6.9496 -23.98136,7.9858 -39.19531,11.8079 -59.81322,15.0265 -44.61194,6.9642 -89.13785,5.2675 -130.00169,-4.9538 -18.59736,-4.6518 -31.70469,-11.2512 -55.23565,-20.3809 C 100.09714,935.55498 28.881772,820.6351 33.441002,698.26493 z"
         style="fill:#a5a5a5" />
      <path
         sodipodi:nodetypes="csssscccssssssssssscccscccssssssssssssssssssssssccsssss"
         inkscape:connector-curvature="0"
         id="path3006"
         d="m 35.267614,694.85113 c 1.338288,-30.0208 3.881936,-46.88878 11.210848,-74.34389 9.367208,-35.09082 30.034905,-80.78869 47.522283,-105.07538 12.024645,-16.7 29.591325,-36.6913 43.889215,-49.94699 10.6063,-9.83319 15.23858,-15.32953 22.3689,-26.54142 l 8.99254,-14.14011 13.4634,-8.10511 13.46341,-8.10511 17.20208,-1.90115 c 11.96588,-1.32246 22.39091,-3.64828 34.24854,-7.64079 34.58964,-11.6466 83.404,-20.04221 99.73492,-17.15359 3.37297,0.59664 6.84347,0.65642 7.71222,0.13289 0.86875,-0.52354 3.70232,-0.35465 6.29682,0.3753 2.5945,0.72995 5.66362,0.75688 6.82029,0.0598 1.15665,-0.69704 2.80098,-0.72336 3.65403,-0.0585 0.85307,0.66486 4.93088,1.38207 9.06182,1.59378 36.36506,1.86376 88.68086,16.99267 125.39543,36.26237 14.88053,7.81007 55.46525,34.50315 57.43897,37.77833 0.5259,0.87268 4.81121,4.98394 9.52293,9.13614 20.0189,17.64171 26.18535,24.20106 37.65816,40.05753 10.60073,10.99287 13.9922,18.08374 19.9404,23.5856 7.13572,5.27481 11.52438,1.70561 27.29168,-8.83317 3.97229,-2.54227 10.02145,-6.82788 13.44259,-9.52357 3.42113,-2.6957 12.63147,-7.9633 20.46742,-11.70579 47.64509,-26.588 88.94775,-44.15898 128.11598,-72.34154 13.11659,-13.16407 14.86626,-9.40211 12.62975,-20.45564 0.0274,-2.44168 -8.24324,-4.91276 -16.11965,-4.8162 -6.8927,0.0845 -7.9991,0.56647 -23.35411,10.17302 -23.10366,14.45435 -52.30552,36.09192 -71.26912,52.80793 -14.57102,12.84405 -39.82906,31.29739 -47.14426,34.44324 -11.84873,5.09547 -47.46073,3.51681 -57.52902,-2.55022 -17.0125,-10.25154 -20.37831,-12.45711 -20.61398,-13.508 -0.14761,-0.65824 4.93483,0.91773 11.29431,3.50217 22.07583,8.97144 42.69781,8.9625 63.87506,-0.0277 9.60397,-4.07709 24.03112,-14.61914 58.17372,-42.50802 41.04853,-33.5299 66.57577,-49.73847 81.27692,-51.60697 14.9945,-1.90578 27.72265,3.72296 34.82678,15.4014 4.733,7.78057 5.83806,14.15069 4.11477,23.71995 -3.56532,19.7978 -25.99049,34.75118 -98.60891,65.75367 -44.48644,18.99229 -57.6543,26.66132 -67.86669,39.5259 -8.06188,10.1556 -12.48791,18.17804 -15.03649,27.2546 -4.57909,16.308 -3.37053,39.26992 3.54253,67.30599 5.9587,24.16562 7.81054,37.73598 8.43722,61.82836 1.54195,59.28004 -10.82091,112.35533 -37.9821,163.06184 -15.32593,28.61159 -36.50506,56.11867 -63.00159,81.82541 -19.74208,19.15362 -18.08911,17.266 -27.17269,31.02995 -14.06357,21.3099 -28.71538,29.83202 -55.54654,32.30812 -10.88106,1.0041 -19.7117,3.0004 -31.71761,7.1701 -55.81423,19.3844 -117.73615,23.7072 -173.02292,12.0789 C 128.28074,980.54517 37.965222,799.07806 35.267614,694.85113 z M 191.50284,975.16068 c 0.92363,0.0104 1.34751,-0.53178 0.94195,-1.20476 -0.40556,-0.67299 -1.49309,-1.23209 -2.41672,-1.24246 -0.92364,-0.0104 -1.34752,0.53178 -0.94195,1.20477 0.40556,0.67299 1.49308,1.23209 2.41672,1.24245 z"
         style="fill:#505050" />
      <path
         sodipodi:nodetypes="csssssscsssssssssssssssssscccccccssssssssssssssssssssssscsccssssssssssssssssssscc"
         inkscape:connector-curvature="0"
         id="path3004"
         d="m 36.68708,694.65887 c 1.976016,-47.48668 9.462298,-79.3466 29.232449,-124.4066 4.44488,-10.13075 11.562047,-24.68983 15.815937,-32.35348 13.161341,-23.71106 37.398134,-53.27106 61.182014,-74.6196 6.13866,-5.51011 12.17731,-11.68145 13.41921,-13.71411 8.54224,-13.98128 11.39481,-18.04413 16.646,-23.70856 6.67605,-7.20144 18.18729,-13.21693 22.44739,-11.73045 1.38519,0.48333 3.69602,0.18278 5.13518,-0.66787 1.43919,-0.85062 6.67153,-1.66843 11.6275,-1.81724 10.09012,-0.30298 8.70544,0.0214 41.65664,-9.75855 56.11411,-16.65473 101.3655,-20.24577 152.81785,-12.12726 34.28766,5.41013 68.86339,17.06322 100.96404,34.02797 15.9232,8.41518 48.41047,29.9521 55.81746,37.00328 2.36046,2.24707 8.66583,8.20495 14.01193,13.23973 20.64867,19.44625 46.23489,51.94548 57.00016,72.40074 27.53869,52.32674 39.28892,90.75478 42.28879,138.3016 0.76982,12.20133 1.17592,22.69436 0.90243,23.31786 -0.79507,1.81271 -0.69098,22.77465 0.13014,26.20393 0.41103,1.71659 0.14324,5.96276 -0.5951,9.43592 -0.73831,3.47316 -2.17314,12.06961 -3.18849,19.10321 -2.51788,17.44211 -11.62878,49.61202 -18.12994,64.01552 -20.96964,46.45875 -41.25929,76.36589 -72.87491,107.41829 -21.12454,20.74821 -25.78874,25.99717 -32.37765,36.43691 -12.4419,19.71347 -28.14822,28.71123 -53.62035,30.71779 -10.38713,0.8183 -19.22486,2.7162 -30.54022,6.5587 -24.71611,8.3931 -39.92814,12.1178 -63.24367,15.4856 -70.0673,10.1207 -136.45933,-1.8594 -201.1251,-36.29193 C 147.30957,948.44328 30.997287,852.37788 36.68708,694.65887 z m 55.929638,183.68865 c -0.407218,-1.37749 -1.423085,-3.01707 -2.257548,-3.64347 -0.834415,-0.62643 -0.501239,0.5006 0.740382,2.50453 1.241646,2.00391 1.924324,2.51647 1.517105,1.13898 z m 19.517382,28.21494 c 4.17474,5.10026 8.03074,9.00784 8.56891,8.68353 1.235,-0.74425 1.74151,-0.049 -10.97747,-15.06839 -6.32724,-7.47162 -9.6079,-10.68057 -7.96851,-7.79436 1.53268,2.69831 6.20234,9.07898 10.37707,14.17922 z m 17.95498,20.60755 c 6.57465,6.48875 14.53498,13.93856 23.80833,22.2814 19.3698,17.42618 46.39926,33.6592 81.73473,49.08722 10.37277,4.52897 34.12441,11.27717 25.47014,7.23647 -9.37079,-4.3752 -12.22285,-5.5691 -19.59954,-8.20447 -32.65388,-11.66599 -80.97398,-44.2141 -112.07231,-75.49119 -2.42413,-2.43805 -4.93689,-4.11379 -5.58394,-3.72387 -1.55123,0.93482 -1.10984,1.55808 6.24259,8.81444 z m 149.80886,85.55639 c 4.88828,1.1441 8.5585,1.5337 8.15604,0.8659 -0.40246,-0.6679 -5.63819,-2.3602 -11.63493,-3.7607 -5.99674,-1.4004 -9.66696,-1.7901 -8.15604,-0.8658 1.51093,0.9242 6.74663,2.6165 11.63493,3.7606 z m 219.38421,-15.3756 c 8.04433,-1.11224 8.4248,-1.23779 7.63444,-2.51935 -0.90661,-1.4701 -12.43607,-0.74094 -17.66182,1.11697 -4.65019,1.65329 -4.68226,1.72058 -0.9783,2.05196 2.10623,0.18845 7.0588,-0.10386 11.00568,-0.64958 z M 661.84108,583.30209 c -0.34939,-4.37639 -1.353,-12.40339 -2.23023,-17.83777 -3.22175,-19.95857 -1.77232,-28.63359 6.63887,-39.73425 25.80392,-2.32687 191.32815,-80.60659 170.44298,-115.73634 -3.4838,-5.781 -4.40434,-6.39861 -12.13349,-8.1407 -12.21328,-2.75278 -17.99325,-0.74206 -39.95096,13.89811 -9.9434,6.6297 -23.25714,15.91653 -29.58609,20.6374 -10.45539,7.79887 -17.80393,13.7502 -52.6831,42.66628 -16.20501,13.43455 -29.95253,20.48504 -42.68502,21.89125 -5.59092,0.61747 -14.04931,0.28246 -18.79644,-0.7445 -4.74712,-1.02695 -9.40824,-1.91119 -10.35805,-1.96499 -2.68555,-0.15209 -11.7973,-3.19439 -11.00224,-3.67352 0.39013,-0.2351 4.26093,0.12259 8.60178,0.79486 4.34085,0.67228 11.88108,0.92275 16.75605,0.55662 25.19472,-1.89221 34.54142,-7.45038 93.38982,-55.53587 15.84688,-12.94862 25.94137,-20.11813 43.21762,-30.69486 22.35013,-13.68303 22.61772,-13.80665 31.55074,-14.57561 11.42415,-0.98342 19.94775,1.72582 27.5696,8.763 5.5157,5.09261 6.18129,6.20239 8.13559,13.56519 2.93798,11.06911 -0.0405,22.87916 -7.96929,31.59896 -11.22187,12.34145 -38.51171,26.86554 -99.25655,52.826 -36.73948,15.7013 -42.71301,18.93759 -52.3669,28.37086 -14.35398,14.02595 -22.38297,31.89447 -25.1389,55.94672 -0.89596,7.81938 -1.33926,7.22504 -2.14576,-2.87686 z"
         style="fill:#404040" />
      <path
         sodipodi:nodetypes="csssssssssssssssssssssssssssssccsssssssscsssssssssssccccccscccsssssssssssssscssssssccsscssssssssssssssssccsssss"
         inkscape:connector-curvature="0"
         id="path3002"
         d="m 37.378446,691.0771 c 1.016692,-25.24261 4.739634,-51.52015 9.853712,-69.54997 8.915934,-31.4334 30.700572,-79.96628 45.145658,-100.5777 6.300109,-8.98949 21.993684,-28.48518 27.018374,-33.56414 1.99538,-2.01695 7.12036,-7.21339 11.38881,-11.54768 4.26845,-4.33427 12.39296,-12.02646 18.05446,-17.09375 5.66149,-5.0673 10.997,-11.01649 11.85668,-13.22042 0.85969,-2.20394 2.45224,-4.54336 3.53901,-5.19875 1.64754,-0.99355 7.13216,-7.38728 13.82879,-16.12097 4.4873,-5.85231 18.01369,-10.18901 37.04419,-11.87676 6.09592,-0.54063 18.97225,-3.4615 28.61405,-6.49082 44.13273,-13.8659 70.30618,-18.81014 104.07669,-19.66039 49.30302,-1.24131 99.42877,9.33618 144.82013,30.5598 17.55725,8.20922 60.86078,34.96202 67.22251,41.52985 1.57928,1.63045 6.45461,6.05922 10.8341,9.84174 9.78025,8.44709 19.64571,18.71679 32.22672,33.54721 12.16871,14.34444 39.7162,59.35735 47.5374,77.67666 19.84353,46.47884 27.74071,88.17054 25.85016,136.47104 -0.35897,9.17113 -0.32821,18.94913 0.0684,21.72889 0.39659,2.77977 0.002,6.42666 -0.87748,8.1042 -0.8792,1.67754 -1.6653,6.26695 -1.74687,10.19872 -0.20092,9.68323 -11.963,56.34627 -16.89834,67.03989 -2.1883,4.74146 -5.16932,11.62727 -6.62448,15.30181 -4.61178,11.64546 -16.82085,33.38369 -26.35264,46.92084 -16.82972,23.90173 -26.37855,34.79361 -53.58996,61.12751 -5.19474,5.02724 -13.25596,14.72715 -17.91378,21.55536 -15.53919,22.77991 -28.78017,30.81543 -54.3362,32.97493 -10.66637,0.9013 -19.91597,2.9505 -33.34327,7.387 -24.75033,8.1779 -35.53546,10.9037 -55.50411,14.0279 -43.56789,6.8164 -86.38755,5.4624 -124.83414,-3.9476 -29.12779,-7.1292 -48.43022,-14.7209 -90.5888,-35.62884 C 62.026558,888.83332 54.989492,815.81524 37.378446,691.0771 z m 69.455734,210.00893 c 4.40786,5.60019 9.83653,12.08639 12.06373,14.41378 2.2272,2.32738 5.90264,6.49247 8.16764,9.25576 4.34934,5.30616 34.52573,32.68167 38.51233,34.93775 1.28722,0.72845 7.3201,5.07886 13.40638,9.66759 6.0863,4.58872 12.23381,8.76525 13.66115,9.28117 1.42736,0.51592 7.92036,3.73366 14.42893,7.15051 19.93177,10.46378 38.20102,17.85751 59.11474,23.92441 18.71972,5.4304 32.17345,8.0922 32.58158,6.4462 0.0975,-0.3934 -8.78945,-3.1825 -19.74884,-6.198 -10.9594,-3.0155 -21.67328,-6.3064 -23.80861,-7.3131 -2.13533,-1.0066 -8.44141,-3.58642 -14.01352,-5.73283 -31.44761,-12.11385 -66.89754,-34.76169 -98.74887,-63.08754 -15.26362,-13.57415 -37.7486,-40.14154 -51.885092,-61.3054 -9.332952,-13.97245 -9.951452,-14.72604 -8.888682,-10.83001 1.306146,4.78822 15.866093,27.58541 25.157134,39.38971 z M 79.181044,855.20137 c 0.105382,-3.35692 -3.60035,-9.50618 -5.16169,-8.56527 -0.672985,0.40556 0.195068,3.07246 1.929006,5.92644 2.308784,3.80018 3.174055,4.50646 3.232684,2.63883 z M 68.105858,832.16471 c -0.178838,-1.09631 -0.858295,-2.12548 -1.509865,-2.28708 -0.651619,-0.16157 -0.505298,0.73542 0.325152,1.99328 0.91775,1.39005 1.382395,1.50527 1.184762,0.29377 z M 308.13385,1018.8784 c 4.94267,0.078 2.00249,-2.3126 -3.1195,-2.5371 -3.16669,-0.1387 -3.51462,0.053 -2.09789,1.1574 0.93412,0.728 3.28194,1.3489 5.21737,1.3796 z m 14.78036,1.3544 c 1.51435,0.2294 2.58746,0.1419 2.38468,-0.1946 -0.20278,-0.3365 -1.60771,-0.7996 -3.12207,-1.029 -1.51436,-0.2295 -2.58747,-0.1419 -2.38468,0.1946 0.20278,0.3365 1.60771,0.7995 3.12207,1.029 z m 20.65725,2.3844 c 9.54925,-0.2896 6.5835,-2.5084 -3.86696,-2.893 -13.26426,-0.4882 -14.39992,-0.2836 -8.24057,1.4848 3.07628,0.8832 8.52467,1.5169 12.10753,1.4082 z m 154.1267,-24.61027 c 13.96048,-2.14226 17.62306,-3.0882 16.86001,-4.3544 -0.88325,-1.46566 -23.23635,0.37773 -28.75302,2.37116 -4.16775,1.50602 -4.36646,1.79068 -1.86763,2.67552 1.53802,0.54461 7.73031,0.23308 13.76064,-0.69228 z M 661.78811,579.16406 c -0.11947,-3.13886 -0.84912,-11.91776 -1.62146,-19.50864 -1.79427,-17.63521 1.75105,-28.43041 13.10908,-39.91589 11.31148,-11.43841 54.20376,-31.76695 96.81735,-45.886 7.26468,-2.40699 17.34242,-6.17196 22.395,-8.3666 13.13268,-5.70433 36.44183,-19.67279 38.21391,-22.90041 1.26199,-2.29858 0.72803,-2.3 -3.56394,-0.009 -2.77658,1.48179 -6.12244,3.40285 -7.43525,4.26901 -9.05973,-1.43156 17.40389,-9.76141 20.44693,-18.41406 1.80612,-5.17218 0.62106,-11.66988 -3.32156,-18.21224 -4.90909,-8.14612 -10.29314,-10.49899 -21.73276,-9.49734 l -8.79297,0.76991 -23.6008,15.29713 c -23.86982,15.4715 -46.33511,32.54135 -71.20391,54.10305 -7.5778,6.57008 -19.56069,15.49189 -26.9886,20.09421 -13.0647,8.09491 -13.62158,8.30068 -25.23813,9.32497 -6.53325,0.57609 -14.51668,0.32811 -17.74095,-0.55107 -6.65836,-1.81557 -5.67708,-3.21674 2.3578,-3.3667 7.62904,-0.1424 17.73566,-2.59153 28.29102,-6.85575 10.01102,-4.04433 15.32385,-7.89801 54.97834,-39.87884 55.31172,-44.60816 74.07018,-55.5702 93.12469,-54.42005 10.72483,0.64737 17.15772,4.39492 23.71429,13.81504 5.03685,7.23667 5.44119,8.50578 5.41892,17.00857 -0.0184,7.00841 -1.0954,11.01848 -4.53959,16.90195 -4.26935,7.29305 -5.40101,8.28 -20.75837,18.10394 -19.28514,12.33649 -36.36017,20.70981 -79.94756,39.205 -46.26525,19.63146 -54.69862,25.34376 -68.18457,46.18438 -4.76656,7.36606 -6.93973,13.08107 -9.51823,25.03107 -3.45583,16.01601 -4.30804,17.41396 -4.67872,7.67485 z m -33.65039,-83.13605 c 0.67299,-0.40556 1.89573,-0.39183 2.71722,0.0305 0.8215,0.42234 0.94299,1.09971 0.27001,1.50527 -0.67299,0.40557 -1.89574,0.39184 -2.71723,-0.0305 -0.82149,-0.42233 -0.94298,-1.0997 -0.27,-1.50527 z"
         style="fill:#3e3e3e" />
      <path
         sodipodi:nodetypes="csssssssssssssssssssssssscssssssssssccccsssssssscccsssscccsscsssssscsccsssssssssssssssssssccc"
         inkscape:connector-curvature="0"
         id="path3000"
         d="m 45.023948,777.96158 c -7.821291,-36.04192 -8.454723,-57.36175 -7.433342,-83.74726 0.471126,-12.17099 1.558092,-27.28623 2.415467,-33.58945 4.988961,-36.67728 17.932547,-75.56998 37.969005,-114.08862 11.775499,-22.63756 18.386327,-31.65297 47.337712,-64.55608 3.26689,-3.7128 12.02418,-11.94577 19.46066,-18.29548 10.10999,-8.63253 15.60655,-14.52356 21.78874,-23.35236 13.47,-19.23659 23.56413,-25.08137 47.26293,-27.36655 12.35692,-1.19152 18.81555,-2.78829 44.93836,-11.1101 16.25761,-5.1791 27.81858,-7.88206 53.08342,-12.41094 21.15688,-3.79248 64.1478,-3.82913 88.74977,-0.0756 27.45286,4.18845 59.55287,13.36452 84.26576,24.0881 25.93798,11.25521 58.91134,31.7106 79.46878,49.29938 12.3583,10.57366 13.16673,11.37504 29.82432,29.56441 28.84281,31.49507 51.61676,71.46771 68.26648,119.82068 9.61855,27.93349 15.08529,71.20495 13.33522,105.55355 -0.52523,10.30878 -0.74503,19.0916 -0.48844,19.51739 0.25659,0.42578 -0.0893,3.89984 -0.76856,7.72011 -0.6793,3.82028 -1.72343,10.49497 -2.32029,14.83262 -2.16494,15.73372 -14.35264,61.89787 -17.06051,64.62127 -1.50395,1.51257 -3.76366,6.44902 -5.02156,10.96988 -2.75558,9.90357 -8.96478,21.77976 -21.65766,41.42416 -15.22122,23.55746 -25.79576,36.4602 -49.02115,59.81422 -15.87485,15.96275 -23.91979,25.16018 -29.55961,33.79421 -7.06434,10.81483 -8.71868,12.50644 -18.73107,19.15331 -8.98168,5.96261 -12.7281,7.68368 -20.56691,9.44515 -5.27152,1.18487 -10.8557,1.69627 -12.40929,1.13637 -2.48039,-0.89397 -2.45249,-1.07519 0.22886,-1.48667 12.77992,-1.96123 20.67838,-4.63198 16.55828,-5.59893 -4.7992,-1.12635 -24.47819,1.08027 -29.71379,3.3318 -3.22905,1.38863 -5.71215,2.78837 -5.518,3.11053 0.19414,0.32216 3.60328,0.36662 7.57586,0.0988 9.23253,-0.62242 9.08706,0.61326 -0.21071,1.78986 -3.90037,0.4936 -14.40458,3.4952 -23.3427,6.6703 -54.58691,19.3911 -117.46667,23.4269 -173.64815,11.1453 -24.1772,-5.2852 -47.61814,-13.5436 -72.50449,-25.5439 -11.41628,-5.50496 -24.94935,-11.80271 -30.07349,-13.99501 C 84.889336,891.36311 81.443448,884.14173 45.023948,777.96158 z m 63.821732,126.9162 c 22.92557,26.54693 50.28261,52.19516 78.4345,70.44967 14.77995,9.42901 50.39284,26.35905 64.0963,30.47085 2.03258,0.6098 9.51608,2.9811 16.63,5.2693 7.11392,2.2883 20.04776,5.156 28.74185,6.3727 8.6941,1.2167 21.54331,3.0115 28.55381,3.9885 13.49243,1.8803 22.64033,2.3567 27.51183,1.4327 5.69997,-1.0811 -6.21807,-3.3101 -21.31374,-3.9863 -7.91392,-0.3544 -17.75717,-1.3179 -21.87394,-2.1411 -12.71694,-2.5429 -43.95375,-10.84 -51.54203,-13.6905 -20.55259,-7.72067 -25.96548,-9.96811 -35.90147,-14.90639 C 199.79012,1017.0922 62.721839,824.91075 72.575084,847.21912 c 5.117739,10.89368 30.615346,51.42674 36.270596,57.65866 z M 68.008332,834.2722 c 0.79774,0.009 0.06231,-3.06888 -1.634284,-6.8396 -4.881738,-10.84984 -7.26522,-13.55987 -4.530166,-5.15082 3.128637,9.61915 4.337207,11.9699 6.16445,11.99042 z M 582.65806,600.16251 C 575.36808,584.88829 556.22402,554.6555 548.52192,546.25384 -526.79809,217.38388 935.13394,1355.401 582.65806,600.16251 z M 366.24718,1022.4747 c 2.85913,-1.723 -0.5217,-2.542 -5.69913,-1.3806 l -4.77811,1.0717 4.35259,0.6884 c 2.39392,0.3786 5.15001,0.2079 6.12465,-0.3795 z m 11.84197,-0.2292 c 4.09256,-0.7787 1.9713,-2.2256 -2.89887,-1.9772 -2.56485,0.1308 -3.00305,0.4522 -1.90019,1.3938 0.78837,0.6731 2.94795,0.9357 4.79906,0.5834 z M 660.88961,566.92055 c -1.7813,-22.95023 0.64165,-31.87679 12.48083,-45.98139 3.53746,-4.21437 7.49898,-6.86065 20.81175,-13.90224 43.2962,-20.27206 160.57015,-74.07508 142.01128,-99.26903 -4.86176,-5.90538 -12.09535,-8.46027 -21.50784,-7.59651 -7.04899,0.64687 -8.05151,1.17072 -33.26924,17.38434 -14.30067,9.19455 -29.77918,19.78969 -34.39668,23.54477 -4.6175,3.75507 -11.95927,9.63231 -16.31505,13.06051 -4.35578,3.42822 -14.08054,11.57878 -21.61058,18.11234 -7.53004,6.53358 -18.91292,15.10074 -25.29531,19.03817 -10.59664,6.5373 -12.5171,7.25481 -22.11574,8.26314 -10.83592,1.13831 -22.56917,0.50143 -23.64478,-1.28343 -0.33611,-0.55774 3.94444,-1.49265 9.51232,-2.07754 5.5679,-0.58492 15.15307,-2.88708 21.3004,-5.11593 10.64256,-3.8587 12.1607,-4.81951 31.752,-20.09532 11.31622,-8.82356 27.64333,-21.75108 36.28239,-28.7278 35.6955,-28.82692 60.30352,-44.46301 72.94898,-46.35228 22.67148,-3.38717 39.79957,10.16712 39.55898,31.30494 -0.0692,6.07877 -1.30225,9.97681 -5.0812,16.06311 -4.56673,7.35505 -6.20021,8.81643 -19.26338,17.23375 -17.76094,11.44435 -37.80437,21.26392 -79.53706,38.96638 -35.57822,15.09181 -49.10433,22.47044 -58.12921,31.7101 -11.74498,12.02447 -19.93558,28.20494 -22.26145,43.97738 -0.80406,5.45253 -1.83005,9.11109 -2.27999,8.13009 -0.4499,-0.98099 -1.32811,-8.35535 -1.95154,-16.38747 z"
         style="fill:#343434" />
      <path
         sodipodi:nodetypes="ssssssssssssssssssssssscsssssssssscsssscssssssssssscssssssscccssscsssssc"
         inkscape:connector-curvature="0"
         id="path2998"
         d="M 65.950778,820.64083 C 54.164379,791.88235 46.850131,766.25549 44.2603,744.64405 c -0.908988,-7.58521 -1.858153,-14.13222 -2.109247,-14.54888 -0.640521,-1.06288 -0.881188,-44.78216 -0.298364,-54.20091 1.363377,-22.03302 6.789599,-50.97627 12.028852,-64.16137 1.930671,-4.85874 5.911468,-15.69039 8.846219,-24.07033 5.998647,-17.12874 8.679058,-23.04806 17.166703,-37.91038 15.561573,-27.24914 36.778627,-54.98927 54.598027,-71.38389 17.68859,-16.2743 22.78052,-21.75761 32.21311,-34.68917 15.33044,-21.01717 24.44421,-26.17105 50.36389,-28.48106 5.34443,-0.4763 15.84479,-2.98049 23.33414,-5.56484 7.48934,-2.58437 20.54354,-6.69392 29.0093,-9.13236 72.47771,-20.8761 147.42343,-15.45497 218.00294,15.76905 19.16716,8.47947 59.76013,33.63139 74.5925,46.21849 30.9597,26.27313 56.98701,59.19001 75.97664,96.08809 29.88316,58.06495 39.60943,105.06412 35.49356,171.51164 -2.85221,46.04654 -20.4406,100.56014 -45.4311,140.80954 -3.67312,5.91588 -10.66266,15.97721 -15.53232,22.35847 -4.86965,6.38128 -10.66496,14.47192 -12.87849,17.97918 -2.2135,3.50727 -5.61258,7.33384 -7.55348,8.50348 -1.9409,1.16965 -4.82928,3.57988 -6.41862,5.35607 -1.58932,1.77619 -5.77633,5.91251 -9.30446,9.19181 -14.58743,13.55864 -18.26779,17.74304 -31.17883,35.44888 -5.67279,7.77951 -8.45459,10.35902 -16.19432,15.01667 -8.57912,5.16337 -10.56332,5.73639 -24.21623,6.99946 -15.83372,1.46483 -27.27537,4.30075 -38.91941,9.64651 -21.23591,9.7495 -93.99093,19.8765 -119.37867,16.6168 -2.90907,-0.3735 -11.97488,-1.1862 -20.14624,-1.8061 -16.21937,-1.2304 -68.27573,-13.7489 -75.35873,-18.12229 -2.4279,-1.49909 -7.56468,-3.77696 -11.41507,-5.06194 -3.85039,-1.28498 -7.42223,-3.03579 -7.93742,-3.89069 -0.51518,-0.8549 -1.89034,-1.57992 -3.05589,-1.61115 -2.14824,-0.0575 -12.06099,-4.09886 -12.71469,-5.1836 -0.19578,-0.32488 -4.78889,-2.83361 -10.20692,-5.57495 -5.41802,-2.74136 -10.8467,-6.45619 -12.06373,-8.25518 -1.21707,-1.79899 -3.96655,-3.51666 -6.11006,-3.817 -4.37993,-0.61371 -19.88046,-11.93978 -38.12142,-27.85491 C 124.2903,914.9793 109.60906,897.43351 89.69149,865.54727 76.394731,844.26036 72.997028,837.83351 65.950778,820.64083 z M 663.74263,565.85521 c 0.31479,-2.52225 0.19005,-5.2203 -0.27721,-5.99567 -1.32567,-2.19981 3.48255,-22.15036 6.41793,-26.62966 1.44862,-2.21054 3.67841,-5.81988 4.95509,-8.02077 2.69031,-4.63787 29.2623,-21.14273 45.10351,-28.01548 23.72738,-10.29417 40.22139,-17.00351 44.2101,-17.98352 2.39922,-0.58947 6.70452,-2.16397 9.56734,-3.49887 2.86282,-1.33489 10.77771,-4.95123 17.58864,-8.03632 6.81092,-3.08509 18.79681,-9.41269 26.6353,-14.06136 12.19272,-7.23094 14.93593,-9.40599 18.98701,-15.0543 5.55277,-7.74209 7.08,-15.10277 4.79012,-23.08658 -2.01521,-7.0261 -6.04243,-11.56022 -13.86771,-15.6132 l -5.95407,-3.08381 7.05627,2.12086 c 9.93097,2.9849 16.60467,9.9512 18.78,19.6034 1.8705,8.29957 0.0146,18.26151 -4.79774,25.75353 -2.68241,4.17605 -6.6733,7.31287 -20.59903,16.19075 -20.40059,13.0057 -36.1134,20.69279 -80.08269,39.1784 -38.8265,16.32349 -49.9693,23.04872 -60.51238,36.52211 -6.97596,8.91492 -12.90174,19.86001 -15.99779,29.54846 -2.15238,6.73544 -2.82998,6.79024 -2.00272,0.16198 z m -10.33464,-68.37244 c 0.67669,-0.40947 3.50082,-1.32799 6.27613,-2.0407 15.98434,-4.10478 31.17978,-14.37302 79.99982,-54.05945 27.71666,-22.53121 54.40739,-40.09574 65.32907,-42.99147 4.50801,-1.19525 8.85765,-1.83321 9.66587,-1.41769 0.86638,0.44541 -0.27669,1.04672 -2.78514,1.46511 -2.61941,0.4369 -11.96681,5.4644 -24.32094,13.08101 -28.57439,17.6168 -51.46654,34.69486 -78.82077,58.80206 -9.33696,8.22863 -19.59116,16.03548 -26.44158,20.13077 -10.10148,6.03892 -12.11116,6.74234 -20.66124,7.23239 -5.20923,0.29856 -8.91777,0.20765 -8.24122,-0.20203 z"
         style="fill:#101010" />
      <path
         transform="matrix(2.2239999,0,0,2.2319999,-1347.1071,638.55411)"
         d="m 890.95456,29.258709 a 126.26907,126.26907 0 1 1 -252.53815,0 126.26907,126.26907 0 1 1 252.53815,0 z"
         sodipodi:ry="126.26907"
         sodipodi:rx="126.26907"
         sodipodi:cy="29.258709"
         sodipodi:cx="764.68549"
         id="path4760"
         style="fill:#351919;fill-opacity:1;stroke:none"
         sodipodi:type="arc" />
      <path
         id="path3014"
         transform="translate(0,352.36218)"
         d="M 355.40625 64 C 304.43397 63.693829 252.81275 76.933073 206.03125 105.125 C 69.939618 187.13788 26.457018 364.52803 108.90625 501.34375 C 191.35548 638.15947 368.50212 682.60663 504.59375 600.59375 C 640.68538 518.58087 684.19923 341.15947 601.75 204.34375 C 547.64269 114.55843 452.71696 64.584509 355.40625 64 z M 328.65625 121 C 331.25287 120.96374 333.82219 121.21453 336.34375 121.78125 C 340.37816 122.68813 344.06085 124.31559 347.40625 126.65625 C 354.3879 131.55251 358.51679 138.3084 359.8125 146.90625 L 360.3125 150.21875 L 308.46875 158.03125 C 310.01476 162.89685 313.01486 166.66563 317.46875 169.375 C 321.9226 172.0844 326.88387 173.04624 332.375 172.21875 C 336.52941 171.59272 340.17424 170.22355 343.3125 168.125 C 346.45067 166.02649 348.7708 163.39735 350.25 160.21875 L 360.375 164.125 C 355.74252 173.83791 346.61444 179.7031 333.03125 181.75 C 328.80452 182.38694 324.69068 182.25057 320.65625 181.34375 C 316.62178 180.43694 312.93365 178.83585 309.59375 176.53125 C 302.61204 171.63506 298.4777 164.90555 297.1875 156.34375 C 295.89185 147.74589 297.83374 140.08004 303.0625 133.34375 C 305.56949 130.12118 308.63068 127.49304 312.21875 125.4375 C 315.80679 123.38208 319.71078 122.012 323.9375 121.375 C 325.5225 121.13617 327.09828 121.02175 328.65625 121 z M 328.78125 130.5625 C 327.65921 130.55608 326.53101 130.63831 325.375 130.8125 C 320.78702 131.50393 316.86266 133.50398 313.625 136.78125 C 310.38731 140.05862 308.407 143.9581 307.6875 148.5 L 347.46875 142.5 C 345.52036 138.39708 342.48669 135.25554 338.40625 133.0625 C 335.34586 131.4178 332.14737 130.58175 328.78125 130.5625 z M 488 135.65625 C 493.92566 135.60059 499.72056 137.55728 505.40625 141.53125 C 511.93397 146.09396 516.04416 151.67253 517.6875 158.28125 C 519.33067 164.89004 518.13309 171.09582 514.09375 176.875 C 511.91698 179.9892 509.19853 182.2857 505.96875 183.75 C 502.73882 185.21432 499.53323 185.65119 496.3125 185.09375 C 498.5888 187.57631 499.85103 190.87761 500.15625 194.96875 C 500.57882 200.16719 499.03704 205.28319 495.5 210.34375 C 491.23029 216.45232 485.98358 219.99034 479.75 220.9375 C 473.51632 221.88461 467.15407 220.07296 460.65625 215.53125 L 446.6875 205.78125 L 452.46875 197.5 L 466.4375 207.28125 C 469.79119 209.62536 473.37193 210.45731 477.1875 209.78125 C 481.00298 209.10515 484.02079 207.14019 486.28125 203.90625 C 488.62531 200.55251 489.48532 196.98791 488.84375 193.21875 C 488.20206 189.44959 486.16226 186.37567 482.71875 183.96875 L 468.75 174.1875 L 474.53125 165.9375 L 483.8125 172.4375 C 487.76506 175.20023 491.6825 176.40341 495.53125 176.0625 C 499.37987 175.72162 502.48894 173.85114 504.875 170.4375 C 507.21904 167.08379 507.89055 163.47776 506.90625 159.625 C 505.92179 155.77231 503.51896 152.48122 499.65625 149.78125 C 495.76345 147.06044 491.83133 145.91322 487.875 146.3125 C 483.91855 146.71188 480.75032 148.58381 478.40625 151.9375 L 442.71875 203 L 433.53125 196.5625 L 469.21875 145.5 C 473.2372 139.75079 478.65727 136.53413 485.46875 135.8125 C 486.32017 135.72231 487.15348 135.6642 488 135.65625 z M 207.25 141.6875 L 234.03125 184.3125 L 238.5625 181.46875 C 243.20322 178.55428 246.20879 174.479 247.5625 169.25 C 248.91619 164.0211 248.20838 159.23735 245.46875 154.875 L 242.75 150.5 L 251.78125 144.8125 L 254.53125 149.1875 C 257.40688 153.76642 258.78135 158.81954 258.625 164.375 C 258.46861 169.93057 256.89273 174.31833 253.90625 177.53125 C 258.72124 176.40553 263.48972 176.93772 268.25 179.125 C 273.01022 181.31236 276.90637 184.82993 279.9375 189.65625 L 283.0625 194.625 L 274.03125 200.3125 L 270.90625 195.34375 C 268.03057 190.76493 263.92119 187.89862 258.625 186.78125 C 253.32877 185.66396 248.35884 186.57792 243.65625 189.53125 L 239.09375 192.40625 L 252.53125 213.78125 L 243.46875 219.46875 L 198.1875 147.375 L 207.25 141.6875 z M 184 211.4375 C 190.03752 211.4856 195.72688 213.42536 201.03125 217.21875 L 224.96875 234.3125 L 218.75 243.03125 L 194.8125 225.90625 C 190.11732 222.54853 184.89016 221.32906 179.15625 222.28125 C 173.42235 223.23357 168.88905 226.05489 165.53125 230.75 C 162.17349 235.44523 160.95402 240.67239 161.90625 246.40625 C 162.85853 252.1402 165.67984 256.6735 170.375 260.03125 C 175.07019 263.38906 180.29734 264.60853 186.03125 263.65625 C 191.76516 262.70402 196.29845 259.8827 199.65625 255.1875 C 201.71766 252.30505 202.96678 249.09726 203.40625 245.59375 C 203.84569 242.09033 203.45537 238.65834 202.1875 235.28125 L 213.6875 243.5 C 213.21667 249.81071 211.13529 255.54815 207.4375 260.71875 C 204.95102 264.19558 201.96042 267.08003 198.5 269.34375 C 195.03956 271.60751 191.32205 273.13563 187.3125 273.90625 C 178.96634 275.52803 171.26 273.80794 164.1875 268.75 C 157.11505 263.6921 152.97405 256.91238 151.78125 248.46875 C 151.24424 244.44664 151.47634 240.44394 152.5 236.4375 C 153.52373 232.43116 155.29482 228.69562 157.78125 225.21875 C 160.26774 221.74201 163.22709 218.85757 166.6875 216.59375 C 170.14795 214.33008 173.86393 212.82321 177.84375 212.03125 C 179.93772 211.63114 181.98749 211.42147 184 211.4375 z M 535.5625 228.09375 C 539.02412 227.99901 542.49943 228.54799 546.03125 229.75 C 549.86262 231.08657 553.35592 233.12167 556.46875 235.84375 C 559.58146 238.56585 562.11381 241.80551 564.09375 245.59375 C 566.07355 249.38199 567.29216 253.32779 567.75 257.4375 C 568.20769 261.54718 567.90248 265.56003 566.8125 269.46875 C 564.45937 277.66506 559.42468 283.78502 551.71875 287.8125 C 544.0127 291.83989 536.13403 292.48308 528.09375 289.71875 C 524.22992 288.39907 520.73775 286.3783 517.625 283.65625 C 514.51221 280.93412 511.97986 277.66321 510 273.875 C 508.02011 270.08673 506.80151 266.14092 506.34375 262.03125 C 505.88597 257.92154 506.2213 253.89436 507.34375 249.96875 C 509.66442 241.78932 514.66898 235.68369 522.375 231.65625 C 526.7096 229.39083 531.11185 228.21556 535.5625 228.09375 z M 536.15625 238.71875 C 533.14242 238.82655 530.19009 239.62106 527.3125 241.125 C 522.19673 243.79868 518.77004 247.92248 517.03125 253.46875 C 515.29241 259.015 515.7638 264.35298 518.4375 269.46875 C 521.11115 274.58446 525.23495 278.01115 530.78125 279.75 C 536.32747 281.48878 541.66546 281.01739 546.78125 278.34375 C 551.89694 275.67004 555.32362 271.54624 557.0625 266 C 558.80125 260.45372 558.32986 255.11573 555.65625 250 C 552.98252 244.88425 548.85871 241.45757 543.3125 239.71875 C 540.88599 238.95802 538.50034 238.6349 536.15625 238.71875 z M 123.8125 296 L 133.15625 297.8125 L 131.65625 305.65625 C 130.62485 311.03837 131.64434 315.99906 134.71875 320.53125 C 137.79324 325.0635 142.0242 327.84358 147.40625 328.875 C 152.82424 329.91334 157.81154 328.88697 162.34375 325.8125 C 166.87598 322.73807 169.65606 318.50711 170.6875 313.125 L 172.1875 305.28125 L 181.5625 307.0625 L 180.03125 314.9375 C 178.24279 323.29919 174.10729 329.82182 167.625 334.53125 C 160.97857 339.32084 153.58704 340.9428 145.40625 339.375 C 137.22552 337.80722 130.90944 333.57062 126.46875 326.65625 C 122.09303 319.79156 120.686 312.19933 122.28125 303.875 L 123.8125 296 z M 602.71875 317.71875 L 603.5625 328.375 L 587.34375 329.6875 L 588.6875 346.65625 L 579.1875 347.4375 L 577.84375 330.4375 L 545.0625 333.0625 C 543.13236 333.21673 541.56087 334.14176 540.375 335.8125 C 539.1891 337.4832 538.71416 339.50268 538.90625 341.90625 L 539.59375 350.59375 L 530.09375 351.34375 L 529.3125 341.53125 C 528.8905 336.25071 530.05324 331.81857 532.8125 328.28125 C 535.57175 324.74391 539.30214 322.81293 544 322.4375 L 602.71875 317.71875 z M 174 366.875 L 176.625 377.25 L 141.0625 386.3125 C 137.41622 387.2421 134.59947 389.3149 132.65625 392.5625 C 130.71314 395.81015 130.22673 399.25994 131.15625 402.90625 C 132.08588 406.55259 134.17223 409.3426 137.4375 411.28125 C 140.70287 413.21991 144.16622 413.74208 147.8125 412.8125 L 183.375 403.71875 L 186.03125 414.09375 L 150.4375 423.15625 C 144.02992 424.78976 138.11275 423.90357 132.65625 420.46875 C 127.19986 417.03393 123.61203 411.97209 121.90625 405.28125 C 120.21865 398.66124 120.96582 392.52513 124.125 386.875 C 127.2843 381.22493 132.03408 377.56204 138.40625 375.9375 L 174 366.875 z M 518.75 423.0625 C 519.82105 423.05417 520.82351 423.34212 521.78125 423.875 C 523.76058 424.97627 525.01805 426.54172 525.53125 428.625 L 540.21875 476.28125 C 541.6383 481.54444 544.26276 485.21217 548.09375 487.34375 C 551.89276 489.45742 555.88873 489.93954 560.0625 488.75 C 564.23619 487.56031 567.3862 485.04897 569.5 481.25 C 571.59593 477.48282 572.05568 473.50214 570.875 469.3125 C 569.69421 465.12275 567.20524 461.9887 563.40625 459.875 C 559.28792 457.58358 554.87248 457.24852 550.1875 458.90625 L 546.90625 448.625 C 554.33507 445.56739 561.62872 446.04812 568.84375 450.0625 C 575.26056 453.63274 579.39101 458.86591 581.1875 465.78125 C 582.98387 472.69649 582.02482 479.48392 578.3125 486.15625 C 574.60006 492.82844 569.3232 497.22427 562.5 499.34375 C 555.67672 501.46306 549.07309 500.7577 542.65625 497.1875 C 539.71916 495.55326 537.10223 493.27258 534.84375 490.34375 C 532.58524 487.41477 531.0806 484.44632 530.3125 481.46875 L 517.09375 439.375 L 498.90625 472.09375 L 490.09375 467.1875 L 512.59375 426.71875 C 513.53517 425.02673 514.92754 423.90787 516.75 423.375 C 517.43343 423.17517 518.10737 423.0675 518.75 423.0625 z M 196.53125 435.59375 L 203.625 443.59375 L 181.5625 463.09375 C 177.23729 466.91626 174.88931 471.72985 174.53125 477.53125 C 174.17332 483.33266 175.92757 488.39348 179.75 492.71875 C 183.57255 497.04401 188.35489 499.39199 194.15625 499.75 C 199.9577 500.10798 205.04976 498.35373 209.375 494.53125 C 213.7003 490.70875 216.01703 485.89516 216.375 480.09375 C 216.73302 474.29235 215.01002 469.23154 211.1875 464.90625 C 208.84081 462.25089 206.00319 460.30778 202.6875 459.09375 C 199.37188 457.87977 195.91917 457.52184 192.34375 458 L 202.9375 448.65625 C 208.98185 450.53044 214.1342 453.83051 218.34375 458.59375 C 221.17435 461.79666 223.28879 465.33878 224.71875 469.21875 C 226.14874 473.09875 226.80452 477.07601 226.65625 481.15625 C 226.36486 489.65352 222.9528 496.77331 216.4375 502.53125 C 209.92225 508.28916 202.4023 510.82505 193.90625 510.09375 C 189.86616 509.71501 186.01854 508.58364 182.34375 506.6875 C 178.66907 504.79132 175.42439 502.23412 172.59375 499.03125 C 169.76324 495.82835 167.61755 492.28623 166.1875 488.40625 C 164.7576 484.52626 164.1292 480.55606 164.25 476.5 C 164.56886 467.97855 167.98479 460.82045 174.5 455.0625 L 196.53125 435.59375 z M 472.9375 489.96875 L 519.09375 561.53125 L 502.78125 572.0625 C 497.65435 575.36975 492.32141 577.60946 486.75 578.8125 C 481.17857 580.01536 475.69919 580.11687 470.34375 579.09375 C 464.83681 578.03776 459.76135 575.85534 455.09375 572.5625 C 450.42619 569.26949 446.40948 565.03195 443.0625 559.84375 C 439.71559 554.6554 437.53458 549.28213 436.46875 543.6875 C 435.403 538.09276 435.50412 532.54618 436.8125 527.09375 C 438.08827 521.79275 440.44094 516.87706 443.84375 512.3125 C 447.24662 507.74789 451.49814 503.80732 456.625 500.5 L 459.4375 498.6875 L 464.90625 507.15625 L 462.09375 508.96875 C 458.90098 511.02838 456.13083 513.71287 453.75 517.03125 C 451.36922 520.34957 449.6024 523.95885 448.5 527.84375 C 445.91991 536.98594 447.25186 545.61447 452.5 553.75 C 457.7878 561.9468 465.06228 566.78288 474.3125 568.25 C 478.29542 568.89775 482.30828 568.82069 486.34375 568 C 490.37921 567.17915 494.0276 565.71274 497.3125 563.59375 L 504.1875 559.15625 L 463.5 496.0625 L 472.9375 489.96875 z M 301.25 515.21875 L 311.53125 519.8125 L 288.40625 571.65625 C 284.99854 579.29689 279.40141 584.47264 271.65625 587.21875 C 263.97431 589.91288 256.2721 589.54607 248.53125 586.09375 C 240.79054 582.6413 235.34725 577.17183 232.21875 569.65625 C 229.08682 562.05896 229.2486 554.42191 232.65625 546.78125 C 236.04919 539.17391 241.5987 533.99604 249.34375 531.25 C 257.0258 528.55579 264.75926 528.95386 272.5 532.40625 L 285.6875 538.28125 L 281.59375 547.5 L 268.375 541.59375 C 263.50369 539.42111 258.57063 539.29815 253.59375 541.21875 C 248.61699 543.13932 245.06406 546.53698 242.90625 551.375 C 240.7337 556.24632 240.60361 561.17014 242.5 566.15625 C 244.39654 571.14227 247.78496 574.70233 252.65625 576.875 C 257.52767 579.04756 262.42948 579.17053 267.40625 577.25 C 272.38312 575.32936 275.95242 571.93381 278.125 567.0625 L 301.25 515.21875 z "
         style="fill:url(#linearGradient4385);fill-opacity:1;stroke:none" />
    </g>
    <path
       sodipodi:type="arc"
       style="fill:#ffffff;fill-opacity:0.35638296;stroke:#000000;stroke-opacity:1"
       id="path4218"
       sodipodi:cx="-995.71429"
       sodipodi:cy="420.93362"
       sodipodi:rx="490"
       sodipodi:ry="568.57141"
       d="m -554.71429,172.80195 c 0,0 -0.5,513.53667 -24.5,559.12031 -24.375,46.29588 -24.375,-634.69783 -49,-667.284835 -25,-33.083253 -25,812.030385 -49,835.960495 -24.375,24.30403 -24.375,-884.272929 -49.00001,-903.1728273 -25,-19.1877137 -25,954.8421073 -49,968.9260073 -24.37499,14.30395 -24.37499,-1027.091008 -48.99999,-1037.785685 -25,-10.857541 -25,995.858945 -49,1003.037315 -24.375,7.29054 -24.375,-1106.04607 -49,-1110.351 -25,-4.37048 -25,1165.36301 -49,1166.73803 -24.375,1.39651 -24.375,-1134.74632 -49.00001,-1133.33549 -25,1.43232 -25,1162.93813 -49,1158.74253 -24.375,-4.2613 -24.375,-1117.71635 -49,-1110.351037 -25,7.47747 -25,1098.302037 -49,1087.878837 -24.375,-10.5861 -24.375,-1052.236353 -49,-1037.785687 -25,14.670727 -25,1014.886387 -49,996.466187 -24.375,-18.70801 -24.375,-927.726147 -49,-903.172849 -25,24.927207 -25,751.785189 -49,720.025259 -24.375,-32.25617 -24.375,-714.055565 -49,-667.284857 -25,47.482957 -25,543.707487 -49,422.211617 -24.375,-123.39425 -24.5,-100.52827 -24.5,-100.52827 0,0 -0.125,-23.13156 24.5,101.52827 25,126.5582 25,-376.62798 49,-422.21162 24.375,-46.295876 24.375,634.69786 49,667.28486 25,33.08326 25,-696.09514 49,-720.025259 24.375,-24.304026 24.375,884.272969 49,903.172849 25,19.18771 25,-982.382289 49,-996.466187 24.375,-14.303959 24.375,1027.091017 49,1037.785687 25,10.8575 25,-1080.700466 49,-1087.878837 24.375,-7.290533 24.375,1106.046037 49,1110.351037 25,4.3705 25,-1157.36751 49,-1158.74253 24.37501,-1.3965 24.37501,1134.74632 49.00001,1133.33549 25,-1.43231 25,-1170.93369 49,-1166.73803 24.375,4.26123 24.375,1117.71631 49,1110.351 25,-7.47747 25,-1013.460554 49,-1003.037315 24.375,10.586102 24.375,1052.236345 48.99999,1037.785685 25,-14.67072 25,-987.346213 49,-968.9260073 24.37501,18.7080213 24.37501,927.7261273 49.00001,903.1728273 25,-24.9272 25,-867.720418 49,-835.960495 24.375,32.256173 24.375,714.055545 49,667.284835 25,-47.48296 24.5,-560.12031 24.5,-560.12031 z"
       inkscape:path-effect="#path-effect4220" />
    <text
       xml:space="preserve"
       style="font-size:40px;font-style:italic;font-variant:normal;font-weight:bold;font-stretch:normal;text-align:start;line-height:125%;letter-spacing:0px;word-spacing:0px;writing-mode:lr-tb;text-anchor:start;fill:#1d2a41;fill-opacity:1;stroke:none;font-family:Chalkboard;-inkscape-font-specification:Chalkboard Bold Italic"
       x="826.83521"
       y="588.86469"
       id="text3814"
       sodipodi:linespacing="125%"
       inkscape:export-filename="/Users/rob/Documents/PancakeBot2D/Design/Imgs/print.png"
       inkscape:export-xdpi="90.752098"
       inkscape:export-ydpi="90.752098"><tspan
         sodipodi:role="line"
         id="tspan3816"
         x="826.83521"
         y="588.86469">PRINT</tspan></text>
    <text
       sodipodi:linespacing="125%"
       id="text3820"
       y="691.34686"
       x="823.6499"
       style="font-size:40px;font-style:italic;font-variant:normal;font-weight:bold;font-stretch:normal;text-align:start;line-height:125%;letter-spacing:0px;word-spacing:0px;writing-mode:lr-tb;text-anchor:start;fill:#1d2a41;fill-opacity:1;stroke:none;font-family:Chalkboard;-inkscape-font-specification:Chalkboard Bold Italic"
       xml:space="preserve"
       inkscape:export-filename="/Users/rob/Documents/PancakeBot2D/Design/Imgs/clear.png"
       inkscape:export-xdpi="90.752098"
       inkscape:export-ydpi="90.752098"><tspan
         y="691.34686"
         x="823.6499"
         id="tspan3822"
         sodipodi:role="line">CLEAR</tspan></text>
    <g
       id="g3803"
       transform="translate(415.8947,-40.77399)">
      <path
         inkscape:export-ydpi="62.77"
         inkscape:export-xdpi="62.77"
         inkscape:export-filename="M:\RobDev\Projects\ArtDesign\PancakeBot2D\Design\Imgs\panlogo.png"
         transform="matrix(1.2358815,0,0,1.2276424,-206.44781,221.99492)"
         d="m 990.95963,550.49744 c 0,68.62069 -55.62806,124.24875 -124.24875,124.24875 -68.6207,0 -124.24876,-55.62806 -124.24876,-124.24875 0,-68.6207 55.62806,-124.24876 124.24876,-124.24876 68.62069,0 124.24875,55.62806 124.24875,124.24876 z"
         sodipodi:ry="124.24876"
         sodipodi:rx="124.24876"
         sodipodi:cy="550.49744"
         sodipodi:cx="866.71088"
         id="path3899"
         style="fill:url(#linearGradient3813);fill-opacity:1;stroke:none"
         sodipodi:type="arc" />
      <path
         inkscape:export-ydpi="62.77"
         inkscape:export-xdpi="62.77"
         inkscape:export-filename="M:\RobDev\Projects\ArtDesign\PancakeBot2D\Design\Imgs\panlogo.png"
         sodipodi:nodetypes="csssc"
         inkscape:connector-curvature="0"
         id="path3901"
         d="m 816.05008,979.44374 c -43.68783,-28.96389 -62.34137,-84.07646 -34.36492,-126.73866 27.97646,-42.6622 95.98518,-58.66396 136.8307,-25.81313 48.85031,39.28884 48.0709,95.57505 17.33628,132.72096 -32.52256,39.30682 -74.96013,50.73639 -118.64796,21.77251"
         style="fill:none;stroke:none" />
      <text
         inkscape:export-ydpi="62.77"
         inkscape:export-xdpi="62.77"
         inkscape:export-filename="M:\RobDev\Projects\ArtDesign\PancakeBot2D\Design\Imgs\panlogo.png"
         transform="matrix(0.94525872,-0.32632186,0.32632186,0.94525872,-247.73063,324.81791)"
         sodipodi:linespacing="125%"
         id="text3904"
         style="font-size:46.27450943px;font-style:normal;font-variant:normal;font-weight:normal;font-stretch:normal;text-align:start;line-height:125%;letter-spacing:0px;word-spacing:0px;writing-mode:lr-tb;text-anchor:start;fill:#e5e8ee;fill-opacity:1;stroke:none;font-family:Belgium;-inkscape-font-specification:Belgium"
         xml:space="preserve"><textPath
           style="font-size:60px;font-weight:normal;letter-spacing:7px;word-spacing:0px;fill:#e5e8ee;fill-opacity:1;stroke:none;-inkscape-font-specification:Belgium"
           id="textPath3920"
           xlink:href="#path3901">Pancake Bot 2D</textPath></text>
      <path
         inkscape:export-ydpi="62.77"
         inkscape:export-xdpi="62.77"
         inkscape:export-filename="M:\RobDev\Projects\ArtDesign\PancakeBot2D\Design\Imgs\panlogo.png"
         transform="translate(-6.0609153,336.19974)"
         d="m 844.48754,519.18268 c 0,6.13681 -7.68844,11.11168 -17.1726,11.11168 -9.48416,0 -17.17259,-4.97487 -17.17259,-11.11168 0,-6.13681 7.68843,-11.11168 17.17259,-11.11168 9.48416,0 17.1726,4.97487 17.1726,11.11168 z"
         sodipodi:ry="11.111678"
         sodipodi:rx="17.172594"
         sodipodi:cy="519.18268"
         sodipodi:cx="827.31494"
         id="path3924"
         style="fill:#e2e6eb;fill-opacity:1;stroke:none"
         sodipodi:type="arc" />
      <path
         inkscape:export-ydpi="62.77"
         inkscape:export-xdpi="62.77"
         inkscape:export-filename="M:\RobDev\Projects\ArtDesign\PancakeBot2D\Design\Imgs\panlogo.png"
         sodipodi:type="arc"
         style="fill:#e2e6eb;fill-opacity:1;stroke:none"
         id="path3926"
         sodipodi:cx="827.31494"
         sodipodi:cy="519.18268"
         sodipodi:rx="17.172594"
         sodipodi:ry="11.111678"
         d="m 844.48754,519.18268 c 0,6.13681 -7.68844,11.11168 -17.1726,11.11168 -9.48416,0 -17.17259,-4.97487 -17.17259,-11.11168 0,-6.13681 7.68843,-11.11168 17.17259,-11.11168 9.48416,0 17.1726,4.97487 17.1726,11.11168 z"
         transform="translate(73.741136,336.19974)" />
      <path
         inkscape:export-ydpi="62.77"
         inkscape:export-xdpi="62.77"
         inkscape:export-filename="M:\RobDev\Projects\ArtDesign\PancakeBot2D\Design\Imgs\panlogo.png"
         inkscape:connector-curvature="0"
         id="path3928"
         d="m 859.63982,871.54487 c 0,0 -6.06092,33.33503 -19.1929,45.45686 -13.13198,12.12183 37.37564,5.05077 37.37564,5.05077"
         style="fill:none;stroke:#e5e9ee;stroke-width:8.19999981;stroke-linecap:round;stroke-linejoin:miter;stroke-miterlimit:4;stroke-opacity:1;stroke-dasharray:none" />
      <path
         inkscape:export-ydpi="62.77"
         inkscape:export-xdpi="62.77"
         inkscape:export-filename="M:\RobDev\Projects\ArtDesign\PancakeBot2D\Design\Imgs\panlogo.png"
         sodipodi:nodetypes="cc"
         inkscape:connector-curvature="0"
         id="path3930"
         d="m 801.05097,934.17434 c 15.41734,5.77582 45.45687,91.92386 124.24876,-6.06092 -59.599,47.47717 -124.24876,6.06092 -124.24876,6.06092 z"
         style="fill:#e2e6eb;fill-opacity:1;stroke:none" />
    </g>
    <rect
       inkscape:export-ydpi="70.269997"
       inkscape:export-xdpi="70.269997"
       inkscape:export-filename="/Users/rob/Documents/PancakeBot2D/Design/Imgs/backdrop.png"
       y="-835.28436"
       x="1135.0751"
       height="698.98267"
       width="1022.8447"
       id="rect3880"
       style="fill:url(#radialGradient3906);fill-opacity:1;stroke:none"
       transform="matrix(0,1,-1,0,0,0)" />
    <g
       id="g3910"
       inkscape:export-filename="/Users/rob/Documents/PancakeBot2D/Design/Imgs/panPortrait.png"
       inkscape:export-xdpi="92"
       inkscape:export-ydpi="92">
      <path
         style="fill:#a5a5a5"
         d="m 477.74626,1168.5161 c -37.1704,1.2577 -71.4412,7.5075 -101.328,18.4789 -25.8101,9.4748 -57.7374,24.7994 -74.7764,35.8915 -17.7804,11.5748 -45.1471,34.8404 -59.338,50.4458 -7.7637,8.5375 -14.0153,13.8161 -24.2075,20.4395 -23.5021,15.2728 -30.4546,26.5876 -33.7026,54.8494 -1.1326,9.8556 -3.8719,21.5986 -7.7932,33.4085 -18.1714,54.7272 -22.9751,101.1319 -15.7782,152.4205 4.897,34.899 18.3243,76.3899 34.9129,107.8824 12.5405,23.8077 23.1661,39.2909 45.2934,66.0001 18.8032,22.6969 24.255,31.6267 28.5476,46.7605 5.2739,18.5932 4.2234,33.9232 -3.5211,51.3852 -4.4402,10.0116 -13.3032,22.1581 -41.6452,57.0737 -34.7799,42.8465 -50.3965,67.3224 -52.2377,81.872 -1.4707,11.6213 -0.086,19.158 4.8742,26.5229 12.2778,18.2317 36.1163,21.0189 52.9541,6.1914 12.5114,-11.0175 26.1029,-35.3716 49.1544,-88.0779 18.8761,-43.1591 22.8882,-50.6878 32.7478,-61.4513 24.0073,-26.2082 48.8024,-31.2114 96.9455,-19.5619 26.6895,6.4582 38.5224,8.0305 65.1783,8.6603 32.0238,0.7566 56.8468,-2.0059 88.215,-9.8173 63.9686,-15.9298 113.0349,-44.9397 161.67,-95.5855 10.2023,-10.6242 18.4835,-17.9637 24.6477,-21.8449 23.5654,-14.8377 33.8475,-31.7727 35.7798,-58.9309 0.5238,-7.3611 2.8984,-17.4965 6.9496,-29.6624 7.9858,-23.9813 11.8079,-39.1953 15.0265,-59.8132 6.9642,-44.6119 5.2675,-89.1378 -4.9538,-130.0017 -4.6518,-18.5973 -11.2512,-31.7047 -20.3809,-55.2356 -65.9441,-121.6439 -180.864,-192.8592 -303.2342,-188.3 z"
         id="path3882"
         inkscape:connector-curvature="0"
         sodipodi:nodetypes="csssssssssssssssssssssssssscc" />
      <path
         style="fill:#505050"
         d="m 474.33246,1170.3427 c -30.0208,1.3383 -46.8887,3.882 -74.3438,11.2109 -35.0909,9.3672 -80.7887,30.0349 -105.0754,47.5223 -16.7,12.0246 -36.6913,29.5913 -49.947,43.8892 -9.8332,10.6063 -15.3295,15.2385 -26.5414,22.3689 l -14.1401,8.9925 -8.1052,13.4634 -8.1051,13.4634 -1.9011,17.2021 c -1.3225,11.9659 -3.6483,22.3909 -7.6408,34.2485 -11.6466,34.5897 -20.0422,83.404 -17.1536,99.735 0.5966,3.3729 0.6564,6.8434 0.1329,7.7122 -0.5235,0.8687 -0.3547,3.7023 0.3753,6.2968 0.7299,2.5945 0.7569,5.6636 0.06,6.8203 -0.697,1.1566 -0.7234,2.801 -0.058,3.654 0.6649,0.8531 1.3821,4.9309 1.5938,9.0618 1.8637,36.3651 16.9926,88.6809 36.2623,125.3955 7.8101,14.8805 34.5032,55.4652 37.7784,57.4389 0.8727,0.5259 4.9839,4.8112 9.1361,9.523 17.6417,20.0189 24.2011,26.1853 40.0575,37.6581 10.9929,10.6008 18.0838,13.9922 23.5856,19.9404 5.2749,7.1357 1.7057,11.5244 -8.8331,27.2917 -2.5423,3.9723 -6.8279,10.0215 -9.5236,13.4426 -2.6957,3.4211 -7.9633,12.6315 -11.7058,20.4674 -26.588,47.6451 -44.159,88.9478 -72.3415,128.116 -13.1641,13.1166 -9.4021,14.8663 -20.4557,12.6297 -2.4416,0.027 -4.9127,-8.2432 -4.8162,-16.1196 0.085,-6.8927 0.5665,-7.9991 10.1731,-23.3541 14.4543,-23.1037 36.0919,-52.3055 52.8079,-71.2691 12.844,-14.5711 31.2974,-39.8291 34.4432,-47.1443 5.0955,-11.8487 3.5168,-47.4607 -2.5502,-57.529 -10.2515,-17.0125 -12.4571,-20.3783 -13.508,-20.614 -0.6582,-0.1476 0.9177,4.9348 3.5022,11.2943 8.9714,22.0758 8.9625,42.6978 -0.028,63.8751 -4.0771,9.6039 -14.6192,24.0311 -42.508,58.1737 -33.5299,41.0485 -49.7385,66.5758 -51.607,81.2769 -1.9058,14.9945 3.7229,27.7227 15.4014,34.8268 7.7806,4.733 14.1507,5.8381 23.7199,4.1148 19.7978,-3.5654 34.7512,-25.9905 65.7537,-98.6089 18.9923,-44.4865 26.6613,-57.6543 39.5259,-67.8667 10.1556,-8.0619 18.178,-12.4879 27.2546,-15.0365 16.308,-4.5791 39.2699,-3.3706 67.306,3.5425 24.1656,5.9587 37.736,7.8105 61.8284,8.4372 59.28,1.542 112.3553,-10.8209 163.0618,-37.9821 28.6116,-15.3259 56.1187,-36.505 81.8254,-63.0016 19.1536,-19.742 17.266,-18.0891 31.03,-27.1727 21.3099,-14.0635 29.832,-28.7153 32.3081,-55.5465 1.0041,-10.8811 3.0004,-19.7117 7.1701,-31.7176 19.3844,-55.8142 23.7072,-117.7362 12.0789,-173.0229 -41.5898,-164.0872 -223.0569,-254.4027 -327.2839,-257.1003 z m 280.3096,156.2352 c 0.01,0.9237 -0.5318,1.3476 -1.2048,0.942 -0.673,-0.4056 -1.2321,-1.4931 -1.2424,-2.4167 -0.01,-0.9237 0.5318,-1.3475 1.2047,-0.942 0.673,0.4056 1.2321,1.4931 1.2425,2.4167 z"
         id="path3884"
         inkscape:connector-curvature="0"
         sodipodi:nodetypes="csssscccssssssssssscccscccssssssssssssssssssssssccsssss" />
      <path
         style="fill:#404040"
         d="m 474.14026,1171.7622 c -47.4867,1.976 -79.3466,9.4623 -124.4066,29.2324 -10.1308,4.4449 -24.6898,11.5621 -32.3535,15.816 -23.7111,13.1613 -53.2711,37.3981 -74.6196,61.182 -5.5101,6.1386 -11.6814,12.1773 -13.7141,13.4192 -13.9813,8.5422 -18.0441,11.3948 -23.7086,16.646 -7.2014,6.676 -13.2169,18.1873 -11.7304,22.4474 0.4833,1.3852 0.1828,3.696 -0.6679,5.1352 -0.8506,1.4392 -1.6684,6.6715 -1.8172,11.6275 -0.303,10.0901 0.021,8.7054 -9.7586,41.6566 -16.6547,56.1141 -20.2457,101.3655 -12.1272,152.8179 5.4101,34.2876 17.0632,68.8633 34.0279,100.964 8.4152,15.9232 29.9521,48.4105 37.0033,55.8175 2.2471,2.3604 8.205,8.6658 13.2397,14.0119 19.4463,20.6487 51.9455,46.2349 72.4008,57.0001 52.3267,27.5387 90.7548,39.289 138.3016,42.2888 12.2013,0.7699 22.6943,1.176 23.3178,0.9025 1.8128,-0.7951 22.7747,-0.691 26.204,0.1301 1.7166,0.411 5.9627,0.1432 9.4359,-0.5951 3.4732,-0.7383 12.0696,-2.1731 19.1032,-3.1885 17.4421,-2.5179 49.612,-11.6288 64.0155,-18.1299 46.4588,-20.9697 76.3659,-41.2593 107.4183,-72.8749 20.7482,-21.1246 25.9972,-25.7888 36.4369,-32.3777 19.7135,-12.4419 28.7113,-28.1482 30.7178,-53.6203 0.8183,-10.3872 2.7162,-19.2249 6.5587,-30.5403 8.3931,-24.7161 12.1178,-39.9281 15.4856,-63.2436 10.1207,-70.0673 -1.8594,-136.4594 -36.2919,-201.1251 -38.687,-54.7772 -134.7524,-171.0895 -292.4714,-165.3997 z m 183.6886,55.9296 c -1.3775,-0.4072 -3.017,-1.4231 -3.6434,-2.2575 -0.6265,-0.8344 0.5006,-0.5013 2.5045,0.7404 2.0039,1.2416 2.5165,1.9243 1.139,1.5171 z m 28.215,19.5174 c 5.1002,4.1747 9.0078,8.0307 8.6835,8.5689 -0.7442,1.235 -0.049,1.7415 -15.0684,-10.9775 -7.4716,-6.3272 -10.6806,-9.6079 -7.7943,-7.9685 2.6983,1.5327 9.0789,6.2024 14.1792,10.3771 z m 20.6075,17.955 c 6.4888,6.5746 13.9386,14.535 22.2814,23.8083 17.4262,19.3698 33.6592,46.3993 49.0872,81.7347 4.529,10.3728 11.2772,34.1245 7.2365,25.4702 -4.3752,-9.3708 -5.5691,-12.2229 -8.2045,-19.5996 -11.6659,-32.6538 -44.2141,-80.9739 -75.4911,-112.0723 -2.4381,-2.4241 -4.1138,-4.9369 -3.7239,-5.5839 0.9348,-1.5512 1.5581,-1.1098 8.8144,6.2426 z m 85.5564,149.8088 c 1.1441,4.8883 1.5337,8.5585 0.8659,8.1561 -0.6679,-0.4025 -2.3602,-5.6382 -3.7607,-11.6349 -1.4004,-5.9968 -1.7901,-9.667 -0.8658,-8.1561 0.9242,1.5109 2.6165,6.7466 3.7606,11.6349 z m -15.3756,219.3843 c -1.1122,8.0443 -1.2378,8.4248 -2.5193,7.6344 -1.4701,-0.9066 -0.741,-12.4361 1.1169,-17.6618 1.6533,-4.6502 1.7206,-4.6823 2.052,-0.9783 0.1884,2.1062 -0.1039,7.0588 -0.6496,11.0057 z m -414.0487,162.5589 c -4.3764,-0.3494 -12.4034,-1.353 -17.8378,-2.2302 -19.9585,-3.2218 -28.6336,-1.7724 -39.7342,6.6388 -2.3269,25.8039 -80.6066,191.3282 -115.7364,170.443 -5.781,-3.4838 -6.3986,-4.4043 -8.1407,-12.1335 -2.7527,-12.2133 -0.742,-17.9932 13.8982,-39.9509 6.6297,-9.9434 15.9165,-23.2572 20.6374,-29.5861 7.7988,-10.4554 13.7502,-17.804 42.6662,-52.6831 13.4346,-16.205 20.4851,-29.9526 21.8913,-42.6851 0.6175,-5.5909 0.2824,-14.0493 -0.7445,-18.7964 -1.027,-4.7471 -1.9112,-9.4082 -1.965,-10.358 -0.1521,-2.6856 -3.1944,-11.7973 -3.6735,-11.0023 -0.2351,0.3901 0.1226,4.2609 0.7948,8.6018 0.6723,4.3408 0.9228,11.8811 0.5567,16.756 -1.8923,25.1948 -7.4504,34.5415 -55.5359,93.3899 -12.9486,15.8468 -20.1181,25.9413 -30.6949,43.2176 -13.683,22.3501 -13.8066,22.6177 -14.5756,31.5507 -0.9834,11.4242 1.7258,19.9478 8.763,27.5696 5.0926,5.5157 6.2024,6.1813 13.5652,8.1356 11.0691,2.938 22.8792,-0.041 31.599,-7.9693 12.3414,-11.2218 26.8655,-38.5117 52.826,-99.2565 15.7013,-36.7395 18.9376,-42.713 28.3708,-52.3669 14.026,-14.354 31.8945,-22.383 55.9467,-25.1389 7.8194,-0.896 7.2251,-1.3393 -2.8768,-2.1458 z"
         id="path3886"
         inkscape:connector-curvature="0"
         sodipodi:nodetypes="csssssscsssssssssssssssssscccccccssssssssssssssssssssssscsccssssssssssssssssssscc" />
      <path
         style="fill:#3e3e3e"
         d="m 470.55846,1172.4536 c -25.2426,1.0167 -51.5201,4.7396 -69.55,9.8537 -31.4334,8.9159 -79.9662,30.7005 -100.5777,45.1456 -8.9894,6.3001 -28.4851,21.9937 -33.5641,27.0184 -2.0169,1.9954 -7.2134,7.1204 -11.5477,11.3888 -4.3342,4.2685 -12.0264,12.393 -17.0937,18.0545 -5.0673,5.6615 -11.0165,10.997 -13.2204,11.8566 -2.204,0.8597 -4.5434,2.4523 -5.1988,3.5391 -0.9935,1.6475 -7.3873,7.1321 -16.121,13.8287 -5.8523,4.4873 -10.189,18.0137 -11.8767,37.0442 -0.5407,6.096 -3.4615,18.9723 -6.4908,28.6141 -13.8659,44.1327 -18.8102,70.3062 -19.6604,104.0767 -1.2413,49.303 9.3361,99.4287 30.5598,144.8201 8.2092,17.5573 34.962,60.8608 41.5298,67.2225 1.6305,1.5793 6.0592,6.4546 9.8418,10.8341 8.447,9.7803 18.7167,19.6457 33.5472,32.2267 14.3444,12.1687 59.3573,39.7162 77.6766,47.5374 46.4789,19.8436 88.1706,27.7407 136.4711,25.8502 9.1711,-0.359 18.9491,-0.3282 21.7289,0.068 2.7797,0.3966 6.4266,0 8.1042,-0.8775 1.6775,-0.8792 6.2669,-1.6653 10.1987,-1.7469 9.6832,-0.2009 56.3462,-11.963 67.0399,-16.8983 4.7414,-2.1883 11.6272,-5.1693 15.3018,-6.6245 11.6454,-4.6118 33.3837,-16.8208 46.9208,-26.3526 23.9017,-16.8297 34.7936,-26.3786 61.1275,-53.59 5.0273,-5.1947 14.7272,-13.2559 21.5554,-17.9138 22.7799,-15.5391 30.8154,-28.7801 32.9749,-54.3362 0.9013,-10.6663 2.9505,-19.9159 7.387,-33.3432 8.1779,-24.7504 10.9037,-35.5355 14.0279,-55.5041 6.8164,-43.5679 5.4624,-86.3876 -3.9476,-124.8342 -7.1292,-29.1278 -14.7209,-48.4302 -35.6288,-90.5888 -93.7594,-131.7216 -166.7774,-138.7587 -291.5156,-156.3697 z m 210.0089,69.4557 c 5.6002,4.4078 12.0864,9.8365 14.4138,12.0637 2.3274,2.2272 6.4925,5.9027 9.2558,8.1677 5.3061,4.3493 32.6817,34.5257 34.9377,38.5123 0.7285,1.2872 5.0789,7.3201 9.6676,13.4064 4.5887,6.0863 8.7653,12.2338 9.2812,13.6611 0.5159,1.4274 3.7337,7.9204 7.1505,14.4289 10.4638,19.9318 17.8575,38.2011 23.9244,59.1148 5.4304,18.7197 8.0922,32.1734 6.4462,32.5816 -0.3934,0.098 -3.1825,-8.7895 -6.198,-19.7489 -3.0155,-10.9594 -6.3064,-21.6733 -7.3131,-23.8086 -1.0066,-2.1353 -3.5864,-8.4414 -5.7328,-14.0135 -12.1139,-31.4476 -34.7617,-66.8975 -63.0876,-98.7489 -13.5741,-15.2636 -40.1415,-37.7486 -61.3054,-51.8851 -13.9724,-9.3329 -14.726,-9.9514 -10.83,-8.8886 4.7883,1.3061 27.5854,15.8661 39.3897,25.1571 z m -45.8846,-27.6531 c -3.3569,0.1053 -9.5062,-3.6004 -8.5653,-5.1617 0.4056,-0.673 3.0725,0.195 5.9265,1.929 3.8001,2.3088 4.5064,3.174 2.6388,3.2327 z m -23.0367,-11.0752 c -1.0963,-0.1789 -2.1255,-0.8583 -2.2871,-1.5099 -0.1615,-0.6516 0.7355,-0.5053 1.9933,0.3252 1.3901,0.9177 1.5053,1.3824 0.2938,1.1847 z m 186.7137,240.028 c 0.078,4.9426 -2.3126,2.0024 -2.5371,-3.1195 -0.1387,-3.1667 0.053,-3.5147 1.1574,-2.0979 0.728,0.9341 1.3489,3.2819 1.3796,5.2173 z m 1.3544,14.7803 c 0.2294,1.5144 0.1419,2.5875 -0.1946,2.3847 -0.3365,-0.2028 -0.7996,-1.6077 -1.029,-3.1221 -0.2295,-1.5143 -0.1419,-2.5874 0.1946,-2.3847 0.3365,0.2028 0.7995,1.6078 1.029,3.1221 z m 2.3844,20.6573 c -0.2896,9.5492 -2.5084,6.5835 -2.893,-3.867 -0.4882,-13.2643 -0.2836,-14.3999 1.4848,-8.2406 0.8832,3.0763 1.5169,8.5247 1.4082,12.1076 z m -24.6103,154.1267 c -2.1422,13.9604 -3.0882,17.623 -4.3544,16.86 -1.4656,-0.8833 0.3778,-23.2364 2.3712,-28.753 1.506,-4.1678 1.7907,-4.3665 2.6755,-1.8677 0.5446,1.538 0.2331,7.7303 -0.6923,13.7607 z m -418.8428,164.0899 c -3.1389,-0.1195 -11.9178,-0.8491 -19.5087,-1.6214 -17.6352,-1.7943 -28.4304,1.751 -39.9159,13.109 -11.4384,11.3115 -31.7669,54.2038 -45.886,96.8174 -2.4069,7.2647 -6.1719,17.3424 -8.3666,22.395 -5.7043,13.1327 -19.6727,36.4418 -22.9004,38.2139 -2.2985,1.262 -2.3,0.728 -0.01,-3.5639 1.4818,-2.7766 3.4029,-6.1225 4.269,-7.4353 -1.4315,-9.0597 -9.7614,17.4039 -18.414,20.4469 -5.1722,1.8062 -11.6699,0.6211 -18.2123,-3.3215 -8.1461,-4.9091 -10.4989,-10.2932 -9.4973,-21.7328 l 0.7699,-8.793 15.2971,-23.6008 c 15.4715,-23.8698 32.5414,-46.3351 54.1031,-71.2039 6.5701,-7.5778 15.4919,-19.5607 20.0942,-26.9886 8.0949,-13.0647 8.3007,-13.6215 9.325,-25.2381 0.5761,-6.5332 0.3281,-14.5167 -0.5511,-17.7409 -1.8156,-6.6584 -3.2167,-5.6771 -3.3667,2.3578 -0.1424,7.629 -2.5915,17.7356 -6.8557,28.291 -4.0444,10.011 -7.8981,15.3238 -39.8789,54.9783 -44.6081,55.3117 -55.5702,74.0702 -54.42,93.1247 0.6473,10.7248 4.3949,17.1577 13.815,23.7143 7.2367,5.0368 8.5058,5.4412 17.0086,5.4189 7.0084,-0.018 11.0185,-1.0954 16.9019,-4.5396 7.2931,-4.2693 8.28,-5.401 18.104,-20.7583 12.3365,-19.2852 20.7098,-36.3602 39.205,-79.9476 19.6314,-46.2653 25.3437,-54.6986 46.1843,-68.1846 7.3661,-4.7665 13.0811,-6.9397 25.0311,-9.5182 16.016,-3.4558 17.414,-4.308 7.6749,-4.6787 z m -83.1361,-33.6504 c -0.4055,0.673 -0.3918,1.8958 0.031,2.7172 0.4224,0.8215 1.0997,0.943 1.5053,0.2701 0.4056,-0.673 0.3918,-1.8958 -0.031,-2.7173 -0.4223,-0.8215 -1.0997,-0.943 -1.5053,-0.27 z"
         id="path3888"
         inkscape:connector-curvature="0"
         sodipodi:nodetypes="csssssssssssssssssssssssssssssccsssssssscsssssssssssccccccscccsssssssssssssscssssssccsscssssssssssssssssccsssss" />
      <path
         style="fill:#343434"
         d="m 557.44296,1180.0991 c -36.0419,-7.8213 -57.3618,-8.4547 -83.7473,-7.4334 -12.171,0.4712 -27.2862,1.5581 -33.5894,2.4155 -36.6773,4.9889 -75.57,17.9325 -114.0886,37.969 -22.6376,11.7755 -31.653,18.3863 -64.5561,47.3377 -3.7128,3.2669 -11.9458,12.0242 -18.2955,19.4607 -8.6325,10.1099 -14.5236,15.6065 -23.3524,21.7887 -19.2365,13.47 -25.0813,23.5641 -27.3665,47.2629 -1.1915,12.3569 -2.7883,18.8156 -11.1101,44.9384 -5.1791,16.2576 -7.8821,27.8186 -12.4109,53.0834 -3.7925,21.1569 -3.8292,64.1478 -0.076,88.7498 4.1884,27.4528 13.3645,59.5528 24.0881,84.2657 11.2552,25.938 31.7106,58.9114 49.2993,79.4688 10.5737,12.3583 11.3751,13.1667 29.5644,29.8243 31.4951,28.8428 71.4678,51.6168 119.8207,68.2665 27.9335,9.6186 71.205,15.0853 105.5536,13.3352 10.3088,-0.5252 19.0916,-0.745 19.5174,-0.4884 0.4257,0.2566 3.8998,-0.089 7.7201,-0.7686 3.8203,-0.6793 10.4949,-1.7234 14.8326,-2.3203 15.7337,-2.1649 61.8979,-14.3526 64.6213,-17.0605 1.5125,-1.5039 6.449,-3.7636 10.9698,-5.0215 9.9036,-2.7556 21.7798,-8.9648 41.4242,-21.6577 23.5575,-15.2212 36.4602,-25.7957 59.8142,-49.0211 15.9628,-15.8749 25.1602,-23.9198 33.7942,-29.5596 10.8149,-7.0644 12.5065,-8.7187 19.1533,-18.7311 5.9627,-8.9817 7.6837,-12.7281 9.4452,-20.5669 1.1849,-5.2715 1.6963,-10.8557 1.1364,-12.4093 -0.894,-2.4804 -1.0752,-2.4525 -1.4867,0.2288 -1.9612,12.78 -4.632,20.6784 -5.5989,16.5583 -1.1264,-4.7992 1.0802,-24.4782 3.3318,-29.7138 1.3886,-3.229 2.7883,-5.7121 3.1105,-5.518 0.3222,0.1942 0.3666,3.6033 0.099,7.5759 -0.6224,9.2325 0.6133,9.0871 1.7899,-0.2107 0.4936,-3.9004 3.4952,-14.4046 6.6703,-23.3427 19.3911,-54.5869 23.4269,-117.4667 11.1453,-173.6482 -5.2852,-24.1772 -13.5436,-47.6181 -25.5439,-72.5045 -5.505,-11.4162 -11.8028,-24.9493 -13.9951,-30.0734 -88.2829,-102.6146 -95.5043,-106.0604 -201.6844,-142.4799 z m 126.9162,63.8217 c 26.5469,22.9256 52.1952,50.2826 70.4497,78.4345 9.429,14.7799 26.359,50.3928 30.4708,64.0963 0.6098,2.0326 2.9811,9.5161 5.2693,16.63 2.2883,7.1139 5.156,20.0477 6.3727,28.7418 1.2167,8.6941 3.0115,21.5433 3.9885,28.5538 1.8803,13.4925 2.3567,22.6404 1.4327,27.5119 -1.0811,5.6999 -3.3101,-6.2181 -3.9863,-21.3138 -0.3544,-7.9139 -1.3179,-17.7571 -2.1411,-21.8739 -2.5429,-12.7169 -10.84,-43.9538 -13.6905,-51.542 -7.7207,-20.5526 -9.9681,-25.9655 -14.9064,-35.9015 28.955,-22.3927 -163.2264,-159.4609 -140.9181,-149.6077 10.8937,5.1177 51.4268,30.6153 57.6587,36.2706 z m -70.6056,-40.8374 c 0.01,0.7978 -3.0689,0.062 -6.8396,-1.6342 -10.8498,-4.8818 -13.5599,-7.2653 -5.1508,-4.5302 9.6191,3.1286 11.9699,4.3372 11.9904,6.1644 z m -234.1097,514.6498 c -15.2742,-7.29 -45.507,-26.4341 -53.9086,-34.1362 -328.8700037,-1075.31996 809.14714,386.612 53.9086,34.1362 z m 422.3122,-216.4109 c -1.723,2.8591 -2.542,-0.5217 -1.3806,-5.6991 l 1.0717,-4.7782 0.6884,4.3526 c 0.3786,2.394 0.2079,5.15 -0.3795,6.1247 z m -0.2292,11.842 c -0.7787,4.0925 -2.2256,1.9713 -1.9772,-2.8989 0.1308,-2.5649 0.4522,-3.0031 1.3938,-1.9002 0.6731,0.7884 0.9357,2.9479 0.5834,4.7991 z m -455.3249,282.8004 c -22.9503,-1.7813 -31.8768,0.6417 -45.9814,12.4808 -4.2144,3.5375 -6.8607,7.499 -13.9023,20.8118 -20.272,43.2962 -74.075,160.5701 -99.269,142.0113 -5.9054,-4.8618 -8.4603,-12.0954 -7.5965,-21.5079 0.6469,-7.049 1.1707,-8.0515 17.3843,-33.2692 9.1946,-14.3007 19.7897,-29.7792 23.5448,-34.3967 3.7551,-4.6175 9.6323,-11.9593 13.0605,-16.315 3.4282,-4.3558 11.5788,-14.0806 18.1124,-21.6106 6.5335,-7.5301 15.1007,-18.9129 19.0381,-25.2953 6.5373,-10.5967 7.2548,-12.5171 8.2632,-22.1158 1.1383,-10.8359 0.5014,-22.5691 -1.2835,-23.6447 -0.5577,-0.3362 -1.4926,3.9444 -2.0775,9.5123 -0.5849,5.5679 -2.8871,15.153 -5.1159,21.3004 -3.8587,10.6425 -4.8195,12.1607 -20.0954,31.752 -8.8235,11.3162 -21.751,27.6433 -28.7278,36.2824 -28.8269,35.6955 -44.463,60.3035 -46.3522,72.9489 -3.3872,22.6715 10.1671,39.7996 31.3049,39.559 6.0788,-0.069 9.9768,-1.3022 16.0631,-5.0812 7.3551,-4.5667 8.8164,-6.2002 17.2338,-19.2634 11.4443,-17.7609 21.2639,-37.8043 38.9663,-79.537 15.0919,-35.5782 22.4705,-49.1043 31.7101,-58.1292 12.0245,-11.745 28.205,-19.9356 43.9774,-22.2615 5.4526,-0.804 9.1111,-1.83 8.1301,-2.28 -0.981,-0.4499 -8.3553,-1.3281 -16.3875,-1.9515 z"
         id="path3890"
         inkscape:connector-curvature="0"
         sodipodi:nodetypes="csssssssssssssssssssssssscssssssssssccccsssssssscccsssscccsscsssssscsccsssssssssssssssssssccc" />
      <path
         style="fill:#101010"
         d="m 600.12216,1201.0259 c -28.7584,-11.7864 -54.3853,-19.1007 -75.9967,-21.6905 -7.5852,-0.909 -14.1323,-1.8581 -14.5489,-2.1092 -1.0629,-0.6405 -44.7822,-0.8812 -54.2009,-0.2984 -22.033,1.3634 -50.9763,6.7896 -64.1614,12.0289 -4.8587,1.9306 -15.6904,5.9114 -24.0703,8.8462 -17.1288,5.9986 -23.0481,8.679 -37.9104,17.1667 -27.2491,15.5615 -54.9893,36.7786 -71.3839,54.598 -16.2743,17.6886 -21.7576,22.7805 -34.6892,32.2131 -21.0171,15.3304 -26.171,24.4442 -28.481,50.3639 -0.4763,5.3444 -2.9805,15.8448 -5.5649,23.3341 -2.5843,7.4894 -6.6939,20.5436 -9.1323,29.0093 -20.8761,72.4777 -15.455,147.4235 15.769,218.003 8.4795,19.1671 33.6314,59.7601 46.2185,74.5925 26.2731,30.9597 59.19,56.987 96.0881,75.9766 58.065,29.8832 105.0641,39.6094 171.5116,35.4936 46.0466,-2.8522 100.5602,-20.4406 140.8096,-45.4311 5.9159,-3.6731 15.9772,-10.6627 22.3585,-15.5323 6.3812,-4.8697 14.4719,-10.665 17.9791,-12.8785 3.5073,-2.2135 7.3339,-5.6126 8.5035,-7.5535 1.1697,-1.9409 3.5799,-4.8293 5.3561,-6.4186 1.7762,-1.5894 5.9125,-5.7764 9.1918,-9.3045 13.5586,-14.5874 17.743,-18.2678 35.4489,-31.1788 7.7795,-5.6728 10.359,-8.4546 15.0166,-16.1943 5.1634,-8.5792 5.7364,-10.5634 6.9995,-24.2163 1.4648,-15.8337 4.3008,-27.2753 9.6465,-38.9194 9.7495,-21.2359 19.8765,-93.9909 16.6168,-119.3787 -0.3735,-2.909 -1.1862,-11.9748 -1.8061,-20.1462 -1.2304,-16.2194 -13.7489,-68.2757 -18.1223,-75.3587 -1.4991,-2.4279 -3.7769,-7.5647 -5.0619,-11.4151 -1.285,-3.8504 -3.0358,-7.4222 -3.8907,-7.9374 -0.8549,-0.5152 -1.5799,-1.8904 -1.6112,-3.0559 -0.057,-2.1482 -4.0988,-12.061 -5.1836,-12.7147 -0.3248,-0.1958 -2.8336,-4.7889 -5.5749,-10.2069 -2.7414,-5.418 -6.4562,-10.8467 -8.2552,-12.0637 -1.799,-1.2171 -3.5166,-3.9666 -3.817,-6.1101 -0.6137,-4.3799 -11.9398,-19.8805 -27.8549,-38.1214 -21.8579,-25.0522 -39.4037,-39.7334 -71.2899,-59.651 -21.2869,-13.2968 -27.7138,-16.6945 -44.9065,-23.7407 z m -254.7856,597.7918 c -2.5222,0.3148 -5.2203,0.1901 -5.9956,-0.2772 -2.1999,-1.3256 -22.1504,3.4826 -26.6297,6.418 -2.2105,1.4486 -5.8199,3.6784 -8.0208,4.955 -4.6378,2.6904 -21.1427,29.2623 -28.0155,45.1036 -10.2941,23.7273 -17.0035,40.2213 -17.9835,44.2101 -0.5894,2.3992 -2.1639,6.7045 -3.4988,9.5673 -1.3349,2.8628 -4.9513,10.7777 -8.0364,17.5886 -3.0851,6.811 -9.4127,18.7968 -14.0613,26.6353 -7.231,12.1928 -9.406,14.936 -15.0543,18.987 -7.7421,5.5528 -15.1028,7.08 -23.0866,4.7902 -7.0261,-2.0152 -11.5602,-6.0425 -15.6132,-13.8677 l -3.0838,-5.9541 2.1208,7.0563 c 2.9849,9.9309 9.9512,16.6046 19.6034,18.78 8.2996,1.8705 18.2616,0.015 25.7536,-4.7978 4.176,-2.6824 7.3128,-6.6733 16.1907,-20.599 13.0057,-20.4006 20.6928,-36.1134 39.1784,-80.0827 16.3235,-38.8265 23.0487,-49.9693 36.5221,-60.5124 8.915,-6.9759 19.86,-12.9017 29.5485,-15.9978 6.7354,-2.1524 6.7902,-2.83 0.162,-2.0027 z m -68.3724,-10.3346 c -0.4095,0.6767 -1.328,3.5008 -2.0407,6.2761 -4.1048,15.9844 -14.373,31.1798 -54.0595,79.9998 -22.5312,27.7167 -40.0957,54.4074 -42.9914,65.3291 -1.1953,4.508 -1.8332,8.8577 -1.4177,9.6659 0.4454,0.8664 1.0467,-0.2767 1.4651,-2.7852 0.4369,-2.6194 5.4644,-11.9668 13.081,-24.3209 17.6168,-28.5744 34.6949,-51.4665 58.8021,-78.8208 8.2286,-9.3369 16.0354,-19.5911 20.1307,-26.4415 6.0389,-10.1015 6.7424,-12.1112 7.2324,-20.6613 0.2986,-5.2092 0.2077,-8.9178 -0.202,-8.2412 z"
         id="path3892"
         inkscape:connector-curvature="0"
         sodipodi:nodetypes="ssssssssssssssssssssssscsssssssssscsssscssssssssssscssssssscccssscsssssc" />
      <path
         sodipodi:type="arc"
         style="fill:#351919;fill-opacity:1;stroke:none"
         id="path3894"
         sodipodi:cx="764.68549"
         sodipodi:cy="29.258709"
         sodipodi:rx="126.26907"
         sodipodi:ry="126.26907"
         d="m 890.95456,29.258709 a 126.26907,126.26907 0 1 1 -252.53815,0 126.26907,126.26907 0 1 1 252.53815,0 z"
         transform="matrix(0,2.2239999,2.2319999,0,418.03546,-212.03201)" />
      <path
         inkscape:connector-curvature="0"
         style="fill:url(#linearGradient3908);fill-opacity:1;stroke:none"
         d="m 495.97223,1201.8083 c -50.91173,-2.5029 -103.05561,8.499 -151.00879,34.6483 -139.50022,76.0707 -190.58845,251.4217 -114.11294,391.6641 76.4754,140.2425 251.54156,192.2838 391.04179,116.2131 139.50011,-76.0706 190.62087,-251.4516 114.14546,-391.694 -50.187,-92.0341 -142.87045,-146.0531 -240.06552,-150.8315 z m -29.18201,55.7941 c 2.59574,0.076 5.15185,0.4369 7.64668,1.1118 3.99156,1.0799 7.60069,2.8647 10.84209,5.3473 6.76407,5.1927 10.59793,12.1203 11.52184,20.7659 l 0.35675,3.331 -52.13226,5.5706 c 1.33484,4.9277 4.16971,8.8223 8.50269,11.7212 4.33288,2.8988 9.24811,4.0736 14.76977,3.4836 4.17752,-0.4464 7.87795,-1.6572 11.10379,-3.6185 3.22573,-1.9613 5.657,-4.488 7.27184,-7.5999 l 9.94721,4.3391 c -5.04685,9.5042 -14.41927,14.9705 -28.07798,16.43 -4.25032,0.4541 -8.35442,0.1406 -12.34598,-0.9393 -3.99167,-1.0799 -7.60733,-2.8385 -10.84479,-5.2849 -6.76427,-5.1925 -10.60466,-12.094 -11.52463,-20.7035 -0.9238,-8.6456 1.34662,-16.2207 6.86091,-22.7254 2.64357,-3.1114 5.81521,-5.6052 9.48857,-7.5042 3.67326,-1.8988 7.63269,-3.0994 11.88292,-3.5536 1.59382,-0.1702 3.17309,-0.2167 4.73058,-0.1712 z m -0.28729,9.559 c -1.12063,-0.058 -2.25149,-0.021 -3.41391,0.1029 -4.61354,0.493 -8.6204,2.3221 -11.99635,5.4567 -3.37596,3.1348 -5.5225,6.9453 -6.4371,11.452 l 40.00295,-4.2797 c -1.76974,-4.1831 -4.66521,-7.4525 -8.64729,-9.8194 -2.98667,-1.7751 -6.14616,-2.7483 -9.5083,-2.9125 z m 158.85117,11.9517 c 5.92261,0.1995 11.62777,2.4046 17.1369,6.6198 6.32496,4.84 10.19089,10.5904 11.54781,17.2638 1.35681,6.6735 -0.10716,12.8219 -4.39181,18.4216 -2.30901,3.0175 -5.12397,5.1947 -8.41378,6.5184 -3.29012,1.3238 -6.51157,1.6221 -9.70525,0.9263 2.16718,2.5784 3.28591,5.931 3.41459,10.0315 0.19804,5.2119 -1.56285,10.2567 -5.31468,15.16 -4.52903,5.9189 -9.92335,9.2274 -16.19199,9.9051 -6.26873,0.6775 -12.54693,-1.4066 -18.84293,-6.2243 l -13.53556,-10.343 6.13287,-8.0243 13.53412,10.3742 c 3.24954,2.4865 6.79106,3.472 10.63225,2.961 3.8411,-0.511 6.94079,-2.344 9.33858,-5.4776 2.48638,-3.2495 3.49922,-6.7737 3.02078,-10.5671 -0.47864,-3.7932 -2.38405,-6.9522 -5.7206,-9.5054 l -13.53422,-10.3742 6.13153,-7.9931 8.9924,6.894 c 3.82985,2.9305 7.69174,4.3014 11.55166,4.1267 3.85972,-0.1747 7.04645,-1.9094 9.57747,-5.217 2.48638,-3.2496 3.31278,-6.8233 2.49547,-10.7149 -0.81753,-3.8916 -3.07624,-7.2832 -6.81897,-10.1472 -3.77191,-2.886 -7.65101,-4.2017 -11.62084,-3.9733 -3.96994,0.2285 -7.21598,1.9621 -9.70235,5.2117 l -37.85528,49.4768 -8.90149,-6.8275 37.85528,-49.4768 c 4.26247,-5.5707 9.81619,-8.5508 16.65246,-8.9781 0.85449,-0.053 1.68952,-0.076 2.53558,-0.047 z m -280.74904,-6.0754 24.91914,43.7397 4.64957,-2.6458 c 4.762,-2.7117 7.94047,-6.6537 9.51829,-11.8195 1.57783,-5.1657 1.07688,-9.9755 -1.47214,-14.4518 l -2.5277,-4.4882 9.26805,-5.2929 2.55887,4.4895 c 2.67556,4.6986 3.83098,9.8062 3.43527,15.3498 -0.39572,5.5437 -2.15928,9.8594 -5.28139,12.9406 4.85895,-0.9171 9.60008,-0.1799 14.26168,2.2106 4.66149,2.3905 8.40245,6.0727 11.22271,11.0251 l 2.90792,5.0989 -9.26795,5.293 -2.90793,-5.0989 c -2.67566,-4.6985 -6.6577,-7.7393 -11.90081,-9.0839 -5.24313,-1.3445 -10.2479,-0.6456 -15.07333,2.1022 l -4.68218,2.6757 12.50369,21.9343 -9.29923,5.2916 -42.13176,-73.9784 9.29923,-5.2916 z m -26.23483,68.683 c 6.02982,0.3082 11.63032,2.4915 16.76628,6.5099 l 23.17846,18.1097 -6.58882,8.4426 -23.17711,-18.1409 c -4.54611,-3.557 -9.7158,-5.0005 -15.4854,-4.2965 -5.76963,0.7044 -10.42032,3.3277 -13.97737,7.8737 -3.55706,4.5461 -5.00073,9.7159 -4.29646,15.4854 0.70416,5.7697 3.32744,10.4204 7.87355,13.9774 4.5461,3.5571 9.71578,5.0007 15.4855,4.2964 5.76961,-0.7041 10.42031,-3.3274 13.97736,-7.8735 2.18373,-2.791 3.56993,-5.9419 4.16004,-9.4233 0.59,-3.4812 0.34789,-6.9268 -0.77317,-10.3554 l 11.13506,8.7068 c -0.74237,6.2846 -3.06914,11.9269 -6.98637,16.9333 -2.63405,3.3665 -5.7462,6.1193 -9.30096,8.2318 -3.55476,2.1125 -7.33467,3.479 -11.37376,4.076 -8.40834,1.2606 -16.03335,-0.7898 -22.88126,-6.1481 -6.84781,-5.3581 -10.69274,-12.31 -11.52048,-20.7972 -0.36324,-4.0416 0.0412,-8.0305 1.23661,-11.9891 1.19543,-3.9584 3.1259,-7.6142 5.75996,-10.9807 2.63394,-3.3663 5.71492,-6.1205 9.26968,-8.2331 3.55485,-2.1124 7.33225,-3.4577 11.34259,-4.0774 2.1092,-0.3095 4.16613,-0.4305 6.17607,-0.3278 z m 350.51784,31.7941 c 3.46248,0.054 6.91087,0.7529 10.38768,2.106 3.77012,1.5005 7.17246,3.6843 10.16514,6.5379 2.99248,2.8538 5.38278,6.1996 7.19766,10.0696 1.81467,3.8701 2.86206,7.8648 3.1423,11.9904 0.28013,4.1256 -0.19775,8.1215 -1.45521,11.9796 -2.7042,8.0874 -7.99801,13.9846 -15.87035,17.6762 -7.87253,3.6915 -15.77163,3.9945 -23.6852,0.8861 -3.80343,-1.4849 -7.20519,-3.6543 -10.19776,-6.5081 -2.99258,-2.8537 -5.38154,-6.2307 -7.19632,-10.1008 -1.81477,-3.8701 -2.86216,-7.8647 -3.1423,-11.9903 -0.28023,-4.1257 0.22834,-8.1346 1.519,-12.0082 2.671,-8.0718 7.93412,-13.956 15.80656,-17.6476 4.42822,-2.0765 8.87708,-3.0608 13.3288,-2.9908 z m 0.13528,10.6407 c -3.01575,-0.022 -5.99956,0.6444 -8.9393,2.0229 -5.22629,2.4507 -8.82756,6.423 -10.8037,11.8891 -1.97634,5.4662 -1.73547,10.8195 0.71525,16.0457 2.45071,5.2263 6.42298,8.8275 11.88917,10.8038 5.4661,1.9763 10.81946,1.7354 16.04575,-0.7153 5.22609,-2.4507 8.82735,-6.423 10.80369,-11.8891 1.97625,-5.4662 1.73537,-10.8196 -0.71524,-16.0457 -2.45081,-5.2263 -6.42308,-8.8275 -11.88918,-10.8038 -2.39145,-0.8646 -4.76101,-1.2903 -7.10644,-1.3076 z m -414.42958,39.4548 9.25699,2.2136 -1.83669,7.7718 c -1.26243,5.3327 -0.4578,10.3327 2.4185,14.9931 2.87618,4.6606 6.98342,7.6205 12.31606,8.883 5.36811,1.2708 10.39501,0.4604 15.05562,-2.4158 4.66051,-2.8762 7.62039,-6.9835 8.88282,-12.3161 l 1.83669,-7.7719 9.28951,2.1838 -1.86921,7.8016 c -2.14725,8.2769 -6.56005,14.6152 -13.23932,19.0408 -6.84667,4.4987 -14.30131,5.8005 -22.40683,3.8816 -8.10562,-1.919 -14.23324,-6.4239 -18.37168,-13.5232 -4.07585,-7.0469 -5.15429,-14.6928 -3.20167,-22.9406 l 1.86921,-7.8017 z m 477.52508,42.3409 0.3836,10.6827 -16.2602,0.6122 0.61105,17.0109 -9.52485,0.3711 -0.6097,-17.0422 -32.86398,1.2096 c -1.93495,0.071 -3.54487,0.9274 -4.80168,2.5454 -1.25681,1.6181 -1.81831,3.6152 -1.72999,6.0248 l 0.3124,8.709 -9.52349,0.3399 -0.35763,-9.8371 c -0.194,-5.2938 1.15865,-9.6717 4.06786,-13.0868 2.90921,-3.4151 6.71927,-5.1835 11.42899,-5.3561 l 58.86762,-2.1834 z m -430.43915,30.6315 2.17537,10.4785 -35.92007,7.5212 c -3.68298,0.7716 -6.58641,2.7211 -8.66778,5.8819 -2.08138,3.1608 -2.71602,6.5865 -1.94445,10.2694 0.77156,3.6831 2.73567,6.5604 5.91437,8.638 3.1788,2.0776 6.61638,2.7486 10.29936,1.9771 l 35.92142,-7.5525 2.20663,10.4798 -35.95134,7.5199 c -6.47206,1.3559 -12.34546,0.2155 -17.64883,-3.4514 -5.30328,-3.6668 -8.66967,-8.8786 -10.08539,-15.6368 -1.40069,-6.6866 -0.3898,-12.7848 3.01,-18.2934 3.3999,-5.5087 8.30317,-8.9635 14.73947,-10.3118 l 35.95124,-7.5199 z m 342.00775,70.995 c 1.07054,0.036 2.05953,0.3688 2.99347,0.9425 1.92999,1.1855 3.11884,2.8037 3.54177,4.9072 l 12.61973,48.245 c 1.19132,5.3195 3.65529,9.097 7.39085,11.3916 3.70436,2.2755 7.67577,2.9294 11.89696,1.9209 4.2211,-1.0087 7.47642,-3.3819 9.752,-7.0863 2.25633,-3.6733 2.88729,-7.6305 1.88827,-11.8671 -0.99911,-4.2368 -3.35071,-7.4752 -7.05498,-9.7506 -4.0158,-2.4668 -8.41266,-2.9919 -13.16475,-1.5377 l -2.835,-10.4131 c 7.55368,-2.7345 14.81979,-1.9399 21.85515,2.3817 6.25695,3.8435 10.15794,9.2499 11.6547,16.2362 1.49666,6.9863 0.2459,13.726 -3.75055,20.2321 -3.99654,6.506 -9.45801,10.6704 -16.36622,12.4937 -6.90831,1.8233 -13.47537,0.834 -19.73232,-3.0095 -2.86393,-1.7593 -5.3802,-4.1507 -7.51025,-7.1742 -2.13026,-3.0235 -3.50551,-6.0541 -4.14455,-9.0621 l -11.39205,-42.6243 -19.58088,31.9044 -8.59283,-5.2815 24.22341,-39.4614 c 1.01346,-1.6499 2.45269,-2.7076 4.29646,-3.1614 0.69138,-0.1702 1.3694,-0.2488 2.01161,-0.2261 z m -322.45937,-1.369 6.74228,8.2983 -22.8825,18.531 c -4.48595,3.6326 -7.03924,8.3404 -7.64696,14.121 -0.60773,5.7806 0.9268,10.9124 4.55922,15.3983 3.63261,4.486 8.30926,7.038 14.08984,7.6457 5.78058,0.6077 10.94356,-0.9254 15.4295,-4.558 4.48604,-3.6325 7.00807,-8.3416 7.6158,-14.1223 0.60772,-5.7806 -0.89554,-10.911 -4.52806,-15.397 -2.23006,-2.754 -4.98127,-4.8176 -8.24156,-6.1735 -3.2602,-1.3557 -6.69426,-1.8622 -10.28695,-1.5385 l 10.9866,-8.8785 c 5.958,2.133 10.96327,5.6521 14.96365,10.5923 2.68991,3.3221 4.64967,6.952 5.91111,10.8899 1.26133,3.9381 1.74508,7.9399 1.42115,12.0099 -0.65738,8.4769 -4.3732,15.443 -11.13063,20.9147 -6.75733,5.4718 -14.37964,7.6812 -22.83622,6.5843 -4.02002,-0.5525 -7.81538,-1.8487 -11.40494,-3.9014 -3.58955,-2.0528 -6.72101,-4.7475 -9.41093,-8.0694 -2.68991,-3.322 -4.68084,-6.9532 -5.94238,-10.8913 -1.26133,-3.9379 -1.71802,-7.9315 -1.4225,-11.9786 0.6859,-8.4999 4.40716,-15.5041 11.16449,-20.9758 l 22.84999,-18.5011 z m 273.80559,66.2384 43.02885,73.4855 -16.75127,9.8184 c -5.26469,3.0831 -10.68927,5.091 -16.30735,6.0527 -5.61807,0.9616 -11.09675,0.8269 -16.40307,-0.4262 -5.45637,-1.2923 -10.43298,-3.6915 -14.95431,-7.1825 -4.52133,-3.4911 -8.35164,-7.8979 -11.4719,-13.2255 -3.12016,-5.3278 -5.06753,-10.7901 -5.89119,-16.4254 -0.82367,-5.6355 -0.48358,-11.1726 1.05862,-16.5636 1.5031,-5.2411 4.06539,-10.0507 7.66188,-14.4644 3.59638,-4.4137 8.01378,-8.1674 13.27847,-11.2506 l 2.88801,-1.6896 5.09869,8.6966 -2.88801,1.6896 c -3.27861,1.9201 -6.16194,4.4827 -8.68356,7.6953 -2.52162,3.2127 -4.44234,6.7424 -5.71117,10.5762 -2.97176,9.0225 -2.01292,17.7005 2.87964,26.0546 4.92958,8.4171 11.98887,13.5623 21.16724,15.4267 3.95128,0.8188 7.96377,0.9148 12.03089,0.2688 4.06703,-0.6462 7.77525,-1.9539 11.14843,-3.9294 l 7.05988,-4.137 -37.93016,-64.7888 9.69139,-5.6814 z m -172.61629,17.8263 10.07374,5.0327 -25.33812,50.7987 c -3.73397,7.4868 -9.54896,12.4164 -17.40523,14.8261 -7.79099,2.3606 -15.47022,1.6621 -23.05502,-2.1207 -7.58479,-3.7828 -12.78718,-9.4819 -15.58883,-17.1253 -2.80163,-7.7252 -2.3108,-15.3482 1.42307,-22.8349 3.71765,-7.454 9.48517,-12.3879 17.34144,-14.7975 7.79099,-2.3606 15.50014,-1.6295 23.08484,2.1532 l 12.92201,6.438 -4.48725,9.0338 -12.95193,-6.4706 c -4.77313,-2.3806 -9.69635,-2.7161 -14.7513,-1.0118 -5.05496,1.7043 -8.75101,4.9457 -11.11534,9.6862 -2.38055,4.7731 -2.72276,9.6868 -1.04303,14.75 1.67982,5.0632 4.91172,8.7659 9.68484,11.1466 4.77323,2.3805 9.66518,2.7146 14.72013,1.0104 5.05496,-1.7043 8.7673,-4.9429 11.14785,-9.716 l 25.33813,-50.7989 z"
         id="path3896" />
    </g>
    <text
       inkscape:export-ydpi="90.752098"
       inkscape:export-xdpi="90.752098"
       inkscape:export-filename="/Users/rob/Documents/PancakeBot2D/Design/Imgs/print.png"
       sodipodi:linespacing="125%"
       id="text3898"
       y="1933.2413"
       x="302.59821"
       style="font-size:40px;font-style:italic;font-variant:normal;font-weight:bold;font-stretch:normal;text-align:start;line-height:125%;letter-spacing:0px;word-spacing:0px;writing-mode:lr-tb;text-anchor:start;fill:#1d2a41;fill-opacity:1;stroke:none;font-family:Chalkboard;-inkscape-font-specification:Chalkboard Bold Italic"
       xml:space="preserve"><tspan
         y="1933.2413"
         x="302.59821"
         id="tspan3900"
         sodipodi:role="line">PRINT</tspan></text>
    <text
       inkscape:export-ydpi="90.752098"
       inkscape:export-xdpi="90.752098"
       inkscape:export-filename="/Users/rob/Documents/PancakeBot2D/Design/Imgs/clear.png"
       xml:space="preserve"
       style="font-size:40px;font-style:italic;font-variant:normal;font-weight:bold;font-stretch:normal;text-align:start;line-height:125%;letter-spacing:0px;word-spacing:0px;writing-mode:lr-tb;text-anchor:start;fill:#1d2a41;fill-opacity:1;stroke:none;font-family:Chalkboard;-inkscape-font-specification:Chalkboard Bold Italic"
       x="464.83881"
       y="1933.2061"
       id="text3902"
       sodipodi:linespacing="125%"><tspan
         sodipodi:role="line"
         id="tspan3904"
         x="464.83881"
         y="1933.2061">CLEAR</tspan></text>
  </g>
</svg>
