<?xml version="1.0" encoding="UTF-8" standalone="no"?>
<!-- Created with Inkscape (http://www.inkscape.org/) -->

<svg
   xmlns:dc="http://purl.org/dc/elements/1.1/"
   xmlns:cc="http://creativecommons.org/ns#"
   xmlns:rdf="http://www.w3.org/1999/02/22-rdf-syntax-ns#"
   xmlns:svg="http://www.w3.org/2000/svg"
   xmlns="http://www.w3.org/2000/svg"
   xmlns:xlink="http://www.w3.org/1999/xlink"
   xmlns:sodipodi="http://sodipodi.sourceforge.net/DTD/sodipodi-0.dtd"
   xmlns:inkscape="http://www.inkscape.org/namespaces/inkscape"
   width="1024"
   height="700"
   id="svg2"
   version="1.1"
   inkscape:version="0.48.4 r9939"
   sodipodi:docname="pandrawingonly.svg">
  <sodipodi:namedview
     id="base"
     pagecolor="#ffffff"
     bordercolor="#666666"
     borderopacity="1.0"
     inkscape:pageopacity="0.0"
     inkscape:pageshadow="2"
     inkscape:zoom="0.98994949"
     inkscape:cx="480.25743"
     inkscape:cy="365.18173"
     inkscape:document-units="px"
     inkscape:current-layer="layer1"
     showgrid="false"
     inkscape:window-width="1650"
     inkscape:window-height="1235"
     inkscape:window-x="229"
     inkscape:window-y="78"
     inkscape:window-maximized="0"
     width="1024px" />
  <defs
     id="defs4">
    <inkscape:path-effect
       effect="rough_hatches"
       id="path-effect4222"
       is_visible="true"
       direction="-1015.8596,399.17669 , 230.5729,0"
       dist_rdm="75;1"
       growth="0"
       do_bend="true"
       bender="-1015.8596,404.17669 , 5,0"
       bottom_edge_variation="117.27917;1"
       top_edge_variation="117.27917;1"
       bottom_tgt_variation="0;1"
       top_tgt_variation="0;1"
       scale_bf="1"
       scale_bb="1"
       scale_tf="1"
       scale_tb="1"
       top_smth_variation="0;1"
       bottom_smth_variation="0;1"
       fat_output="true"
       stroke_width_top="1"
       stroke_width_bottom="1"
       front_thickness="1"
       back_thickness="0.25" />
    <inkscape:path-effect
       effect="rough_hatches"
       id="path-effect4220"
       is_visible="true"
       direction="-995.71429,415.93362 , 245,0"
       dist_rdm="0;1"
       growth="0"
       do_bend="false"
       bender="-995.71429,420.93362 , 5,0"
       bottom_edge_variation="113.71428;1"
       top_edge_variation="113.71428;1"
       bottom_tgt_variation="0;1"
       top_tgt_variation="0;1"
       scale_bf="1"
       scale_bb="1"
       scale_tf="1"
       scale_tb="1"
       top_smth_variation="0;1"
       bottom_smth_variation="0;1"
       fat_output="true"
       stroke_width_top="1"
       stroke_width_bottom="1"
       front_thickness="1"
       back_thickness="0.25" />
    <linearGradient
       id="linearGradient3784">
      <stop
         id="stop3786"
         offset="0"
         style="stop-color:#7a7a7a;stop-opacity:1;" />
      <stop
         id="stop3788"
         offset="1"
         style="stop-color:#373737;stop-opacity:1;" />
    </linearGradient>
    <linearGradient
       gradientUnits="userSpaceOnUse"
       y2="748.84387"
       x2="870.16724"
       y1="502.57825"
       x1="643.80353"
       id="linearGradient3790"
       xlink:href="#linearGradient3784"
       inkscape:collect="always" />
    <linearGradient
       y2="585.80481"
       x2="923.2005"
       y1="633.46704"
       x1="611.44299"
       gradientUnits="userSpaceOnUse"
       id="linearGradient3805"
       xlink:href="#linearGradient3784"
       inkscape:collect="always" />
    <linearGradient
       y2="585.80481"
       x2="923.2005"
       y1="633.46704"
       x1="611.44299"
       gradientUnits="userSpaceOnUse"
       id="linearGradient3818"
       xlink:href="#linearGradient3784"
       inkscape:collect="always" />
    <linearGradient
       y2="585.80481"
       x2="923.2005"
       y1="633.46704"
       x1="611.44299"
       gradientUnits="userSpaceOnUse"
       id="linearGradient3818-1"
       xlink:href="#linearGradient3784-7"
       inkscape:collect="always" />
    <linearGradient
       id="linearGradient3784-7">
      <stop
         id="stop3786-4"
         offset="0"
         style="stop-color:#7a7a7a;stop-opacity:1;" />
      <stop
         id="stop3788-0"
         offset="1"
         style="stop-color:#373737;stop-opacity:1;" />
    </linearGradient>
    <linearGradient
       inkscape:collect="always"
       xlink:href="#linearGradient3784-7"
       id="linearGradient3855"
       gradientUnits="userSpaceOnUse"
       x1="611.44299"
       y1="633.46704"
       x2="923.2005"
       y2="585.80481" />
    <linearGradient
       y2="585.80481"
       x2="923.2005"
       y1="633.46704"
       x1="611.44299"
       gradientUnits="userSpaceOnUse"
       id="linearGradient3900"
       xlink:href="#linearGradient3784-7"
       inkscape:collect="always" />
    <linearGradient
       inkscape:collect="always"
       xlink:href="#linearGradient3784"
       id="linearGradient3812"
       x1="829.3454"
       y1="547.28595"
       x2="875.79211"
       y2="631.1286"
       gradientUnits="userSpaceOnUse" />
    <linearGradient
       inkscape:collect="always"
       xlink:href="#linearGradient3784"
       id="linearGradient3824"
       gradientUnits="userSpaceOnUse"
       x1="829.3454"
       y1="547.28595"
       x2="875.79211"
       y2="631.1286"
       gradientTransform="translate(-2.0203051,83.842661)" />
    <linearGradient
       inkscape:collect="always"
       xlink:href="#linearGradient3784"
       id="linearGradient3832"
       gradientUnits="userSpaceOnUse"
       x1="829.3454"
       y1="547.28595"
       x2="875.79211"
       y2="631.1286"
       gradientTransform="translate(-2.0203051,166.67517)" />
  </defs>
  <metadata
     id="metadata7">
    <rdf:RDF>
      <cc:Work
         rdf:about="">
        <dc:format>image/svg+xml</dc:format>
        <dc:type
           rdf:resource="http://purl.org/dc/dcmitype/StillImage" />
        <dc:title></dc:title>
      </cc:Work>
    </rdf:RDF>
  </metadata>
  <g
     id="layer1"
     inkscape:groupmode="layer"
     inkscape:label="Layer 1"
     transform="translate(0,-352.36218)">
    <g
       transform="matrix(1.4286211,0,0,1.4286211,-1227.4989,-57.132573)"
       inkscape:export-ydpi="62.77"
       inkscape:export-xdpi="62.77"
       inkscape:export-filename="M:\RobDev\Projects\ArtDesign\PancakeBot2D\Design\Imgs\pan.png"
       id="g3807">
      <g
         id="g2996"
         transform="matrix(0.51615102,0.8564976,-0.8564976,0.51615102,1403.4788,-85.631602)">
        <path
           style="fill:#a5a5a5"
           d="m 257.38675,763.22691 c -21.83031,-14.18341 -40.11858,-30.31219 -54.07268,-47.68775 -12.05064,-15.00538 -25.65528,-35.72807 -31.86311,-48.53412 -6.47798,-13.36334 -14.47937,-37.19911 -17.34906,-51.6821 -1.56997,-7.92341 -3.4109,-13.34673 -7.12841,-21 -8.57219,-17.64763 -8.65242,-26.94304 -0.3889,-45.06023 2.8817,-6.31792 5.48207,-14.34787 7.39799,-22.84499 8.87836,-39.37566 22.76409,-68.93205 45.60904,-97.08083 15.54467,-19.15362 38.58508,-39.17738 59.9084,-52.06468 16.11995,-9.74251 28.08424,-15.18618 51,-23.20464 19.47331,-6.81392 25.96808,-10.19794 34.00938,-17.72018 9.87942,-9.24172 14.78826,-18.81199 16.45412,-32.07898 0.9551,-7.60641 0.0299,-18.09073 -4.34715,-49.26337 -5.37131,-38.25335 -5.89093,-58.56952 -1.7381,-67.95766 3.31699,-7.49861 6.8703,-11.51665 12.50472,-14.14018 13.94787,-6.49449 29.24672,0.4472 33.9844,15.42004 3.52034,11.12561 2.86986,30.63702 -2.35252,70.56429 -4.2764,32.69484 -4.59111,38.65805 -2.56878,48.67326 4.92424,24.38626 17.98191,36.34409 51.05393,46.75367 18.3344,5.77084 25.99659,9.10338 42.20506,18.35638 19.47256,11.11639 33.35656,21.74098 49.3404,37.75725 32.59563,32.66176 51.53114,67.78129 62.39121,115.71639 2.27815,10.05552 4.59125,17.44767 6.88461,22.00166 8.76734,17.40962 8.81321,31.2775 0.15963,48.25772 -2.34552,4.60241 -4.5837,11.53677 -6.55032,20.29422 -3.87658,17.26271 -7.08182,27.76479 -12.60131,41.28864 -11.94277,29.2622 -29.0469,55.3437 -49.93869,76.1498 -9.50797,9.46897 -18.2001,14.94284 -32.17518,25.7518 -83.48437,49.10368 -178.11162,50.27948 -249.82868,3.33459 z"
           id="path3008"
           inkscape:connector-curvature="0"
           sodipodi:nodetypes="csssssssssssssssssssssssssscc" />
        <path
           style="fill:#505050"
           d="m 256.00002,760.89842 c -17.51478,-11.64865 -26.70859,-19.26792 -40.5208,-33.58115 -17.6536,-18.29397 -37.58363,-47.19515 -45.8261,-66.45393 -5.66769,-13.2427 -11.3063,-30.99713 -14.08772,-44.3583 -2.06328,-9.91143 -3.68488,-14.6744 -7.83058,-23 l -5.22844,-10.5 0.005,-11 0.005,-11 5.0752,-11 c 3.53034,-7.65167 5.90244,-14.74206 7.7929,-23.2935 5.51455,-24.94528 18.11744,-57.24411 25.7495,-65.9913 1.57633,-1.80663 2.86604,-3.86569 2.86604,-4.57568 0,-0.70999 1.125,-2.34777 2.5,-3.63952 1.375,-1.29175 2.5,-3.12204 2.5,-4.06733 0,-0.94528 0.5783,-1.94061 1.2851,-2.21183 0.70681,-0.27123 2.61008,-2.45687 4.22949,-4.85699 14.25582,-21.12849 42.22736,-47.02728 67.0448,-62.07666 10.05858,-6.09956 40.7248,-20.78719 43.40145,-20.78719 0.7132,0 4.72627,-1.08379 8.91794,-2.40843 17.80938,-5.62805 23.96979,-6.95516 37.62122,-8.10459 10.4205,-2.38378 15.89699,-1.85518 21.34455,-3.4335 5.74048,-2.37231 5.18624,-6.29296 4.56457,-19.55348 -0.089,-3.3 -0.47282,-8.475 -0.85293,-11.5 -0.38011,-3.025 -0.21055,-10.45 0.3768,-16.5 1.27361,-38.17061 5.66169,-69.28096 2.91669,-102.94556 -3.15329,-12.61984 -0.26575,-12.30965 -7.70068,-14.96236 -1.45396,-0.89859 -5.92356,3.1671 -8.71136,7.92411 -2.43962,4.1629 -2.55041,5.00034 -2.33868,17.67687 0.31859,19.07354 2.74047,44.39836 5.91076,61.80694 2.43595,13.3762 4.37368,35.18615 3.61677,40.70839 -1.22599,8.9446 -15.03881,29.72461 -22.31377,33.56885 -12.29258,6.49565 -14.83092,7.71669 -15.54611,7.4783 -0.44796,-0.14932 2.33313,-2.627 6.18021,-5.50594 13.35447,-9.99375 20.79969,-22.36042 23.06102,-38.30486 1.02552,-7.23087 -0.0823,-19.68911 -4.46696,-50.2346 -5.27154,-36.72384 -5.76621,-57.88417 -1.575,-67.37299 4.27484,-9.67816 12.24802,-15.27541 21.81624,-15.31519 6.37467,-0.0265 10.59298,1.61247 15.7074,6.10294 10.5812,9.29031 11.4441,28.13737 3.79441,82.8751 -4.68625,33.53263 -4.84591,44.19789 -0.82291,54.96838 3.17586,8.50247 6.38644,14.05445 10.9073,18.86169 8.1227,8.63726 22.32565,16.20868 41.63168,22.19335 16.64079,5.15847 25.44565,8.95112 40.11611,17.27982 36.09711,20.49303 63.45059,47.08065 84.03738,81.68444 11.61628,19.52549 20.45566,42.16108 26.29454,67.33415 4.35044,18.75599 3.81597,17.083 8.786,27.50168 7.6948,16.13062 7.51042,27.99375 -0.699,44.97437 -3.32924,6.88628 -5.32288,12.90173 -7.16069,21.60608 -8.54381,40.46562 -28.32411,79.15133 -55.27033,108.09604 -84.21757,83.34876 -225.64247,71.93257 -289.10401,35.89338 z m 224.5,7.60662 c 0.33992,-0.55 0.16803,-1 -0.38197,-1 -0.55,0 -1.27811,0.45 -1.61803,1 -0.33992,0.55 -0.16803,1 0.38197,1 0.55,0 1.27811,-0.45 1.61803,-1 z"
           id="path3006"
           inkscape:connector-curvature="0"
           sodipodi:nodetypes="csssscccssssssssssscccscccssssssssssssssssssssssccsssss" />
        <path
           style="fill:#404040"
           d="m 256.3976,759.97795 c -27.75565,-18.34129 -44.1518,-34.34029 -64.02369,-62.47291 -4.46776,-6.325 -10.62494,-15.85203 -13.68261,-21.17118 -9.46033,-16.45723 -18.42577,-41.66768 -22.63186,-63.63985 -1.0856,-5.67106 -2.60377,-11.52106 -3.37371,-13 -5.29591,-10.17265 -6.70109,-13.35072 -8.19985,-18.54547 -1.90545,-6.60431 -1.35297,-15.67897 1.07736,-17.69596 0.79023,-0.65584 1.44493,-2.14983 1.4549,-3.31998 0.01,-1.17016 1.41011,-4.60256 3.11145,-7.62756 3.46385,-6.15877 3.15805,-5.21142 9.19974,-28.5 10.28868,-39.65919 24.48477,-68.08606 47.94142,-96 15.63142,-18.60175 35.10974,-35.12067 56.87832,-48.23664 10.79808,-6.50605 35.44748,-18.20192 42.35095,-20.09507 2.2,-0.60331 8.05,-2.23101 13,-3.61711 19.11878,-5.35365 47.84709,-8.95154 64,-8.01527 41.32086,2.39509 68.6048,9.23429 98.19426,24.61413 7.59316,3.94673 14.03074,7.49432 14.30574,7.88355 0.79951,1.13159 13.40438,8.64259 15.75699,9.38928 1.17765,0.37377 3.62659,2.06843 5.44209,3.76591 1.81551,1.69747 6.45092,5.66353 10.30092,8.81345 9.54733,7.81125 25.54237,24.89626 31.82884,33.99777 20.27711,29.3571 30.87675,52.32655 38.07101,82.5 4.80697,20.16093 6.26872,24.85366 10.1471,32.5757 7.3236,14.5816 7.04342,27.2488 -0.9565,43.245 -3.26224,6.523 -5.31738,12.50717 -7.10188,20.6793 -3.89787,17.85035 -7.16077,28.31612 -13.56545,43.51117 -19.2472,45.66381 -50.41656,81.13934 -94.42312,107.468 -42.98454,18.86309 -142.60122,53.88773 -235.10242,-6.50626 z m 130.33339,32.8341 c -0.97297,-0.25354 -2.32297,-0.23687 -3,0.0371 -0.67703,0.27393 0.11903,0.48137 1.76903,0.46099 1.65,-0.0204 2.20394,-0.2445 1.23097,-0.49804 z m 23.96713,-1.50734 c 4.56605,-0.66018 8.3019,-1.56018 8.3019,-2 0,-1.00931 0.59983,-1.06178 -13,1.13719 -6.76543,1.09391 -9.87456,1.90138 -7.5519,1.96129 2.17146,0.056 7.68396,-0.4383 12.25,-1.09848 z m 18.8418,-3.31914 c 6.26556,-1.59734 13.60794,-3.67821 21.9601,-6.22363 17.44565,-5.31677 36.94335,-15.65679 58.95934,-31.26734 6.46282,-4.58249 19.08988,-16.38416 13.54066,-12.65555 -6.00865,4.03732 -7.75485,5.31586 -12,8.78623 -18.7917,15.36206 -55.76291,32.57188 -85.75,39.91598 -2.3375,0.57248 -4.25,1.47352 -4.25,2.00232 0,1.26775 0.53313,1.2283 7.5399,-0.55801 z m 105.41831,-58.9036 c 2.45201,-2.51731 4.01164,-4.57693 3.46584,-4.57693 -0.5458,0 -3.452,2.52755 -6.45821,5.61678 -3.00621,3.08922 -4.56584,5.14884 -3.46584,4.57693 1.1,-0.57192 4.00619,-3.09946 6.45821,-5.61678 z m 70.04394,-137.08195 c 2.23954,-5.22464 2.30173,-5.4981 1.24785,-5.48728 -1.20892,0.0124 -4.93728,7.18807 -5.71144,10.9923 -0.68889,3.38524 -0.66014,3.42878 0.87675,1.32788 0.87395,-1.19466 2.48803,-4.26947 3.58684,-6.8329 z M 415.50002,344.94851 c -2.75,-1.37169 -7.925,-3.6701 -11.5,-5.10758 -13.12971,-5.27937 -17.80695,-9.28257 -21.4232,-18.3359 7.92776,-16.31084 20.79969,-143.82909 -7.80723,-144 -4.72454,0 -5.4274,0.32875 -9.26432,4.33318 -6.06294,6.32764 -6.94572,10.51935 -6.10171,28.97299 0.38221,8.35661 1.13975,19.69383 1.68344,25.19383 0.89817,9.08597 1.81118,15.6418 6.54556,47 2.19962,14.56916 1.4597,25.35847 -2.2974,33.5 -1.64977,3.575 -4.90658,8.525 -7.23737,11 -2.33079,2.475 -4.54495,4.95 -4.92036,5.5 -1.06145,1.55511 -6.17741,5.91869 -6.17741,5.26893 0,-0.31884 1.61294,-2.51026 3.5843,-4.86983 1.97137,-2.35957 4.84577,-6.78965 6.38756,-9.84461 7.96825,-15.78857 8.01287,-23.4003 0.44582,-76.05449 -2.03768,-14.17889 -2.68893,-22.82111 -2.78818,-37 -0.1284,-18.3431 -0.10584,-18.54819 2.66059,-24.1816 3.53788,-7.20439 8.24166,-11.3357 15.21437,-13.36272 5.04594,-1.46689 5.95176,-1.46497 11.07203,0.0235 7.69771,2.23779 13.70205,8.29038 16.0652,16.1943 3.34465,11.1867 2.19261,32.79516 -4.19008,78.5927 -3.86036,27.6991 -4.07831,32.44964 -1.91069,41.64559 3.22295,13.67309 11.0348,24.94246 24.45908,35.28463 4.36423,3.36224 3.84775,3.41328 -2.5,0.24705 z"
           id="path3004"
           inkscape:connector-curvature="0"
           sodipodi:nodetypes="csssssscsssssssssssssssssscccccccssssssssssssssssssssssscsccssssssssssssssssssscc" />
        <path
           style="fill:#3e3e3e"
           d="m 254.50002,758.26939 c -14.76632,-9.72952 -29.17535,-21.45542 -38.13704,-31.0355 -15.62392,-16.70202 -36.85008,-47.29711 -43.98828,-63.4041 -3.11326,-7.02493 -9.13148,-23.47732 -10.36107,-28.32475 -0.4883,-1.925 -1.75209,-6.875 -2.80845,-11 -1.05635,-4.125 -2.7327,-11.775 -3.72522,-17 -0.99253,-5.225 -2.63155,-10.57319 -3.64227,-11.88486 -1.01072,-1.31167 -1.83789,-3.11167 -1.83817,-4 -4.2e-4,-1.34671 -1.85208,-6.9449 -4.66872,-14.11514 -1.88739,-4.80466 0.39963,-14.48092 6.26337,-26.5 1.87829,-3.85 4.77928,-12.625 6.44664,-19.5 7.63186,-31.46844 14.12394,-48.94646 25.81525,-69.5 17.06864,-30.00699 41.52023,-56.23718 70.64396,-75.7826 11.26497,-7.56012 42.94928,-23.85617 49.18532,-25.29729 1.54808,-0.35775 5.96468,-1.68056 9.81468,-2.93959 8.5978,-2.81165 18.31909,-5.01589 31.75577,-7.20042 12.99636,-2.11293 49.93555,-2.36555 63.74423,-0.43593 35.03467,4.89574 62.88319,15.22409 91.15762,33.80817 5.36865,3.52868 11.24195,7.04296 13.05178,7.8095 1.80983,0.76654 3.85358,2.32087 4.54166,3.45406 0.68808,1.13319 3.15555,3.2626 5.48328,4.73203 5.73277,3.61894 29.45899,27.52967 34.087,34.35207 2.05202,3.025 5.10323,7.3 6.78048,9.5 5.31557,6.97231 13.93718,22.14586 18.6093,32.75131 8.24928,18.72541 11.32934,28.38536 17.28594,54.2136 1.13714,4.9307 4.04004,13.26813 6.4509,18.52761 8.04298,17.5464 8.07662,28.38791 0.13806,44.48965 -3.31334,6.72041 -5.42659,13.00617 -7.61794,22.65911 -4.03928,17.7931 -6.30169,25.24389 -11.64317,38.3444 -11.65414,28.58288 -27.93639,53.76523 -47.46842,73.41526 -14.79779,14.8872 -26.32306,23.7167 -54.08958,41.43802 -103.80143,45.09614 -150.12022,22.93412 -231.26691,-11.57461 z m 151,34.23417 c 4.95,-0.61932 10.8,-1.53054 13,-2.02494 2.2,-0.4944 6.025,-1.19311 8.5,-1.55268 4.75257,-0.69047 32.06747,-8.89146 34.86038,-10.46643 0.90179,-0.50854 5.68962,-2.55364 10.63962,-4.54466 4.95,-1.99103 9.675,-4.16768 10.5,-4.83701 0.825,-0.66934 5.1,-3.39953 9.5,-6.06711 13.47453,-8.16915 24.50786,-16.45075 35.7011,-26.79718 10.019,-9.26101 16.47554,-16.36521 15.63615,-17.2046 -0.20061,-0.2006 -5.08355,4.11971 -10.85099,9.60068 -5.76744,5.48098 -11.61126,10.71527 -12.98626,11.63176 -1.375,0.91649 -5.2,3.7651 -8.5,6.33025 -18.62439,14.47705 -45.01021,27.54775 -73.5,36.40956 -13.65272,4.24671 -37.70427,8.12846 -55.5,8.95732 -11.7488,0.54721 -12.42406,0.64575 -9.70431,1.4162 3.34257,0.94688 22.27052,0.45426 32.70431,-0.85116 z m -37.5,10e-4 c -1.97449,-1.27601 -7,-1.27601 -7,0 0,0.55 1.9125,0.99311 4.25,0.98469 3.11246,-0.0112 3.84851,-0.27478 2.75,-0.98469 z m -17.8125,-1.68311 c -0.72188,-0.28887 -1.58438,-0.25335 -1.91667,0.0789 -0.33229,0.33229 0.25834,0.56864 1.3125,0.52522 1.16495,-0.048 1.4019,-0.28494 0.60417,-0.60416 z m 198.66044,-76.44501 c 1.83286,-2.93488 -0.66299,-2.03608 -2.64807,0.95362 -1.22728,1.84839 -1.23791,2.12633 -0.0641,1.67588 0.77397,-0.297 1.99444,-1.48027 2.71214,-2.6295 z m 6.15206,-8.37188 c 0.68469,-0.825 1.01989,-1.5 0.74489,-1.5 -0.275,0 -1.0602,0.675 -1.74489,1.5 -0.68469,0.825 -1.01989,1.5 -0.74489,1.5 0.275,0 1.0602,-0.675 1.74489,-1.5 z m 8.89284,-11.52312 c 3.27646,-5.82967 0.87473,-4.85325 -3.13155,1.27312 -5.08497,7.77591 -5.3726,8.53069 -2.0871,5.47688 1.64094,-1.52522 3.98933,-4.56272 5.21865,-6.75 z m 40.93039,-101.29472 c 3.75948,-9.14367 4.51563,-11.68125 3.48082,-11.68125 -1.19781,0 -8.16867,14.0673 -8.96669,18.09491 -0.60288,3.04279 -0.50401,3.26477 0.92929,2.08634 0.88218,-0.72532 2.93264,-4.55032 4.55658,-8.5 z M 413.00002,343.48522 c -1.925,-1.06242 -7.45181,-3.79673 -12.28179,-6.07623 -11.22105,-5.29576 -16.41217,-11.32151 -19.19445,-22.28059 -2.77088,-10.91416 0.53829,-43.97382 7.46953,-74.62296 1.18162,-5.225 2.56544,-12.62714 3.07515,-16.44921 1.32485,-9.93434 1.37181,-28.95552 0.077,-31.18405 -0.92211,-1.58706 -1.11588,-1.26745 -1.2933,2.13326 -0.11478,2.2 -0.17189,4.9 -0.12691,6 -4.13148,4.91435 0.43567,-13.96084 -3.6524,-18.91137 -2.44833,-2.95149 -6.77203,-4.58859 -12.1188,-4.58859 -6.65744,0 -10.01327,2.37781 -13.54581,9.59806 l -2.71526,5.54979 0.64424,19.67608 c 0.65159,19.90036 2.76888,39.53614 6.71078,62.23576 1.20114,6.91683 2.22067,17.32429 2.29624,23.44031 0.13293,10.75728 0.0551,11.16549 -3.52779,18.5 -2.01504,4.125 -5.04807,8.82169 -6.74007,10.43709 -3.4941,3.33592 -3.97961,2.24138 -1.16657,-2.62993 2.67095,-4.62527 4.85408,-11.56932 6.11114,-19.43818 1.19223,-7.46307 0.80133,-12.04057 -4.04516,-47.36898 -6.76007,-49.27752 -6.55481,-64.48424 1.019,-75.4924 4.26292,-6.19594 8.83384,-8.69867 16.85031,-9.22609 6.15836,-0.40517 7.06531,-0.18906 12.15492,2.89629 4.1951,2.5431 6.21012,4.63762 8.49306,8.82817 2.8299,5.19452 3.01274,6.22956 3.35395,18.98604 0.42848,16.01906 -0.72058,29.28123 -5.38003,62.09526 -4.94572,34.83 -4.56796,41.94985 3.05419,57.56462 2.69403,5.51899 5.33518,8.88666 11.56794,14.75 8.35347,7.85834 8.88368,8.87433 2.91089,5.57789 z m -62,-9.86215 c 0,-0.55 0.45,-1.27811 1,-1.61803 0.55,-0.33992 1,-0.16803 1,0.38197 0,0.55 -0.45,1.27811 -1,1.61803 -0.55,0.33992 -1,0.16803 -1,-0.38197 z"
           id="path3002"
           inkscape:connector-curvature="0"
           sodipodi:nodetypes="csssssssssssssssssssssssssssssccsssssssscsssssssssssccccccscccsssssssssssssscssssssccsscssssssssssssssssccsssss" />
        <path
           style="fill:#343434"
           d="m 309.35192,785.07647 c -24.4339,-8.33262 -37.44458,-15.65557 -52.8944,-25.80082 -7.12663,-4.67975 -15.79592,-10.79245 -19.26511,-13.58378 -20.18656,-16.24227 -38.82737,-38.05397 -54.68132,-63.9829 -9.31743,-15.23853 -12.33397,-22.45911 -21.60035,-51.70393 -1.04562,-3.3 -2.81756,-11.52475 -3.93764,-18.27723 -1.52277,-9.18009 -3.06873,-14.60382 -6.12826,-21.5 -6.66624,-15.02568 -6.52341,-23.18907 0.66878,-38.22277 3.75012,-7.8388 5.12627,-12.28783 9.57511,-30.95578 2.76875,-11.61806 5.32515,-19.52574 11.73798,-36.30896 5.37014,-14.05433 20.88049,-39.84181 32.01933,-53.23526 12.42962,-14.94548 29.52844,-30.87507 44.88612,-41.81677 16.11902,-11.4841 40.29564,-23.86214 58.26786,-29.83219 10.80417,-3.58895 11.5767,-3.78409 28.5,-7.19908 29.30287,-5.9131 61.49564,-5.12487 96.5,2.36276 20.22201,4.3256 48.13954,16.68182 68.10018,30.14095 5.99063,4.03938 11.17676,7.34433 11.52474,7.34433 0.34797,0 2.30581,1.4625 4.35074,3.25 2.04494,1.7875 5.66936,4.825 8.05426,6.75 8.65062,6.98243 31.92396,30.96808 32.57838,33.57547 0.36346,1.44814 2.50658,4.5864 4.76249,6.9739 4.94189,5.23014 9.81865,13.24351 17.01016,27.95063 8.62402,17.63669 12.53906,28.63809 18.14926,51 3.83463,15.28464 6.44216,23.43077 9.58087,29.93141 3.93149,8.14259 4.34796,9.74558 4.71553,18.14975 0.32973,7.53902 0.008,10.40691 -1.76806,15.7429 -1.19418,3.58852 -2.90514,7.12113 -3.80213,7.85026 -1.43208,1.16409 -1.53065,1.08189 -0.80859,-0.67432 3.44149,-8.37049 4.69396,-14.07076 2.62568,-11.95 -2.40919,2.47031 -8.19615,15.06564 -8.73788,19.01799 -0.33411,2.43761 -0.39206,4.43201 -0.12877,4.43201 0.26329,0 1.52164,-2.02781 2.79635,-4.50624 2.96249,-5.76003 3.65075,-5.22638 0.99694,0.77299 -1.11326,2.51671 -3.10878,9.89875 -4.4345,16.40454 -8.09643,39.7322 -28.39487,78.88846 -56.05598,108.13356 -11.90371,12.58537 -25.32392,23.65514 -41.50967,34.23958 -7.425,4.85547 -16.09008,10.69358 -19.25574,12.97358 -90.00194,29.62422 -95.57633,29.08109 -172.39236,12.55342 z m 99.1481,7.59107 c 24.19847,-4.15328 49.4592,-11.28805 70.57436,-21.57065 10.99285,-5.45435 34.00957,-20.68855 41.42564,-27.4186 1.1,-0.99824 5.22535,-4.6281 9.16745,-8.06635 3.9421,-3.43825 10.33427,-10.15636 14.20482,-14.92913 3.87055,-4.77277 9.58893,-11.82777 12.70752,-15.67777 6.00203,-7.40973 9.59272,-12.72203 10.79879,-15.97647 1.41117,-3.8079 -4.23109,2.53196 -10.0904,11.33796 -3.07174,4.61655 -7.2057,10.16974 -9.18658,12.34044 -6.11908,6.70543 -22.37905,22.43508 -26.82963,25.95457 -12.05425,9.53243 -15.35729,11.96562 -21.90773,16.13835 9.26902,23.88628 -155.4709,36.62862 -138.53651,38.78119 8.38007,0.86759 41.89286,0.22539 47.67227,-0.91354 z m -57.08424,-1.0262 c 0.29359,-0.47503 -1.81736,-1.14612 -4.69098,-1.4913 -8.26852,-0.99324 -10.75439,-0.54339 -4.72478,0.855 6.8973,1.59963 8.74329,1.72437 9.41576,0.6363 z m 45.58424,-393.12888 c -11.79113,-1.14793 -36.83314,-0.59344 -44.65288,0.98872 -585.67235,525.86542 624.78625,60.55482 44.65288,-0.98872 z m 175,282.32278 c 0,-2.33663 -1.7125,-0.60564 -2.8868,2.91796 l -1.08373,3.25184 1.98527,-2.36078 c 1.09189,-1.29844 1.98526,-3.01249 1.98526,-3.80902 z m 4.14102,-7.18239 c 1.01173,-2.73496 -0.6221,-1.98595 -2.23275,1.02359 -0.84824,1.58496 -0.81386,1.9638 0.14912,1.6428 0.68838,-0.22946 1.62602,-1.42933 2.08363,-2.66639 z M 405.33508,339.6004 c -14.40287,-7.22382 -18.87919,-11.90155 -23.05787,-24.09536 -1.24857,-3.64343 -1.40382,-6.97455 -0.81563,-17.5 3.48896,-33.28142 13.60285,-123.02904 -8.20681,-121.00489 -5.29696,0.78119 -9.44213,4.19486 -12.32495,10.14998 -2.15894,4.45977 -2.20708,5.25007 -1.59756,26.22666 0.34565,11.89558 1.10545,25.00332 1.68845,29.12832 0.583,4.125 1.45403,10.65 1.93562,14.5 0.4816,3.85 1.85459,12.625 3.05109,19.5 1.19651,6.875 2.2202,16.79461 2.27488,22.04359 0.0908,8.71486 -0.17288,10.12546 -3.03628,16.24441 -3.2325,6.9077 -7.85347,13.712 -9.31215,13.712 -0.45582,0 0.53021,-2.90408 2.19119,-6.4535 1.66097,-3.54943 3.74382,-10.12776 4.62855,-14.61852 1.53169,-7.77463 1.50415,-9.03193 -0.57592,-26.2965 -1.20149,-9.97228 -3.05302,-24.43145 -4.11452,-32.13145 -4.38599,-31.8154 -4.86955,-52.2178 -1.4335,-60.48168 6.16035,-14.81593 20.47478,-20.18762 33.06056,-12.40643 3.61939,2.2377 5.51088,4.38529 7.79447,8.84981 2.75963,5.39521 3.0456,6.90251 3.37238,17.77536 0.4443,14.78294 -0.91015,30.34727 -5.37478,61.76294 -3.80621,26.78269 -4.26941,37.55781 -1.99061,46.3067 2.96562,11.3858 9.70705,22.14218 18.32274,29.23508 2.97844,2.45202 4.80116,4.38894 4.05047,4.30426 -0.75068,-0.0847 -5.4891,-2.22249 -10.52982,-4.75068 z"
           id="path3000"
           inkscape:connector-curvature="0"
           sodipodi:nodetypes="csssssssssssssssssssssssscssssssssssccccsssssssscccsssscccsscsssssscsccsssssssssssssssssssccc" />
        <path
           style="fill:#101010"
           d="m 342.50002,787.94998 c -21.49984,-3.32397 -39.50644,-8.19769 -53.39878,-14.45308 -4.87595,-2.19552 -9.14399,-3.99186 -9.48451,-3.99186 -0.86864,0 -27.1665,-15.65119 -32.60273,-19.40354 -12.71682,-8.77776 -28.10864,-22.48793 -34.12056,-30.39269 -2.21541,-2.91292 -7.27105,-9.21292 -11.23475,-14 -8.10188,-9.78485 -10.68226,-13.53044 -16.5261,-23.98867 -10.71432,-19.17452 -19.67971,-41.91704 -23.07071,-58.52353 -3.36612,-16.48459 -4.81384,-21.51842 -9.15873,-31.8456 -7.06159,-16.78438 -6.85874,-24.1104 1.12095,-40.48455 1.64535,-3.37622 3.93773,-10.57622 5.09419,-16 1.15645,-5.42378 3.40905,-14.73488 5.00576,-20.69133 13.66991,-50.99477 43.9974,-93.96817 88.21695,-125.0015 12.00864,-8.42767 41.75387,-23.67705 54.65902,-28.02183 26.93699,-9.06889 56.07505,-12.78033 85.05729,-10.83411 45.60811,3.06269 77.29944,14.212 115.64952,40.68662 26.57568,18.34627 52.90352,48.58639 68.00524,78.11071 2.21966,4.33951 5.72643,12.16502 7.7928,17.39002 2.06638,5.225 4.82313,11.62254 6.1261,14.21676 1.30298,2.59421 2.36905,6.01456 2.36905,7.60077 0,1.58621 0.40145,4.18867 0.89211,5.78325 0.49066,1.59457 1.45776,5.59922 2.1491,8.89922 2.85844,13.64421 4.03741,17.36248 9.98788,31.5 2.61449,6.21168 3.15593,8.8114 3.15201,15.13436 -0.004,7.00891 -0.37733,8.40552 -4.55279,17.04715 -4.84241,10.02199 -7.27599,17.90617 -8.27795,26.81849 -1.82734,16.25391 -22.04178,63.53138 -33.16847,77.57433 -1.27496,1.60912 -5.03765,6.75067 -8.36154,11.42567 -6.5976,9.27943 -32.9104,35.96579 -38.09139,38.63218 -1.77593,0.91398 -4.99746,3.17064 -7.15896,5.0148 -2.1615,1.84416 -4.50164,3.35302 -5.20031,3.35302 -0.69867,0 -1.63017,0.5625 -2.07,1.25 -0.81065,1.26713 -6.81493,5.75 -7.70144,5.75 -0.26551,0 -3.42902,1.84731 -7.03003,4.10514 -3.60101,2.25782 -7.7895,4.17032 -9.30775,4.25 -1.51826,0.0797 -3.54142,1.10751 -4.49592,2.28409 -1.95037,2.40416 -14.3409,7.60512 -30.47279,12.79105 -22.15558,7.12236 -37.979,9.58499 -64.29176,10.00584 -17.56611,0.28096 -22.64675,-0.004 -35.5,-1.99118 z m 63.22713,-450.44494 c -1.39842,-1.1 -3.06105,-2 -3.69472,-2 -1.7978,0 -12.02153,-10.09066 -13.64646,-13.46884 -0.8019,-1.66714 -2.16019,-4.30799 -3.01843,-5.86856 -1.80854,-3.28855 -2.10338,-25.18228 -0.50046,-37.1626 2.4009,-17.94443 4.33764,-30.25708 5.19119,-33.00249 0.51342,-1.65137 1.12494,-4.80137 1.35895,-7 0.23401,-2.19863 0.92551,-8.25038 1.53666,-13.44834 0.61114,-5.19796 1.14799,-14.66995 1.19298,-21.04887 0.07,-9.92236 -0.2429,-12.35282 -2.16559,-16.82225 -2.63542,-6.1262 -6.49657,-9.70118 -12.1104,-11.21283 -4.94042,-1.33031 -9.11376,-0.55403 -14.37085,2.67313 l -4,2.45547 3.8209,-3.46418 c 5.37752,-4.87546 11.96517,-6.35965 18.53786,-4.17655 5.65162,1.87716 10.95357,6.58898 13.70656,12.18095 1.53452,3.11696 1.97325,6.64292 2.26451,18.19929 0.42668,16.92959 -0.64163,29.12714 -5.4448,62.16667 -4.24137,29.17511 -4.23523,38.28531 0.0333,49.47402 2.82437,7.40318 7.24531,14.91023 11.93522,20.26677 3.26044,3.72388 3.04848,4.14992 -0.62646,1.25921 z m -44.72499,-18.5066 c -10e-4,-0.55363 0.46866,-2.57863 1.04407,-4.5 3.3141,-11.06608 2.64802,-23.88601 -3.50674,-67.4934 -3.49424,-24.75727 -4.38148,-47.10504 -2.17162,-54.6991 0.91213,-3.13451 2.10115,-5.97273 2.64227,-6.30715 0.58005,-0.3585 0.52757,0.54405 -0.12788,2.1991 -0.68444,1.72826 -1.04747,9.14868 -0.94456,19.30715 0.23802,23.49596 2.20601,43.39062 6.77604,68.5 1.55991,8.57071 2.53556,17.53895 2.51579,23.12556 -0.0291,8.23794 -0.33346,9.69694 -3.12875,15 -1.70306,3.23094 -3.09744,5.42147 -3.09862,4.86784 z"
           id="path2998"
           inkscape:connector-curvature="0"
           sodipodi:nodetypes="ssssssssssssssssssssssscsssssssssscsssscssssssssssscssssssscccssscsssssc" />
      </g>
      <path
         transform="matrix(0.58285537,0.96718638,-0.95824994,0.57747001,1267.7711,-565.64896)"
         sodipodi:type="arc"
         style="fill:url(#linearGradient3900);fill-opacity:1;stroke:none"
         id="path3014"
         sodipodi:cx="760.71429"
         sodipodi:cy="629.50507"
         sodipodi:rx="179.28572"
         sodipodi:ry="180"
         d="m 940.00002,629.50507 c 0,99.41125 -80.26896,180 -179.28573,180 -99.01677,0 -179.28572,-80.58875 -179.28572,-180 0,-99.41126 80.26895,-180 179.28572,-180 99.01677,0 179.28573,80.58874 179.28573,180 z" />
    </g>
    <path
       sodipodi:type="arc"
       style="fill:#ffffff;fill-opacity:0.35638296;stroke:#000000;stroke-opacity:1"
       id="path4218"
       sodipodi:cx="-995.71429"
       sodipodi:cy="420.93362"
       sodipodi:rx="490"
       sodipodi:ry="568.57141"
       d="m -554.71429,172.80195 c 0,0 -0.5,513.53667 -24.5,559.12031 -24.375,46.29588 -24.375,-634.69783 -49,-667.284835 -25,-33.083253 -25,812.030385 -49,835.960495 -24.375,24.30403 -24.375,-884.272929 -49.00001,-903.1728273 -25,-19.1877137 -25,954.8421073 -49,968.9260073 -24.37499,14.30395 -24.37499,-1027.091008 -48.99999,-1037.785685 -25,-10.857541 -25,995.858945 -49,1003.037315 -24.375,7.29054 -24.375,-1106.04607 -49,-1110.351 -25,-4.37048 -25,1165.36301 -49,1166.73803 -24.375,1.39651 -24.375,-1134.74632 -49.00001,-1133.33549 -25,1.43232 -25,1162.93813 -49,1158.74253 -24.375,-4.2613 -24.375,-1117.71635 -49,-1110.351037 -25,7.47747 -25,1098.302037 -49,1087.878837 -24.375,-10.5861 -24.375,-1052.236353 -49,-1037.785687 -25,14.670727 -25,1014.886387 -49,996.466187 -24.375,-18.70801 -24.375,-927.726147 -49,-903.172849 -25,24.927207 -25,751.785189 -49,720.025259 -24.375,-32.25617 -24.375,-714.055565 -49,-667.284857 -25,47.482957 -25,543.707487 -49,422.211617 -24.375,-123.39425 -24.5,-100.52827 -24.5,-100.52827 0,0 -0.125,-23.13156 24.5,101.52827 25,126.5582 25,-376.62798 49,-422.21162 24.375,-46.295876 24.375,634.69786 49,667.28486 25,33.08326 25,-696.09514 49,-720.025259 24.375,-24.304026 24.375,884.272969 49,903.172849 25,19.18771 25,-982.382289 49,-996.466187 24.375,-14.303959 24.375,1027.091017 49,1037.785687 25,10.8575 25,-1080.700466 49,-1087.878837 24.375,-7.290533 24.375,1106.046037 49,1110.351037 25,4.3705 25,-1157.36751 49,-1158.74253 24.37501,-1.3965 24.37501,1134.74632 49.00001,1133.33549 25,-1.43231 25,-1170.93369 49,-1166.73803 24.375,4.26123 24.375,1117.71631 49,1110.351 25,-7.47747 25,-1013.460554 49,-1003.037315 24.375,10.586102 24.375,1052.236345 48.99999,1037.785685 25,-14.67072 25,-987.346213 49,-968.9260073 24.37501,18.7080213 24.37501,927.7261273 49.00001,903.1728273 25,-24.9272 25,-867.720418 49,-835.960495 24.375,32.256173 24.375,714.055545 49,667.284835 25,-47.48296 24.5,-560.12031 24.5,-560.12031 z"
       inkscape:path-effect="#path-effect4220" />
    <rect
       style="fill:url(#linearGradient3812);fill-opacity:1;stroke:none;stroke-width:2;stroke-linecap:butt;stroke-miterlimit:4;stroke-opacity:1;stroke-dasharray:none"
       id="rect3036"
       width="224.25386"
       height="58.58886"
       x="751.55353"
       y="559.40771"
       ry="11.111678" />
    <text
       xml:space="preserve"
       style="font-size:40px;font-style:normal;font-weight:normal;line-height:125%;letter-spacing:0px;word-spacing:0px;fill:#ecebd3;fill-opacity:1;stroke:none;font-family:Sans"
       x="800.04083"
       y="602.8443"
       id="text3814"
       sodipodi:linespacing="125%"><tspan
         sodipodi:role="line"
         id="tspan3816"
         x="800.04083"
         y="602.8443">PRINT</tspan></text>
    <rect
       ry="11.111678"
       y="643.25037"
       x="749.5332"
       height="58.58886"
       width="224.25386"
       id="rect3818"
       style="fill:url(#linearGradient3824);fill-opacity:1;stroke:none" />
    <text
       sodipodi:linespacing="125%"
       id="text3820"
       y="686.68695"
       x="798.02051"
       style="font-size:40px;font-style:normal;font-weight:normal;line-height:125%;letter-spacing:0px;word-spacing:0px;fill:#ecebd3;fill-opacity:1;stroke:none;font-family:Sans"
       xml:space="preserve"><tspan
         y="686.68695"
         x="798.02051"
         id="tspan3822"
         sodipodi:role="line">CLEAR</tspan></text>
  </g>
</svg>
